<svg width="1280" height="24" viewBox="0 0 1280 24" fill="none" xmlns="http://www.w3.org/2000/svg">
<path d="M334.75 9.22425V16.375C334.75 17.7557 335.869 18.875 337.25 18.875H349.75C351.131 18.875 352.25 17.7557 352.25 16.375V9.22425L344.81 13.8026C344.007 14.297 342.993 14.297 342.19 13.8026L334.75 9.22425Z" fill="#CAFF33"/>
<path d="M352.25 7.75652V7.625C352.25 6.24429 351.131 5.125 349.75 5.125H337.25C335.869 5.125 334.75 6.24429 334.75 7.625V7.75652L342.845 12.738C343.247 12.9852 343.753 12.9852 344.155 12.738L352.25 7.75652Z" fill="#CAFF33"/>
<path d="M360.652 18V6.16H362.3V11.328L362.012 11.52C362.119 11.1467 362.327 10.8053 362.636 10.496C362.945 10.176 363.313 9.92 363.74 9.728C364.167 9.52533 364.604 9.424 365.052 9.424C365.692 9.424 366.225 9.552 366.652 9.808C367.079 10.0533 367.399 10.432 367.612 10.944C367.825 11.456 367.932 12.1013 367.932 12.88V18H366.284V12.992C366.284 12.512 366.22 12.1173 366.092 11.808C365.964 11.488 365.767 11.2587 365.5 11.12C365.233 10.9707 364.903 10.9067 364.508 10.928C364.188 10.928 363.895 10.9813 363.628 11.088C363.361 11.184 363.127 11.3227 362.924 11.504C362.732 11.6853 362.577 11.8987 362.46 12.144C362.353 12.3787 362.3 12.6347 362.3 12.912V18H361.484C361.345 18 361.207 18 361.068 18C360.929 18 360.791 18 360.652 18ZM374.088 18.16C373.224 18.16 372.456 17.9787 371.784 17.616C371.122 17.2427 370.6 16.736 370.216 16.096C369.842 15.456 369.656 14.72 369.656 13.888C369.656 13.2267 369.762 12.624 369.976 12.08C370.189 11.536 370.482 11.0667 370.856 10.672C371.24 10.2667 371.693 9.95733 372.216 9.744C372.749 9.52 373.325 9.408 373.944 9.408C374.488 9.408 374.994 9.51467 375.464 9.728C375.933 9.93067 376.338 10.2133 376.68 10.576C377.032 10.9387 377.298 11.3707 377.48 11.872C377.672 12.3627 377.762 12.9013 377.752 13.488L377.736 14.192H370.872L370.504 12.88H376.312L376.072 13.152V12.768C376.04 12.416 375.922 12.1013 375.72 11.824C375.517 11.5467 375.261 11.328 374.952 11.168C374.642 11.008 374.306 10.928 373.944 10.928C373.368 10.928 372.882 11.04 372.488 11.264C372.093 11.4773 371.794 11.7973 371.592 12.224C371.389 12.64 371.288 13.1573 371.288 13.776C371.288 14.3627 371.41 14.8747 371.656 15.312C371.901 15.7387 372.248 16.0693 372.696 16.304C373.144 16.5387 373.661 16.656 374.248 16.656C374.664 16.656 375.048 16.5867 375.4 16.448C375.762 16.3093 376.152 16.0587 376.568 15.696L377.4 16.864C377.144 17.12 376.829 17.344 376.456 17.536C376.093 17.728 375.704 17.8827 375.288 18C374.882 18.1067 374.482 18.16 374.088 18.16ZM379.575 18V6.16H381.223V18H379.575ZM383.59 18V6.16H385.238V18H383.59ZM391.194 18.16C390.372 18.16 389.636 17.9733 388.986 17.6C388.346 17.216 387.839 16.6987 387.466 16.048C387.092 15.3867 386.906 14.6347 386.906 13.792C386.906 12.9493 387.092 12.2027 387.466 11.552C387.839 10.8907 388.346 10.3733 388.986 10C389.636 9.616 390.372 9.424 391.194 9.424C392.004 9.424 392.73 9.616 393.37 10C394.02 10.3733 394.532 10.8907 394.906 11.552C395.279 12.2027 395.466 12.9493 395.466 13.792C395.466 14.6347 395.279 15.3867 394.906 16.048C394.532 16.6987 394.02 17.216 393.37 17.6C392.73 17.9733 392.004 18.16 391.194 18.16ZM391.194 16.656C391.695 16.656 392.143 16.5333 392.538 16.288C392.932 16.032 393.242 15.6907 393.466 15.264C393.69 14.8267 393.796 14.336 393.786 13.792C393.796 13.2373 393.69 12.7467 393.466 12.32C393.242 11.8827 392.932 11.5413 392.538 11.296C392.143 11.0507 391.695 10.928 391.194 10.928C390.692 10.928 390.239 11.056 389.834 11.312C389.439 11.5573 389.13 11.8987 388.906 12.336C388.682 12.7627 388.575 13.248 388.586 13.792C388.575 14.336 388.682 14.8267 388.906 15.264C389.13 15.6907 389.439 16.032 389.834 16.288C390.239 16.5333 390.692 16.656 391.194 16.656ZM402.733 20.592C401.805 20.592 400.968 20.448 400.221 20.16C399.485 19.8827 398.856 19.4827 398.333 18.96C397.821 18.448 397.427 17.8293 397.149 17.104C396.883 16.3787 396.749 15.5787 396.749 14.704C396.749 13.456 396.968 12.336 397.405 11.344C397.853 10.3413 398.467 9.49333 399.245 8.8C400.035 8.096 400.947 7.56267 401.981 7.2C403.027 6.82667 404.141 6.64 405.325 6.64C406.179 6.64 406.947 6.76267 407.629 7.008C408.312 7.24267 408.899 7.584 409.389 8.032C409.88 8.48 410.253 9.01333 410.509 9.632C410.776 10.24 410.909 10.9173 410.909 11.664C410.909 12.3893 410.803 13.0827 410.589 13.744C410.387 14.3947 410.099 14.976 409.725 15.488C409.352 15.9893 408.915 16.3893 408.413 16.688C407.923 16.976 407.389 17.12 406.813 17.12C406.44 17.12 406.109 17.056 405.821 16.928C405.544 16.7893 405.325 16.6027 405.165 16.368C405.005 16.1333 404.925 15.8507 404.925 15.52C404.925 15.36 404.941 15.1893 404.973 15.008C405.016 14.8267 405.048 14.64 405.069 14.448L405.293 14.768C405.133 15.2693 404.915 15.696 404.637 16.048C404.371 16.4 404.056 16.6667 403.693 16.848C403.331 17.0293 402.936 17.12 402.509 17.12C402.051 17.12 401.64 16.9973 401.277 16.752C400.925 16.5067 400.648 16.1653 400.445 15.728C400.243 15.2907 400.141 14.784 400.141 14.208C400.141 13.7067 400.232 13.2 400.413 12.688C400.595 12.176 400.856 11.7067 401.197 11.28C401.539 10.8533 401.944 10.5067 402.413 10.24C402.883 9.97333 403.4 9.84 403.965 9.84C404.296 9.84 404.589 9.92 404.845 10.08C405.112 10.24 405.325 10.464 405.485 10.752C405.656 11.04 405.757 11.376 405.789 11.76L405.405 12.704L405.821 9.984H407.437L406.621 14.912C406.589 15.1147 406.6 15.2853 406.653 15.424C406.717 15.552 406.808 15.648 406.925 15.712C407.043 15.776 407.171 15.808 407.309 15.808C407.629 15.808 407.928 15.7013 408.205 15.488C408.483 15.2747 408.723 14.9813 408.925 14.608C409.128 14.224 409.288 13.7867 409.405 13.296C409.523 12.8053 409.581 12.288 409.581 11.744C409.581 10.944 409.411 10.2613 409.069 9.696C408.728 9.12 408.232 8.68267 407.581 8.384C406.941 8.07467 406.168 7.92 405.261 7.92C404.173 7.92 403.187 8.07467 402.301 8.384C401.416 8.68267 400.659 9.12533 400.029 9.712C399.411 10.288 398.931 10.992 398.589 11.824C398.259 12.656 398.093 13.6 398.093 14.656C398.093 15.392 398.195 16.048 398.397 16.624C398.611 17.1893 398.915 17.6747 399.309 18.08C399.704 18.4853 400.195 18.7893 400.781 18.992C401.368 19.2053 402.035 19.312 402.781 19.312C403.283 19.312 403.715 19.2747 404.077 19.2C404.44 19.136 404.787 19.0293 405.117 18.88C405.448 18.7413 405.816 18.5653 406.221 18.352L406.813 19.424C406.184 19.744 405.645 19.984 405.197 20.144C404.749 20.3147 404.333 20.432 403.949 20.496C403.565 20.56 403.16 20.592 402.733 20.592ZM402.877 15.76C403.24 15.76 403.587 15.648 403.917 15.424C404.259 15.1893 404.547 14.896 404.781 14.544C405.027 14.1813 405.176 13.808 405.229 13.424C405.261 13.232 405.288 13.0667 405.309 12.928C405.331 12.7893 405.341 12.656 405.341 12.528C405.341 12.2507 405.288 12.016 405.181 11.824C405.075 11.6213 404.92 11.4667 404.717 11.36C404.525 11.2533 404.296 11.2 404.029 11.2C403.613 11.2 403.235 11.3547 402.893 11.664C402.552 11.9627 402.28 12.352 402.077 12.832C401.875 13.3013 401.773 13.7867 401.773 14.288C401.773 14.7467 401.869 15.1093 402.061 15.376C402.264 15.632 402.536 15.76 402.877 15.76ZM415.499 18.16C414.795 18.16 414.16 18.0373 413.595 17.792C413.03 17.5467 412.56 17.184 412.187 16.704L413.307 15.744C413.627 16.1173 413.974 16.3893 414.347 16.56C414.731 16.72 415.163 16.8 415.643 16.8C415.835 16.8 416.011 16.7787 416.171 16.736C416.342 16.6827 416.486 16.608 416.603 16.512C416.731 16.416 416.827 16.304 416.891 16.176C416.955 16.0373 416.987 15.888 416.987 15.728C416.987 15.4507 416.886 15.2267 416.683 15.056C416.576 14.9813 416.406 14.9013 416.171 14.816C415.947 14.72 415.654 14.624 415.291 14.528C414.672 14.368 414.166 14.1867 413.771 13.984C413.376 13.7813 413.072 13.552 412.859 13.296C412.699 13.0933 412.582 12.8747 412.507 12.64C412.432 12.3947 412.395 12.128 412.395 11.84C412.395 11.488 412.47 11.168 412.619 10.88C412.779 10.5813 412.992 10.3253 413.259 10.112C413.536 9.888 413.856 9.71733 414.219 9.6C414.592 9.48267 414.987 9.424 415.403 9.424C415.798 9.424 416.187 9.47733 416.571 9.584C416.966 9.69067 417.328 9.84533 417.659 10.048C417.99 10.2507 418.267 10.4907 418.491 10.768L417.547 11.808C417.344 11.6053 417.12 11.4293 416.875 11.28C416.64 11.12 416.4 10.9973 416.155 10.912C415.91 10.8267 415.686 10.784 415.483 10.784C415.259 10.784 415.056 10.8053 414.875 10.848C414.694 10.8907 414.539 10.9547 414.411 11.04C414.294 11.1253 414.203 11.232 414.139 11.36C414.075 11.488 414.043 11.632 414.043 11.792C414.054 11.9307 414.086 12.064 414.139 12.192C414.203 12.3093 414.288 12.4107 414.395 12.496C414.512 12.5813 414.688 12.672 414.923 12.768C415.158 12.864 415.456 12.9547 415.819 13.04C416.352 13.1787 416.79 13.3333 417.131 13.504C417.483 13.664 417.76 13.8507 417.963 14.064C418.176 14.2667 418.326 14.5013 418.411 14.768C418.496 15.0347 418.539 15.3333 418.539 15.664C418.539 16.144 418.4 16.576 418.123 16.96C417.856 17.3333 417.494 17.6267 417.035 17.84C416.576 18.0533 416.064 18.16 415.499 18.16ZM421.859 15.376L421.779 13.584L425.795 9.6H428.019L421.859 15.376ZM420.355 18V6.16H422.003V18H420.355ZM426.019 18L422.851 14.304L424.019 13.232L428.131 18H426.019ZM429.721 18V9.6H431.369V18H429.721ZM430.521 7.744C430.169 7.744 429.897 7.65333 429.705 7.472C429.513 7.29067 429.417 7.03467 429.417 6.704C429.417 6.39467 429.513 6.144 429.705 5.952C429.908 5.76 430.18 5.664 430.521 5.664C430.873 5.664 431.145 5.75467 431.337 5.936C431.529 6.11733 431.625 6.37333 431.625 6.704C431.625 7.01333 431.524 7.264 431.321 7.456C431.129 7.648 430.862 7.744 430.521 7.744ZM433.934 18V6.16H435.582V18H433.934ZM437.95 18V6.16H439.598V18H437.95ZM446.349 18.16C445.987 18.16 445.624 18.1013 445.261 17.984C444.909 17.8667 444.584 17.712 444.285 17.52C443.997 17.3173 443.752 17.0987 443.549 16.864C443.357 16.6187 443.229 16.3733 443.165 16.128L443.581 15.904V17.952H441.933V6.16H443.581V11.52L443.325 11.376C443.379 11.1307 443.496 10.896 443.677 10.672C443.859 10.4373 444.088 10.2293 444.365 10.048C444.653 9.856 444.963 9.70667 445.293 9.6C445.624 9.48267 445.96 9.424 446.301 9.424C447.059 9.424 447.731 9.61067 448.317 9.984C448.904 10.3573 449.368 10.8747 449.709 11.536C450.051 12.1867 450.221 12.9333 450.221 13.776C450.221 14.6187 450.051 15.3707 449.709 16.032C449.379 16.6933 448.92 17.216 448.333 17.6C447.747 17.9733 447.085 18.16 446.349 18.16ZM446.077 16.656C446.568 16.656 447.005 16.5333 447.389 16.288C447.773 16.032 448.077 15.6907 448.301 15.264C448.525 14.8267 448.637 14.3307 448.637 13.776C448.637 13.232 448.525 12.7467 448.301 12.32C448.088 11.8827 447.789 11.5413 447.405 11.296C447.021 11.0507 446.579 10.928 446.077 10.928C445.576 10.928 445.133 11.0507 444.749 11.296C444.365 11.5413 444.061 11.8827 443.837 12.32C443.613 12.7467 443.501 13.232 443.501 13.776C443.501 14.3307 443.613 14.8267 443.837 15.264C444.061 15.6907 444.365 16.032 444.749 16.288C445.133 16.5333 445.576 16.656 446.077 16.656ZM452.283 18V9.6H453.931V18H452.283ZM453.083 7.744C452.731 7.744 452.459 7.65333 452.267 7.472C452.075 7.29067 451.979 7.03467 451.979 6.704C451.979 6.39467 452.075 6.144 452.267 5.952C452.47 5.76 452.742 5.664 453.083 5.664C453.435 5.664 453.707 5.75467 453.899 5.936C454.091 6.11733 454.187 6.37333 454.187 6.704C454.187 7.01333 454.086 7.264 453.883 7.456C453.691 7.648 453.425 7.744 453.083 7.744ZM456.465 18V9.6H458.129V12.24L457.969 11.6C458.086 11.1947 458.283 10.8267 458.561 10.496C458.849 10.1653 459.174 9.904 459.536 9.712C459.91 9.52 460.294 9.424 460.689 9.424C460.87 9.424 461.041 9.44 461.201 9.472C461.371 9.504 461.505 9.54133 461.601 9.584L461.169 11.376C461.041 11.3227 460.897 11.28 460.737 11.248C460.587 11.2053 460.438 11.184 460.289 11.184C460.001 11.184 459.723 11.2427 459.457 11.36C459.201 11.4667 458.971 11.6213 458.769 11.824C458.577 12.016 458.422 12.2453 458.305 12.512C458.187 12.768 458.129 13.0507 458.129 13.36V18H456.465ZM466.062 18.16C465.294 18.16 464.606 17.9733 463.998 17.6C463.401 17.216 462.926 16.6987 462.574 16.048C462.222 15.3867 462.046 14.6347 462.046 13.792C462.046 12.9493 462.217 12.2027 462.558 11.552C462.91 10.8907 463.385 10.3733 463.982 10C464.58 9.616 465.257 9.424 466.014 9.424C466.43 9.424 466.83 9.49333 467.214 9.632C467.609 9.76 467.961 9.94133 468.27 10.176C468.58 10.4 468.82 10.6507 468.99 10.928C469.172 11.1947 469.262 11.4667 469.262 11.744L468.782 11.776V6.16H470.43V18H468.782V16H469.102C469.102 16.256 469.017 16.512 468.846 16.768C468.676 17.0133 468.446 17.2427 468.158 17.456C467.881 17.6693 467.556 17.84 467.182 17.968C466.82 18.096 466.446 18.16 466.062 18.16ZM466.286 16.736C466.788 16.736 467.23 16.608 467.614 16.352C467.998 16.096 468.297 15.7493 468.51 15.312C468.734 14.864 468.846 14.3573 468.846 13.792C468.846 13.2267 468.734 12.7253 468.51 12.288C468.297 11.84 467.998 11.488 467.614 11.232C467.23 10.976 466.788 10.848 466.286 10.848C465.785 10.848 465.342 10.976 464.958 11.232C464.574 11.488 464.27 11.84 464.046 12.288C463.833 12.7253 463.726 13.2267 463.726 13.792C463.726 14.3573 463.833 14.864 464.046 15.312C464.27 15.7493 464.574 16.096 464.958 16.352C465.342 16.608 465.785 16.736 466.286 16.736ZM476.459 21.68C475.862 21.68 475.264 21.584 474.667 21.392C474.08 21.2107 473.606 20.9707 473.243 20.672L473.851 19.392C474.064 19.552 474.315 19.6907 474.603 19.808C474.891 19.936 475.195 20.032 475.515 20.096C475.835 20.1707 476.15 20.208 476.459 20.208C477.046 20.208 477.536 20.112 477.931 19.92C478.326 19.728 478.624 19.4453 478.827 19.072C479.03 18.6987 479.131 18.2347 479.131 17.68V16.064L479.307 16.176C479.254 16.5067 479.078 16.8267 478.779 17.136C478.491 17.4347 478.128 17.68 477.691 17.872C477.254 18.064 476.806 18.16 476.347 18.16C475.547 18.16 474.832 17.9733 474.203 17.6C473.584 17.216 473.094 16.6987 472.731 16.048C472.368 15.3867 472.187 14.6347 472.187 13.792C472.187 12.9493 472.363 12.2027 472.715 11.552C473.078 10.8907 473.568 10.3733 474.187 10C474.816 9.616 475.52 9.424 476.299 9.424C476.619 9.424 476.928 9.46667 477.227 9.552C477.526 9.62667 477.803 9.73867 478.059 9.888C478.315 10.0267 478.544 10.1813 478.747 10.352C478.95 10.5227 479.115 10.704 479.243 10.896C479.371 11.088 479.451 11.2693 479.483 11.44L479.131 11.568V9.6H480.779V17.488C480.779 18.16 480.678 18.752 480.475 19.264C480.283 19.7867 480 20.224 479.627 20.576C479.254 20.9387 478.8 21.2107 478.267 21.392C477.734 21.584 477.131 21.68 476.459 21.68ZM476.523 16.64C477.046 16.64 477.51 16.5173 477.915 16.272C478.32 16.0267 478.635 15.6907 478.859 15.264C479.083 14.8373 479.195 14.3467 479.195 13.792C479.195 13.2373 479.078 12.7467 478.843 12.32C478.619 11.8827 478.304 11.5413 477.899 11.296C477.504 11.0507 477.046 10.928 476.523 10.928C476.011 10.928 475.552 11.056 475.147 11.312C474.752 11.5573 474.438 11.8987 474.203 12.336C473.979 12.7627 473.867 13.248 473.867 13.792C473.867 14.336 473.979 14.8267 474.203 15.264C474.438 15.6907 474.752 16.0267 475.147 16.272C475.552 16.5173 476.011 16.64 476.523 16.64ZM487.01 18.16C486.146 18.16 485.378 17.9787 484.706 17.616C484.044 17.2427 483.522 16.736 483.138 16.096C482.764 15.456 482.578 14.72 482.578 13.888C482.578 13.2267 482.684 12.624 482.898 12.08C483.111 11.536 483.404 11.0667 483.778 10.672C484.162 10.2667 484.615 9.95733 485.138 9.744C485.671 9.52 486.247 9.408 486.866 9.408C487.41 9.408 487.916 9.51467 488.386 9.728C488.855 9.93067 489.26 10.2133 489.602 10.576C489.954 10.9387 490.22 11.3707 490.402 11.872C490.594 12.3627 490.684 12.9013 490.674 13.488L490.658 14.192H483.794L483.426 12.88H489.234L488.994 13.152V12.768C488.962 12.416 488.844 12.1013 488.642 11.824C488.439 11.5467 488.183 11.328 487.874 11.168C487.564 11.008 487.228 10.928 486.866 10.928C486.29 10.928 485.804 11.04 485.41 11.264C485.015 11.4773 484.716 11.7973 484.514 12.224C484.311 12.64 484.21 13.1573 484.21 13.776C484.21 14.3627 484.332 14.8747 484.578 15.312C484.823 15.7387 485.17 16.0693 485.618 16.304C486.066 16.5387 486.583 16.656 487.17 16.656C487.586 16.656 487.97 16.5867 488.322 16.448C488.684 16.3093 489.074 16.0587 489.49 15.696L490.322 16.864C490.066 17.12 489.751 17.344 489.378 17.536C489.015 17.728 488.626 17.8827 488.21 18C487.804 18.1067 487.404 18.16 487.01 18.16ZM493.137 18.176C492.785 18.176 492.513 18.0747 492.321 17.872C492.129 17.6587 492.033 17.36 492.033 16.976C492.033 16.624 492.134 16.336 492.337 16.112C492.539 15.888 492.806 15.776 493.137 15.776C493.489 15.776 493.761 15.8827 493.953 16.096C494.145 16.2987 494.241 16.592 494.241 16.976C494.241 17.328 494.139 17.616 493.937 17.84C493.734 18.064 493.467 18.176 493.137 18.176ZM499.673 18.16C498.894 18.16 498.196 17.968 497.577 17.584C496.969 17.2 496.484 16.6773 496.121 16.016C495.769 15.3547 495.593 14.6133 495.593 13.792C495.593 12.9707 495.769 12.2293 496.121 11.568C496.484 10.9067 496.969 10.384 497.577 10C498.196 9.616 498.894 9.424 499.673 9.424C500.42 9.424 501.097 9.57867 501.705 9.888C502.324 10.1867 502.793 10.5973 503.113 11.12L502.201 12.24C502.03 11.9947 501.812 11.7707 501.545 11.568C501.278 11.3653 500.996 11.2053 500.697 11.088C500.398 10.9707 500.11 10.912 499.833 10.912C499.321 10.912 498.862 11.04 498.457 11.296C498.062 11.5413 497.748 11.8827 497.513 12.32C497.278 12.7573 497.161 13.248 497.161 13.792C497.161 14.336 497.284 14.8267 497.529 15.264C497.774 15.6907 498.1 16.032 498.505 16.288C498.91 16.544 499.358 16.672 499.849 16.672C500.137 16.672 500.414 16.624 500.681 16.528C500.958 16.432 501.225 16.288 501.481 16.096C501.737 15.904 501.977 15.6693 502.201 15.392L503.113 16.512C502.772 16.992 502.281 17.3867 501.641 17.696C501.012 18.0053 500.356 18.16 499.673 18.16ZM508.444 18.16C507.622 18.16 506.886 17.9733 506.236 17.6C505.596 17.216 505.089 16.6987 504.716 16.048C504.342 15.3867 504.156 14.6347 504.156 13.792C504.156 12.9493 504.342 12.2027 504.716 11.552C505.089 10.8907 505.596 10.3733 506.236 10C506.886 9.616 507.622 9.424 508.444 9.424C509.254 9.424 509.98 9.616 510.62 10C511.27 10.3733 511.782 10.8907 512.156 11.552C512.529 12.2027 512.716 12.9493 512.716 13.792C512.716 14.6347 512.529 15.3867 512.156 16.048C511.782 16.6987 511.27 17.216 510.62 17.6C509.98 17.9733 509.254 18.16 508.444 18.16ZM508.444 16.656C508.945 16.656 509.393 16.5333 509.788 16.288C510.182 16.032 510.492 15.6907 510.716 15.264C510.94 14.8267 511.046 14.336 511.036 13.792C511.046 13.2373 510.94 12.7467 510.716 12.32C510.492 11.8827 510.182 11.5413 509.788 11.296C509.393 11.0507 508.945 10.928 508.444 10.928C507.942 10.928 507.489 11.056 507.084 11.312C506.689 11.5573 506.38 11.8987 506.156 12.336C505.932 12.7627 505.825 13.248 505.836 13.792C505.825 14.336 505.932 14.8267 506.156 15.264C506.38 15.6907 506.689 16.032 507.084 16.288C507.489 16.5333 507.942 16.656 508.444 16.656ZM514.479 18V9.6H516.143V11.392L515.839 11.584C515.925 11.3067 516.058 11.04 516.239 10.784C516.431 10.528 516.661 10.304 516.927 10.112C517.205 9.90933 517.498 9.74933 517.807 9.632C518.127 9.51467 518.453 9.456 518.783 9.456C519.263 9.456 519.685 9.536 520.047 9.696C520.41 9.856 520.709 10.096 520.943 10.416C521.178 10.736 521.349 11.136 521.455 11.616L521.199 11.552L521.311 11.28C521.429 11.0347 521.589 10.8053 521.791 10.592C522.005 10.368 522.245 10.1707 522.511 10C522.778 9.82933 523.061 9.696 523.359 9.6C523.658 9.504 523.951 9.456 524.239 9.456C524.869 9.456 525.386 9.584 525.791 9.84C526.207 10.096 526.517 10.4853 526.719 11.008C526.933 11.5307 527.039 12.1813 527.039 12.96V18H525.375V13.056C525.375 12.576 525.311 12.1867 525.183 11.888C525.066 11.5787 524.885 11.3493 524.639 11.2C524.394 11.0507 524.079 10.976 523.695 10.976C523.397 10.976 523.114 11.0293 522.847 11.136C522.591 11.232 522.367 11.3707 522.175 11.552C521.983 11.7333 521.834 11.9467 521.727 12.192C521.621 12.4267 521.567 12.688 521.567 12.976V18H519.903V13.024C519.903 12.5867 519.839 12.2187 519.711 11.92C519.583 11.6107 519.397 11.376 519.151 11.216C518.906 11.056 518.607 10.976 518.255 10.976C517.957 10.976 517.679 11.0293 517.423 11.136C517.167 11.232 516.943 11.3707 516.751 11.552C516.559 11.7227 516.41 11.9307 516.303 12.176C516.197 12.4107 516.143 12.6667 516.143 12.944V18H514.479Z" fill="#E4E4E7"/>
<path fill-rule="evenodd" clip-rule="evenodd" d="M549.75 5.75C549.75 4.36929 550.869 3.25 552.25 3.25H553.393C554.11 3.25 554.735 3.73796 554.909 4.43354L555.83 8.11952C555.983 8.72942 555.755 9.37129 555.252 9.74849L554.174 10.557C554.062 10.641 554.038 10.7639 554.069 10.8497C555.015 13.4329 557.067 15.4846 559.65 16.4308C559.736 16.4623 559.859 16.4379 559.943 16.326L560.752 15.248C561.129 14.7451 561.771 14.5172 562.38 14.6696L566.066 15.5911C566.762 15.765 567.25 16.39 567.25 17.107V18.25C567.25 19.6307 566.131 20.75 564.75 20.75H562.875C555.626 20.75 549.75 14.8737 549.75 7.625V5.75Z" fill="#CAFF33"/>
<path d="M575.22 14.24V12.8H583.236V14.24H575.22ZM578.372 17.328V9.6H580.052V17.328H578.372ZM587.601 18L587.537 17.84L590.865 10.768L590.913 12.096C590.721 12.416 590.508 12.6987 590.273 12.944C590.049 13.1893 589.798 13.4027 589.521 13.584C589.254 13.7547 588.977 13.888 588.689 13.984C588.401 14.0693 588.108 14.112 587.809 14.112C587.201 14.112 586.641 13.952 586.129 13.632C585.617 13.312 585.206 12.8853 584.897 12.352C584.588 11.8187 584.433 11.2373 584.433 10.608C584.433 9.85067 584.604 9.17333 584.945 8.576C585.286 7.968 585.75 7.488 586.337 7.136C586.934 6.784 587.601 6.608 588.337 6.608C588.87 6.608 589.372 6.704 589.841 6.896C590.31 7.088 590.721 7.36 591.073 7.712C591.425 8.05333 591.702 8.45333 591.905 8.912C592.108 9.36 592.209 9.84 592.209 10.352C592.209 10.6187 592.182 10.9067 592.129 11.216C592.076 11.5147 591.985 11.856 591.857 12.24C591.74 12.6133 591.58 13.0453 591.377 13.536C591.174 14.016 590.924 14.576 590.625 15.216L589.297 18H587.601ZM588.177 12.512C588.593 12.512 588.966 12.4213 589.297 12.24C589.628 12.048 589.884 11.7973 590.065 11.488C590.257 11.168 590.353 10.8107 590.353 10.416C590.353 10 590.262 9.62667 590.081 9.296C589.9 8.95467 589.644 8.688 589.313 8.496C588.993 8.304 588.625 8.208 588.209 8.208C587.825 8.208 587.484 8.304 587.185 8.496C586.886 8.67733 586.646 8.93333 586.465 9.264C586.294 9.584 586.209 9.96267 586.209 10.4C586.209 10.7733 586.294 11.12 586.465 11.44C586.646 11.76 586.886 12.0213 587.185 12.224C587.484 12.416 587.814 12.512 588.177 12.512ZM596.238 17.216V8.128L596.83 8.576L594.622 9.744L594.158 8.24L597.15 6.64H597.982V17.216H596.238ZM594.462 18V16.336H599.806V18H594.462ZM608.898 18L608.834 17.84L612.162 10.768L612.21 12.096C612.018 12.416 611.805 12.6987 611.57 12.944C611.346 13.1893 611.095 13.4027 610.818 13.584C610.551 13.7547 610.274 13.888 609.986 13.984C609.698 14.0693 609.405 14.112 609.106 14.112C608.498 14.112 607.938 13.952 607.426 13.632C606.914 13.312 606.503 12.8853 606.194 12.352C605.885 11.8187 605.73 11.2373 605.73 10.608C605.73 9.85067 605.901 9.17333 606.242 8.576C606.583 7.968 607.047 7.488 607.634 7.136C608.231 6.784 608.898 6.608 609.634 6.608C610.167 6.608 610.669 6.704 611.138 6.896C611.607 7.088 612.018 7.36 612.37 7.712C612.722 8.05333 612.999 8.45333 613.202 8.912C613.405 9.36 613.506 9.84 613.506 10.352C613.506 10.6187 613.479 10.9067 613.426 11.216C613.373 11.5147 613.282 11.856 613.154 12.24C613.037 12.6133 612.877 13.0453 612.674 13.536C612.471 14.016 612.221 14.576 611.922 15.216L610.594 18H608.898ZM609.474 12.512C609.89 12.512 610.263 12.4213 610.594 12.24C610.925 12.048 611.181 11.7973 611.362 11.488C611.554 11.168 611.65 10.8107 611.65 10.416C611.65 10 611.559 9.62667 611.378 9.296C611.197 8.95467 610.941 8.688 610.61 8.496C610.29 8.304 609.922 8.208 609.506 8.208C609.122 8.208 608.781 8.304 608.482 8.496C608.183 8.67733 607.943 8.93333 607.762 9.264C607.591 9.584 607.506 9.96267 607.506 10.4C607.506 10.7733 607.591 11.12 607.762 11.44C607.943 11.76 608.183 12.0213 608.482 12.224C608.781 12.416 609.111 12.512 609.474 12.512ZM617.535 17.216V8.128L618.127 8.576L615.919 9.744L615.455 8.24L618.447 6.64H619.279V17.216H617.535ZM615.759 18V16.336H621.103V18H615.759ZM626.687 18.048C625.993 18.048 625.359 17.904 624.783 17.616C624.217 17.3173 623.764 16.9227 623.423 16.432C623.081 15.9413 622.911 15.3973 622.911 14.8C622.911 14.4693 622.953 14.16 623.039 13.872C623.135 13.5733 623.273 13.3013 623.455 13.056C623.647 12.8107 623.876 12.5867 624.143 12.384C624.409 12.1813 624.719 12 625.071 11.84L624.975 12.176C624.697 12.0693 624.447 11.9413 624.223 11.792C624.009 11.632 623.823 11.4507 623.663 11.248C623.503 11.0453 623.38 10.8267 623.295 10.592C623.22 10.3573 623.183 10.112 623.183 9.856C623.183 9.29067 623.337 8.77867 623.647 8.32C623.967 7.86133 624.388 7.49333 624.911 7.216C625.444 6.93867 626.036 6.8 626.687 6.8C627.337 6.8 627.924 6.93867 628.447 7.216C628.98 7.49333 629.401 7.86133 629.711 8.32C630.031 8.77867 630.191 9.29067 630.191 9.856C630.191 10.112 630.148 10.3573 630.062 10.592C629.988 10.8267 629.876 11.04 629.727 11.232C629.577 11.424 629.385 11.6 629.151 11.76C628.927 11.92 628.671 12.0587 628.383 12.176L628.335 11.904C628.655 12.032 628.943 12.1973 629.199 12.4C629.465 12.6027 629.695 12.832 629.887 13.088C630.079 13.344 630.223 13.616 630.319 13.904C630.425 14.192 630.479 14.4907 630.479 14.8C630.479 15.408 630.308 15.9573 629.967 16.448C629.625 16.9387 629.167 17.328 628.591 17.616C628.025 17.904 627.391 18.048 626.687 18.048ZM626.687 16.448C627.081 16.448 627.433 16.3733 627.743 16.224C628.063 16.0747 628.313 15.872 628.495 15.616C628.676 15.36 628.767 15.0667 628.767 14.736C628.767 14.384 628.676 14.0747 628.495 13.808C628.313 13.5307 628.063 13.312 627.743 13.152C627.433 12.992 627.081 12.912 626.687 12.912C626.292 12.912 625.94 12.992 625.631 13.152C625.321 13.312 625.076 13.5307 624.895 13.808C624.713 14.0747 624.623 14.384 624.623 14.736C624.623 15.056 624.713 15.344 624.895 15.6C625.076 15.856 625.321 16.064 625.631 16.224C625.94 16.3733 626.292 16.448 626.687 16.448ZM626.687 11.376C627.028 11.376 627.332 11.312 627.599 11.184C627.876 11.056 628.089 10.8853 628.239 10.672C628.399 10.448 628.479 10.192 628.479 9.904C628.479 9.616 628.399 9.36 628.239 9.136C628.089 8.912 627.876 8.736 627.599 8.608C627.332 8.46933 627.028 8.4 626.687 8.4C626.345 8.4 626.036 8.46933 625.759 8.608C625.492 8.736 625.279 8.912 625.119 9.136C624.969 9.36 624.895 9.616 624.895 9.904C624.895 10.192 624.969 10.448 625.119 10.672C625.279 10.8853 625.492 11.056 625.759 11.184C626.036 11.312 626.345 11.376 626.687 11.376ZM634.8 17.216V8.128L635.392 8.576L633.184 9.744L632.72 8.24L635.712 6.64H636.544V17.216H634.8ZM633.024 18V16.336H638.368V18H633.024ZM643.344 18.16C642.555 18.16 641.867 17.9787 641.28 17.616C640.704 17.2533 640.16 16.6453 639.648 15.792L640.992 14.944C641.259 15.3387 641.52 15.664 641.776 15.92C642.043 16.1653 642.315 16.3467 642.592 16.464C642.869 16.5813 643.163 16.64 643.472 16.64C643.845 16.64 644.192 16.5493 644.512 16.368C644.832 16.176 645.088 15.9147 645.28 15.584C645.472 15.2533 645.568 14.88 645.568 14.464C645.568 14.048 645.493 13.696 645.344 13.408C645.195 13.1093 644.976 12.8853 644.688 12.736C644.4 12.576 644.059 12.496 643.664 12.496C643.483 12.496 643.291 12.5173 643.088 12.56C642.896 12.592 642.688 12.6453 642.464 12.72C642.24 12.784 641.995 12.8693 641.728 12.976L641.248 11.712L644.704 7.904L645.04 8.4H640.272V6.8H646.688L647.008 7.44L643.344 11.504L642.944 11.088C643.029 11.0453 643.168 11.008 643.36 10.976C643.563 10.9333 643.728 10.912 643.856 10.912C644.325 10.912 644.763 11.0027 645.168 11.184C645.584 11.3547 645.941 11.6 646.24 11.92C646.549 12.2293 646.789 12.5973 646.96 13.024C647.141 13.44 647.232 13.888 647.232 14.368C647.232 15.0933 647.056 15.744 646.704 16.32C646.363 16.8853 645.899 17.3333 645.312 17.664C644.725 17.9947 644.069 18.16 643.344 18.16ZM653.769 18L653.241 16.688L656.665 12.832C656.847 12.64 657.033 12.4213 657.225 12.176C657.428 11.92 657.62 11.6587 657.801 11.392C657.983 11.1253 658.127 10.864 658.233 10.608C658.351 10.3413 658.409 10.0907 658.409 9.856C658.409 9.51467 658.34 9.22667 658.201 8.992C658.073 8.74667 657.881 8.56 657.625 8.432C657.38 8.304 657.081 8.24 656.729 8.24C656.42 8.24 656.116 8.33067 655.817 8.512C655.519 8.69333 655.247 8.94933 655.001 9.28C654.756 9.61067 654.564 9.99467 654.425 10.432L653.097 9.6C653.279 8.98133 653.551 8.45333 653.913 8.016C654.287 7.568 654.729 7.22667 655.241 6.992C655.764 6.75733 656.329 6.64 656.937 6.64C657.567 6.64 658.127 6.77333 658.617 7.04C659.108 7.296 659.492 7.65867 659.769 8.128C660.047 8.58667 660.185 9.12 660.185 9.728C660.185 9.97333 660.159 10.224 660.105 10.48C660.052 10.736 659.967 11.0027 659.849 11.28C659.732 11.5467 659.583 11.8293 659.401 12.128C659.22 12.416 659.001 12.72 658.745 13.04C658.5 13.36 658.217 13.696 657.897 14.048L655.353 16.816L655.033 16.336H660.537V18H653.769ZM665.063 18.16C664.274 18.16 663.586 17.9787 662.999 17.616C662.423 17.2533 661.879 16.6453 661.367 15.792L662.711 14.944C662.978 15.3387 663.239 15.664 663.495 15.92C663.762 16.1653 664.034 16.3467 664.311 16.464C664.588 16.5813 664.882 16.64 665.191 16.64C665.564 16.64 665.911 16.5493 666.231 16.368C666.551 16.176 666.807 15.9147 666.999 15.584C667.191 15.2533 667.287 14.88 667.287 14.464C667.287 14.048 667.212 13.696 667.063 13.408C666.914 13.1093 666.695 12.8853 666.407 12.736C666.119 12.576 665.778 12.496 665.383 12.496C665.202 12.496 665.01 12.5173 664.807 12.56C664.615 12.592 664.407 12.6453 664.183 12.72C663.959 12.784 663.714 12.8693 663.447 12.976L662.967 11.712L666.423 7.904L666.759 8.4H661.991V6.8H668.407L668.727 7.44L665.063 11.504L664.663 11.088C664.748 11.0453 664.887 11.008 665.079 10.976C665.282 10.9333 665.447 10.912 665.575 10.912C666.044 10.912 666.482 11.0027 666.887 11.184C667.303 11.3547 667.66 11.6 667.959 11.92C668.268 12.2293 668.508 12.5973 668.679 13.024C668.86 13.44 668.951 13.888 668.951 14.368C668.951 15.0933 668.775 15.744 668.423 16.32C668.082 16.8853 667.618 17.3333 667.031 17.664C666.444 17.9947 665.788 18.16 665.063 18.16ZM675.488 18L674.96 16.688L678.384 12.832C678.565 12.64 678.752 12.4213 678.944 12.176C679.147 11.92 679.339 11.6587 679.52 11.392C679.701 11.1253 679.845 10.864 679.952 10.608C680.069 10.3413 680.128 10.0907 680.128 9.856C680.128 9.51467 680.059 9.22667 679.92 8.992C679.792 8.74667 679.6 8.56 679.344 8.432C679.099 8.304 678.8 8.24 678.448 8.24C678.139 8.24 677.835 8.33067 677.536 8.512C677.237 8.69333 676.965 8.94933 676.72 9.28C676.475 9.61067 676.283 9.99467 676.144 10.432L674.816 9.6C674.997 8.98133 675.269 8.45333 675.632 8.016C676.005 7.568 676.448 7.22667 676.96 6.992C677.483 6.75733 678.048 6.64 678.656 6.64C679.285 6.64 679.845 6.77333 680.336 7.04C680.827 7.296 681.211 7.65867 681.488 8.128C681.765 8.58667 681.904 9.12 681.904 9.728C681.904 9.97333 681.877 10.224 681.824 10.48C681.771 10.736 681.685 11.0027 681.568 11.28C681.451 11.5467 681.301 11.8293 681.12 12.128C680.939 12.416 680.72 12.72 680.464 13.04C680.219 13.36 679.936 13.696 679.616 14.048L677.072 16.816L676.752 16.336H682.256V18H675.488ZM686.782 18.16C685.992 18.16 685.304 17.9787 684.718 17.616C684.142 17.2533 683.598 16.6453 683.086 15.792L684.43 14.944C684.696 15.3387 684.958 15.664 685.214 15.92C685.48 16.1653 685.752 16.3467 686.03 16.464C686.307 16.5813 686.6 16.64 686.91 16.64C687.283 16.64 687.63 16.5493 687.95 16.368C688.27 16.176 688.526 15.9147 688.718 15.584C688.91 15.2533 689.006 14.88 689.006 14.464C689.006 14.048 688.931 13.696 688.782 13.408C688.632 13.1093 688.414 12.8853 688.126 12.736C687.838 12.576 687.496 12.496 687.102 12.496C686.92 12.496 686.728 12.5173 686.526 12.56C686.334 12.592 686.126 12.6453 685.902 12.72C685.678 12.784 685.432 12.8693 685.166 12.976L684.686 11.712L688.142 7.904L688.478 8.4H683.71V6.8H690.126L690.446 7.44L686.782 11.504L686.382 11.088C686.467 11.0453 686.606 11.008 686.798 10.976C687 10.9333 687.166 10.912 687.294 10.912C687.763 10.912 688.2 11.0027 688.606 11.184C689.022 11.3547 689.379 11.6 689.678 11.92C689.987 12.2293 690.227 12.5973 690.398 13.024C690.579 13.44 690.67 13.888 690.67 14.368C690.67 15.0933 690.494 15.744 690.142 16.32C689.8 16.8853 689.336 17.3333 688.75 17.664C688.163 17.9947 687.507 18.16 686.782 18.16ZM696.082 18.16C695.229 18.16 694.493 17.9253 693.874 17.456C693.266 16.9867 692.797 16.3253 692.466 15.472C692.136 14.608 691.97 13.584 691.97 12.4C691.97 11.216 692.136 10.1973 692.466 9.344C692.797 8.48 693.266 7.81333 693.874 7.344C694.493 6.87467 695.229 6.64 696.082 6.64C696.936 6.64 697.672 6.87467 698.29 7.344C698.909 7.81333 699.384 8.48 699.714 9.344C700.045 10.1973 700.21 11.216 700.21 12.4C700.21 13.584 700.045 14.608 699.714 15.472C699.384 16.3253 698.909 16.9867 698.29 17.456C697.672 17.9253 696.936 18.16 696.082 18.16ZM696.082 16.592C696.861 16.592 697.464 16.2293 697.89 15.504C698.317 14.768 698.53 13.7333 698.53 12.4C698.53 11.0667 698.317 10.0373 697.89 9.312C697.464 8.576 696.861 8.208 696.082 8.208C695.304 8.208 694.701 8.576 694.274 9.312C693.848 10.0373 693.634 11.0667 693.634 12.4C693.634 13.7333 693.848 14.768 694.274 15.504C694.701 16.2293 695.304 16.592 696.082 16.592ZM704.601 18L704.537 17.84L707.865 10.768L707.913 12.096C707.721 12.416 707.508 12.6987 707.273 12.944C707.049 13.1893 706.798 13.4027 706.521 13.584C706.254 13.7547 705.977 13.888 705.689 13.984C705.401 14.0693 705.108 14.112 704.809 14.112C704.201 14.112 703.641 13.952 703.129 13.632C702.617 13.312 702.206 12.8853 701.897 12.352C701.588 11.8187 701.433 11.2373 701.433 10.608C701.433 9.85067 701.604 9.17333 701.945 8.576C702.286 7.968 702.75 7.488 703.337 7.136C703.934 6.784 704.601 6.608 705.337 6.608C705.87 6.608 706.372 6.704 706.841 6.896C707.31 7.088 707.721 7.36 708.073 7.712C708.425 8.05333 708.702 8.45333 708.905 8.912C709.108 9.36 709.209 9.84 709.209 10.352C709.209 10.6187 709.182 10.9067 709.129 11.216C709.076 11.5147 708.985 11.856 708.857 12.24C708.74 12.6133 708.58 13.0453 708.377 13.536C708.174 14.016 707.924 14.576 707.625 15.216L706.297 18H704.601ZM705.177 12.512C705.593 12.512 705.966 12.4213 706.297 12.24C706.628 12.048 706.884 11.7973 707.065 11.488C707.257 11.168 707.353 10.8107 707.353 10.416C707.353 10 707.262 9.62667 707.081 9.296C706.9 8.95467 706.644 8.688 706.313 8.496C705.993 8.304 705.625 8.208 705.209 8.208C704.825 8.208 704.484 8.304 704.185 8.496C703.886 8.67733 703.646 8.93333 703.465 9.264C703.294 9.584 703.209 9.96267 703.209 10.4C703.209 10.7733 703.294 11.12 703.465 11.44C703.646 11.76 703.886 12.0213 704.185 12.224C704.484 12.416 704.814 12.512 705.177 12.512Z" fill="#E4E4E7"/>
<path fill-rule="evenodd" clip-rule="evenodd" d="M740.116 20.6259C740.142 20.6405 740.161 20.6517 740.175 20.6596L740.199 20.6726C740.384 20.7745 740.615 20.7738 740.801 20.6729L740.825 20.6596C740.839 20.6517 740.858 20.6405 740.884 20.6259C740.934 20.5967 741.006 20.5542 741.096 20.4985C741.277 20.3872 741.532 20.223 741.837 20.0076C742.446 19.5776 743.258 18.9395 744.072 18.1061C745.692 16.4474 747.375 13.9551 747.375 10.75C747.375 6.95304 744.297 3.875 740.5 3.875C736.703 3.875 733.625 6.95304 733.625 10.75C733.625 13.9551 735.308 16.4474 736.928 18.1061C737.742 18.9395 738.554 19.5776 739.163 20.0076C739.468 20.223 739.723 20.3872 739.904 20.4985C739.994 20.5542 740.066 20.5967 740.116 20.6259ZM740.5 13.25C741.881 13.25 743 12.1307 743 10.75C743 9.36929 741.881 8.25 740.5 8.25C739.119 8.25 738 9.36929 738 10.75C738 12.1307 739.119 13.25 740.5 13.25Z" fill="#CAFF33"/>
<path d="M761.524 18.16C760.916 18.16 760.351 18.08 759.828 17.92C759.316 17.76 758.847 17.52 758.42 17.2C758.004 16.8693 757.631 16.464 757.3 15.984L758.484 14.624C759.007 15.3707 759.508 15.888 759.988 16.176C760.468 16.464 761.039 16.608 761.7 16.608C762.105 16.608 762.473 16.544 762.804 16.416C763.135 16.288 763.396 16.112 763.588 15.888C763.78 15.664 763.876 15.408 763.876 15.12C763.876 14.928 763.844 14.7467 763.78 14.576C763.716 14.4053 763.615 14.2507 763.476 14.112C763.348 13.9733 763.177 13.8453 762.964 13.728C762.761 13.6107 762.521 13.5093 762.244 13.424C761.967 13.328 761.647 13.248 761.284 13.184C760.708 13.0667 760.207 12.912 759.78 12.72C759.353 12.528 758.996 12.288 758.708 12C758.42 11.712 758.207 11.3867 758.068 11.024C757.929 10.6507 757.86 10.2347 757.86 9.776C757.86 9.328 757.956 8.912 758.148 8.528C758.351 8.144 758.623 7.81333 758.964 7.536C759.316 7.248 759.727 7.02933 760.196 6.88C760.665 6.72 761.172 6.64 761.716 6.64C762.292 6.64 762.82 6.71467 763.3 6.864C763.78 7.01333 764.207 7.23733 764.58 7.536C764.953 7.824 765.263 8.18133 765.508 8.608L764.292 9.808C764.079 9.456 763.839 9.16267 763.572 8.928C763.305 8.68267 763.012 8.50133 762.692 8.384C762.372 8.256 762.031 8.192 761.668 8.192C761.252 8.192 760.889 8.256 760.58 8.384C760.271 8.512 760.025 8.69333 759.844 8.928C759.673 9.152 759.588 9.41867 759.588 9.728C759.588 9.952 759.631 10.16 759.716 10.352C759.801 10.5333 759.929 10.6987 760.1 10.848C760.281 10.9867 760.521 11.1147 760.82 11.232C761.119 11.3387 761.476 11.4347 761.892 11.52C762.479 11.648 763.001 11.8133 763.46 12.016C763.919 12.208 764.308 12.4373 764.628 12.704C764.948 12.9707 765.188 13.2693 765.348 13.6C765.519 13.9307 765.604 14.288 765.604 14.672C765.604 15.3867 765.439 16.0053 765.108 16.528C764.777 17.0507 764.308 17.456 763.7 17.744C763.092 18.0213 762.367 18.16 761.524 18.16ZM771.412 18.16C770.591 18.16 769.855 17.9733 769.204 17.6C768.564 17.216 768.058 16.6987 767.684 16.048C767.311 15.3867 767.124 14.6347 767.124 13.792C767.124 12.9493 767.311 12.2027 767.684 11.552C768.058 10.8907 768.564 10.3733 769.204 10C769.855 9.616 770.591 9.424 771.412 9.424C772.223 9.424 772.948 9.616 773.588 10C774.239 10.3733 774.751 10.8907 775.124 11.552C775.498 12.2027 775.684 12.9493 775.684 13.792C775.684 14.6347 775.498 15.3867 775.124 16.048C774.751 16.6987 774.239 17.216 773.588 17.6C772.948 17.9733 772.223 18.16 771.412 18.16ZM771.412 16.656C771.914 16.656 772.362 16.5333 772.756 16.288C773.151 16.032 773.46 15.6907 773.684 15.264C773.908 14.8267 774.015 14.336 774.004 13.792C774.015 13.2373 773.908 12.7467 773.684 12.32C773.46 11.8827 773.151 11.5413 772.756 11.296C772.362 11.0507 771.914 10.928 771.412 10.928C770.911 10.928 770.458 11.056 770.052 11.312C769.658 11.5573 769.348 11.8987 769.124 12.336C768.9 12.7627 768.794 13.248 768.804 13.792C768.794 14.336 768.9 14.8267 769.124 15.264C769.348 15.6907 769.658 16.032 770.052 16.288C770.458 16.5333 770.911 16.656 771.412 16.656ZM777.448 18V9.6H779.112V11.392L778.808 11.584C778.893 11.3067 779.027 11.04 779.208 10.784C779.4 10.528 779.629 10.304 779.896 10.112C780.173 9.90933 780.467 9.74933 780.776 9.632C781.096 9.51467 781.421 9.456 781.752 9.456C782.232 9.456 782.653 9.536 783.016 9.696C783.379 9.856 783.677 10.096 783.912 10.416C784.147 10.736 784.317 11.136 784.424 11.616L784.168 11.552L784.28 11.28C784.397 11.0347 784.557 10.8053 784.76 10.592C784.973 10.368 785.213 10.1707 785.48 10C785.747 9.82933 786.029 9.696 786.328 9.6C786.627 9.504 786.92 9.456 787.208 9.456C787.837 9.456 788.355 9.584 788.76 9.84C789.176 10.096 789.485 10.4853 789.688 11.008C789.901 11.5307 790.008 12.1813 790.008 12.96V18H788.344V13.056C788.344 12.576 788.28 12.1867 788.152 11.888C788.035 11.5787 787.853 11.3493 787.608 11.2C787.363 11.0507 787.048 10.976 786.664 10.976C786.365 10.976 786.083 11.0293 785.816 11.136C785.56 11.232 785.336 11.3707 785.144 11.552C784.952 11.7333 784.803 11.9467 784.696 12.192C784.589 12.4267 784.536 12.688 784.536 12.976V18H782.872V13.024C782.872 12.5867 782.808 12.2187 782.68 11.92C782.552 11.6107 782.365 11.376 782.12 11.216C781.875 11.056 781.576 10.976 781.224 10.976C780.925 10.976 780.648 11.0293 780.392 11.136C780.136 11.232 779.912 11.3707 779.72 11.552C779.528 11.7227 779.379 11.9307 779.272 12.176C779.165 12.4107 779.112 12.6667 779.112 12.944V18H777.448ZM796.135 18.16C795.271 18.16 794.503 17.9787 793.831 17.616C793.169 17.2427 792.647 16.736 792.263 16.096C791.889 15.456 791.703 14.72 791.703 13.888C791.703 13.2267 791.809 12.624 792.023 12.08C792.236 11.536 792.529 11.0667 792.903 10.672C793.287 10.2667 793.74 9.95733 794.263 9.744C794.796 9.52 795.372 9.408 795.991 9.408C796.535 9.408 797.041 9.51467 797.511 9.728C797.98 9.93067 798.385 10.2133 798.727 10.576C799.079 10.9387 799.345 11.3707 799.527 11.872C799.719 12.3627 799.809 12.9013 799.799 13.488L799.783 14.192H792.919L792.551 12.88H798.359L798.119 13.152V12.768C798.087 12.416 797.969 12.1013 797.767 11.824C797.564 11.5467 797.308 11.328 796.999 11.168C796.689 11.008 796.353 10.928 795.991 10.928C795.415 10.928 794.929 11.04 794.535 11.264C794.14 11.4773 793.841 11.7973 793.639 12.224C793.436 12.64 793.335 13.1573 793.335 13.776C793.335 14.3627 793.457 14.8747 793.703 15.312C793.948 15.7387 794.295 16.0693 794.743 16.304C795.191 16.5387 795.708 16.656 796.295 16.656C796.711 16.656 797.095 16.5867 797.447 16.448C797.809 16.3093 798.199 16.0587 798.615 15.696L799.447 16.864C799.191 17.12 798.876 17.344 798.503 17.536C798.14 17.728 797.751 17.8827 797.335 18C796.929 18.1067 796.529 18.16 796.135 18.16ZM803.497 18L800.633 9.6L802.297 9.584L804.345 15.872L803.977 15.84L806.201 10.928H807.193L809.433 15.856L809.001 15.888L811.065 9.6H812.729L809.897 18H808.761L806.425 12.656L806.793 12.704L804.617 18H803.497ZM814.23 18V6.16H815.878V11.328L815.59 11.52C815.697 11.1467 815.905 10.8053 816.214 10.496C816.523 10.176 816.891 9.92 817.318 9.728C817.745 9.52533 818.182 9.424 818.63 9.424C819.27 9.424 819.803 9.552 820.23 9.808C820.657 10.0533 820.977 10.432 821.19 10.944C821.403 11.456 821.51 12.1013 821.51 12.88V18H819.862V12.992C819.862 12.512 819.798 12.1173 819.67 11.808C819.542 11.488 819.345 11.2587 819.078 11.12C818.811 10.9707 818.481 10.9067 818.086 10.928C817.766 10.928 817.473 10.9813 817.206 11.088C816.939 11.184 816.705 11.3227 816.502 11.504C816.31 11.6853 816.155 11.8987 816.038 12.144C815.931 12.3787 815.878 12.6347 815.878 12.912V18H815.062C814.923 18 814.785 18 814.646 18C814.507 18 814.369 18 814.23 18ZM827.666 18.16C826.802 18.16 826.034 17.9787 825.362 17.616C824.7 17.2427 824.178 16.736 823.794 16.096C823.42 15.456 823.234 14.72 823.234 13.888C823.234 13.2267 823.34 12.624 823.554 12.08C823.767 11.536 824.06 11.0667 824.434 10.672C824.818 10.2667 825.271 9.95733 825.794 9.744C826.327 9.52 826.903 9.408 827.522 9.408C828.066 9.408 828.572 9.51467 829.042 9.728C829.511 9.93067 829.916 10.2133 830.258 10.576C830.61 10.9387 830.876 11.3707 831.058 11.872C831.25 12.3627 831.34 12.9013 831.33 13.488L831.314 14.192H824.45L824.082 12.88H829.89L829.65 13.152V12.768C829.618 12.416 829.5 12.1013 829.298 11.824C829.095 11.5467 828.839 11.328 828.53 11.168C828.22 11.008 827.884 10.928 827.522 10.928C826.946 10.928 826.46 11.04 826.066 11.264C825.671 11.4773 825.372 11.7973 825.17 12.224C824.967 12.64 824.866 13.1573 824.866 13.776C824.866 14.3627 824.988 14.8747 825.234 15.312C825.479 15.7387 825.826 16.0693 826.274 16.304C826.722 16.5387 827.239 16.656 827.826 16.656C828.242 16.656 828.626 16.5867 828.978 16.448C829.34 16.3093 829.73 16.0587 830.146 15.696L830.978 16.864C830.722 17.12 830.407 17.344 830.034 17.536C829.671 17.728 829.282 17.8827 828.866 18C828.46 18.1067 828.06 18.16 827.666 18.16ZM833.121 18V9.6H834.785V12.24L834.625 11.6C834.742 11.1947 834.939 10.8267 835.217 10.496C835.505 10.1653 835.83 9.904 836.193 9.712C836.566 9.52 836.95 9.424 837.345 9.424C837.526 9.424 837.697 9.44 837.857 9.472C838.027 9.504 838.161 9.54133 838.257 9.584L837.825 11.376C837.697 11.3227 837.553 11.28 837.393 11.248C837.243 11.2053 837.094 11.184 836.945 11.184C836.657 11.184 836.379 11.2427 836.113 11.36C835.857 11.4667 835.627 11.6213 835.425 11.824C835.233 12.016 835.078 12.2453 834.961 12.512C834.843 12.768 834.785 13.0507 834.785 13.36V18H833.121ZM843.135 18.16C842.271 18.16 841.503 17.9787 840.831 17.616C840.169 17.2427 839.647 16.736 839.263 16.096C838.889 15.456 838.703 14.72 838.703 13.888C838.703 13.2267 838.809 12.624 839.023 12.08C839.236 11.536 839.529 11.0667 839.903 10.672C840.287 10.2667 840.74 9.95733 841.263 9.744C841.796 9.52 842.372 9.408 842.991 9.408C843.535 9.408 844.041 9.51467 844.511 9.728C844.98 9.93067 845.385 10.2133 845.727 10.576C846.079 10.9387 846.345 11.3707 846.527 11.872C846.719 12.3627 846.809 12.9013 846.799 13.488L846.783 14.192H839.919L839.551 12.88H845.359L845.119 13.152V12.768C845.087 12.416 844.969 12.1013 844.767 11.824C844.564 11.5467 844.308 11.328 843.999 11.168C843.689 11.008 843.353 10.928 842.991 10.928C842.415 10.928 841.929 11.04 841.535 11.264C841.14 11.4773 840.841 11.7973 840.639 12.224C840.436 12.64 840.335 13.1573 840.335 13.776C840.335 14.3627 840.457 14.8747 840.703 15.312C840.948 15.7387 841.295 16.0693 841.743 16.304C842.191 16.5387 842.708 16.656 843.295 16.656C843.711 16.656 844.095 16.5867 844.447 16.448C844.809 16.3093 845.199 16.0587 845.615 15.696L846.447 16.864C846.191 17.12 845.876 17.344 845.503 17.536C845.14 17.728 844.751 17.8827 844.335 18C843.929 18.1067 843.529 18.16 843.135 18.16ZM853.346 18V9.6H854.994V18H853.346ZM854.146 7.744C853.794 7.744 853.522 7.65333 853.33 7.472C853.138 7.29067 853.042 7.03467 853.042 6.704C853.042 6.39467 853.138 6.144 853.33 5.952C853.533 5.76 853.805 5.664 854.146 5.664C854.498 5.664 854.77 5.75467 854.962 5.936C855.154 6.11733 855.25 6.37333 855.25 6.704C855.25 7.01333 855.149 7.264 854.946 7.456C854.754 7.648 854.487 7.744 854.146 7.744ZM857.527 18V9.6H859.175V11.328L858.887 11.52C858.994 11.1467 859.202 10.8053 859.511 10.496C859.82 10.176 860.188 9.92 860.615 9.728C861.042 9.52533 861.479 9.424 861.927 9.424C862.567 9.424 863.1 9.552 863.527 9.808C863.954 10.0533 864.274 10.432 864.487 10.944C864.7 11.456 864.807 12.1013 864.807 12.88V18H863.159V12.992C863.159 12.512 863.095 12.1173 862.967 11.808C862.839 11.488 862.642 11.2587 862.375 11.12C862.108 10.9707 861.778 10.9067 861.383 10.928C861.063 10.928 860.77 10.9813 860.503 11.088C860.236 11.184 860.002 11.3227 859.799 11.504C859.607 11.6853 859.452 11.8987 859.335 12.144C859.228 12.3787 859.175 12.6347 859.175 12.912V18H858.359C858.22 18 858.082 18 857.943 18C857.804 18 857.666 18 857.527 18ZM872.567 18V7.456H874.215V18H872.567ZM870.823 11.2V9.6H876.167V11.2H870.823ZM877.668 18V6.16H879.316V11.328L879.028 11.52C879.134 11.1467 879.342 10.8053 879.652 10.496C879.961 10.176 880.329 9.92 880.756 9.728C881.182 9.52533 881.62 9.424 882.068 9.424C882.708 9.424 883.241 9.552 883.668 9.808C884.094 10.0533 884.414 10.432 884.628 10.944C884.841 11.456 884.948 12.1013 884.948 12.88V18H883.3V12.992C883.3 12.512 883.236 12.1173 883.108 11.808C882.98 11.488 882.782 11.2587 882.516 11.12C882.249 10.9707 881.918 10.9067 881.524 10.928C881.204 10.928 880.91 10.9813 880.644 11.088C880.377 11.184 880.142 11.3227 879.94 11.504C879.748 11.6853 879.593 11.8987 879.476 12.144C879.369 12.3787 879.316 12.6347 879.316 12.912V18H878.5C878.361 18 878.222 18 878.084 18C877.945 18 877.806 18 877.668 18ZM891.103 18.16C890.239 18.16 889.471 17.9787 888.799 17.616C888.138 17.2427 887.615 16.736 887.231 16.096C886.858 15.456 886.671 14.72 886.671 13.888C886.671 13.2267 886.778 12.624 886.991 12.08C887.205 11.536 887.498 11.0667 887.871 10.672C888.255 10.2667 888.709 9.95733 889.231 9.744C889.765 9.52 890.341 9.408 890.959 9.408C891.503 9.408 892.01 9.51467 892.479 9.728C892.949 9.93067 893.354 10.2133 893.695 10.576C894.047 10.9387 894.314 11.3707 894.495 11.872C894.687 12.3627 894.778 12.9013 894.767 13.488L894.751 14.192H887.887L887.519 12.88H893.327L893.087 13.152V12.768C893.055 12.416 892.938 12.1013 892.735 11.824C892.533 11.5467 892.277 11.328 891.967 11.168C891.658 11.008 891.322 10.928 890.959 10.928C890.383 10.928 889.898 11.04 889.503 11.264C889.109 11.4773 888.81 11.7973 888.607 12.224C888.405 12.64 888.303 13.1573 888.303 13.776C888.303 14.3627 888.426 14.8747 888.671 15.312C888.917 15.7387 889.263 16.0693 889.711 16.304C890.159 16.5387 890.677 16.656 891.263 16.656C891.679 16.656 892.063 16.5867 892.415 16.448C892.778 16.3093 893.167 16.0587 893.583 15.696L894.415 16.864C894.159 17.12 893.845 17.344 893.471 17.536C893.109 17.728 892.719 17.8827 892.303 18C891.898 18.1067 891.498 18.16 891.103 18.16ZM903.843 18L900.275 6.8H902.115L904.275 13.808C904.339 13.9787 904.397 14.1813 904.451 14.416C904.504 14.64 904.552 14.8693 904.595 15.104C904.637 15.3387 904.675 15.5573 904.707 15.76C904.749 15.9627 904.787 16.128 904.819 16.256L904.355 16.24C904.515 15.6747 904.637 15.2373 904.723 14.928C904.819 14.6187 904.893 14.384 904.947 14.224C905 14.0533 905.048 13.9093 905.091 13.792L907.107 8.736H908.659L910.611 13.792C910.717 14.048 910.808 14.304 910.883 14.56C910.968 14.8053 911.043 15.056 911.107 15.312C911.171 15.5573 911.24 15.8187 911.315 16.096L910.899 16.208C910.952 15.92 910.989 15.696 911.011 15.536C911.043 15.3653 911.069 15.2267 911.091 15.12C911.112 15.0133 911.133 14.912 911.155 14.816C911.176 14.7093 911.208 14.576 911.251 14.416C911.304 14.256 911.373 14.0373 911.459 13.76L913.587 6.8H915.443L911.875 18H910.675L907.715 10.992L907.859 11.056L905.011 18H903.843ZM920.35 18.16C919.529 18.16 918.793 17.9733 918.142 17.6C917.502 17.216 916.995 16.6987 916.622 16.048C916.249 15.3867 916.062 14.6347 916.062 13.792C916.062 12.9493 916.249 12.2027 916.622 11.552C916.995 10.8907 917.502 10.3733 918.142 10C918.793 9.616 919.529 9.424 920.35 9.424C921.161 9.424 921.886 9.616 922.526 10C923.177 10.3733 923.689 10.8907 924.062 11.552C924.435 12.2027 924.622 12.9493 924.622 13.792C924.622 14.6347 924.435 15.3867 924.062 16.048C923.689 16.6987 923.177 17.216 922.526 17.6C921.886 17.9733 921.161 18.16 920.35 18.16ZM920.35 16.656C920.851 16.656 921.299 16.5333 921.694 16.288C922.089 16.032 922.398 15.6907 922.622 15.264C922.846 14.8267 922.953 14.336 922.942 13.792C922.953 13.2373 922.846 12.7467 922.622 12.32C922.398 11.8827 922.089 11.5413 921.694 11.296C921.299 11.0507 920.851 10.928 920.35 10.928C919.849 10.928 919.395 11.056 918.99 11.312C918.595 11.5573 918.286 11.8987 918.062 12.336C917.838 12.7627 917.731 13.248 917.742 13.792C917.731 14.336 917.838 14.8267 918.062 15.264C918.286 15.6907 918.595 16.032 918.99 16.288C919.395 16.5333 919.849 16.656 920.35 16.656ZM926.418 18V9.6H928.082V12.24L927.922 11.6C928.039 11.1947 928.236 10.8267 928.514 10.496C928.802 10.1653 929.127 9.904 929.49 9.712C929.863 9.52 930.247 9.424 930.642 9.424C930.823 9.424 930.994 9.44 931.154 9.472C931.324 9.504 931.458 9.54133 931.554 9.584L931.122 11.376C930.994 11.3227 930.85 11.28 930.69 11.248C930.54 11.2053 930.391 11.184 930.242 11.184C929.954 11.184 929.676 11.2427 929.41 11.36C929.154 11.4667 928.924 11.6213 928.722 11.824C928.53 12.016 928.375 12.2453 928.258 12.512C928.14 12.768 928.082 13.0507 928.082 13.36V18H926.418ZM932.903 18V6.16H934.551V18H932.903ZM940.234 18.16C939.466 18.16 938.778 17.9733 938.17 17.6C937.573 17.216 937.098 16.6987 936.746 16.048C936.394 15.3867 936.218 14.6347 936.218 13.792C936.218 12.9493 936.389 12.2027 936.73 11.552C937.082 10.8907 937.557 10.3733 938.154 10C938.751 9.616 939.429 9.424 940.186 9.424C940.602 9.424 941.002 9.49333 941.386 9.632C941.781 9.76 942.133 9.94133 942.442 10.176C942.751 10.4 942.991 10.6507 943.162 10.928C943.343 11.1947 943.434 11.4667 943.434 11.744L942.954 11.776V6.16H944.602V18H942.954V16H943.274C943.274 16.256 943.189 16.512 943.018 16.768C942.847 17.0133 942.618 17.2427 942.33 17.456C942.053 17.6693 941.727 17.84 941.354 17.968C940.991 18.096 940.618 18.16 940.234 18.16ZM940.458 16.736C940.959 16.736 941.402 16.608 941.786 16.352C942.17 16.096 942.469 15.7493 942.682 15.312C942.906 14.864 943.018 14.3573 943.018 13.792C943.018 13.2267 942.906 12.7253 942.682 12.288C942.469 11.84 942.17 11.488 941.786 11.232C941.402 10.976 940.959 10.848 940.458 10.848C939.957 10.848 939.514 10.976 939.13 11.232C938.746 11.488 938.442 11.84 938.218 12.288C938.005 12.7253 937.898 13.2267 937.898 13.792C937.898 14.3573 938.005 14.864 938.218 15.312C938.442 15.7493 938.746 16.096 939.13 16.352C939.514 16.608 939.957 16.736 940.458 16.736Z" fill="#E4E4E7"/>
</svg>
