<svg width="357" height="44" viewBox="0 0 357 44" fill="none" xmlns="http://www.w3.org/2000/svg">
<rect width="357" height="44" rx="22" fill="#262626"/>
<path fill-rule="evenodd" clip-rule="evenodd" d="M20.6029 13.7988C21.4271 12.8509 22.6433 12.25 24 12.25C25.3566 12.25 26.5728 12.8509 27.397 13.7986C28.6501 13.7111 29.9352 14.1462 30.8946 15.1056C31.854 16.065 32.2891 17.3501 32.2016 18.6032C33.1492 19.4274 33.75 20.6435 33.75 22C33.75 23.3568 33.149 24.5731 32.2011 25.3973C32.2884 26.6502 31.8533 27.935 30.8941 28.8943C29.9348 29.8535 28.65 30.2886 27.3971 30.2013C26.5729 31.1491 25.3567 31.75 24 31.75C22.6434 31.75 21.4272 31.1491 20.603 30.2014C19.3499 30.289 18.0648 29.8539 17.1054 28.8945C16.146 27.935 15.7109 26.6499 15.7984 25.3968C14.8508 24.5726 14.25 23.3565 14.25 22C14.25 20.6434 14.8508 19.4272 15.7986 18.6031C15.7111 17.35 16.1462 16.0651 17.1055 15.1057C18.0649 14.1464 19.3499 13.7113 20.6029 13.7988ZM27.6103 20.1859C27.8511 19.8489 27.773 19.3805 27.4359 19.1397C27.0989 18.8989 26.6305 18.977 26.3897 19.3141L23.1543 23.8436L21.5303 22.2197C21.2374 21.9268 20.7626 21.9268 20.4697 22.2197C20.1768 22.5126 20.1768 22.9874 20.4697 23.2803L22.7197 25.5303C22.8756 25.6862 23.0921 25.7656 23.3119 25.7474C23.5316 25.7293 23.7322 25.6153 23.8603 25.4359L27.6103 20.1859Z" fill="#CAFF33"/>
<path d="M43.854 29V16.4H45.132L53.376 27.308L53.124 27.632C53.088 27.44 53.058 27.152 53.034 26.768C53.022 26.384 53.004 25.952 52.98 25.472C52.968 24.98 52.956 24.47 52.944 23.942C52.932 23.414 52.92 22.898 52.908 22.394C52.908 21.89 52.908 21.434 52.908 21.026V16.4H54.312V29H52.998L44.79 18.236L45.006 17.858C45.042 18.338 45.072 18.812 45.096 19.28C45.132 19.748 45.156 20.198 45.168 20.63C45.192 21.062 45.21 21.458 45.222 21.818C45.234 22.178 45.24 22.484 45.24 22.736C45.252 22.988 45.258 23.168 45.258 23.276V29H43.854ZM61.64 29.18C60.704 29.18 59.87 28.97 59.138 28.55C58.418 28.13 57.848 27.548 57.428 26.804C57.02 26.06 56.816 25.214 56.816 24.266C56.816 23.33 57.02 22.496 57.428 21.764C57.848 21.032 58.418 20.456 59.138 20.036C59.87 19.616 60.704 19.406 61.64 19.406C62.564 19.406 63.386 19.616 64.106 20.036C64.838 20.456 65.408 21.032 65.816 21.764C66.236 22.496 66.446 23.33 66.446 24.266C66.446 25.214 66.236 26.06 65.816 26.804C65.408 27.548 64.838 28.13 64.106 28.55C63.386 28.97 62.564 29.18 61.64 29.18ZM61.64 27.902C62.3 27.902 62.888 27.746 63.404 27.434C63.92 27.11 64.322 26.678 64.61 26.138C64.898 25.586 65.042 24.962 65.042 24.266C65.042 23.57 64.898 22.952 64.61 22.412C64.322 21.872 63.92 21.452 63.404 21.152C62.888 20.84 62.3 20.684 61.64 20.684C60.98 20.684 60.386 20.84 59.858 21.152C59.342 21.452 58.934 21.878 58.634 22.43C58.346 22.97 58.208 23.582 58.22 24.266C58.208 24.962 58.346 25.586 58.634 26.138C58.934 26.678 59.342 27.11 59.858 27.434C60.386 27.746 60.98 27.902 61.64 27.902ZM74.0005 29V16.4H75.4045V27.632H81.4525V29H74.0005ZM84.1958 29V16.4H85.5998V27.632H91.6478V29H84.1958ZM99.2595 29.18C98.3595 29.18 97.5315 29.024 96.7755 28.712C96.0195 28.388 95.3655 27.938 94.8135 27.362C94.2615 26.774 93.8295 26.084 93.5175 25.292C93.2175 24.5 93.0675 23.636 93.0675 22.7C93.0675 21.776 93.2175 20.93 93.5175 20.162C93.8295 19.382 94.2675 18.704 94.8315 18.128C95.3955 17.54 96.0495 17.09 96.7935 16.778C97.5375 16.466 98.3535 16.31 99.2415 16.31C99.8295 16.31 100.412 16.406 100.988 16.598C101.564 16.778 102.092 17.03 102.572 17.354C103.064 17.678 103.466 18.05 103.778 18.47L102.806 19.478C102.506 19.118 102.158 18.806 101.762 18.542C101.378 18.278 100.97 18.074 100.538 17.93C100.106 17.786 99.6735 17.714 99.2415 17.714C98.5695 17.714 97.9395 17.84 97.3515 18.092C96.7755 18.332 96.2775 18.674 95.8575 19.118C95.4375 19.562 95.1075 20.09 94.8675 20.702C94.6395 21.314 94.5255 21.98 94.5255 22.7C94.5255 23.444 94.6395 24.128 94.8675 24.752C95.1075 25.376 95.4435 25.916 95.8755 26.372C96.3195 26.816 96.8355 27.164 97.4235 27.416C98.0235 27.656 98.6895 27.776 99.4215 27.776C99.8535 27.776 100.286 27.716 100.718 27.596C101.15 27.464 101.546 27.284 101.906 27.056C102.266 26.828 102.572 26.57 102.824 26.282L103.544 27.452C103.268 27.788 102.896 28.088 102.428 28.352C101.972 28.604 101.468 28.808 100.916 28.964C100.364 29.108 99.8115 29.18 99.2595 29.18ZM111.249 29V16.4H116.181C116.913 16.4 117.573 16.574 118.161 16.922C118.761 17.258 119.235 17.72 119.583 18.308C119.931 18.896 120.105 19.562 120.105 20.306C120.105 21.002 119.937 21.632 119.601 22.196C119.265 22.76 118.809 23.21 118.233 23.546C117.657 23.87 117.009 24.032 116.289 24.032H112.653V29H111.249ZM118.935 29L115.767 23.456L117.117 22.988L120.609 29H118.935ZM112.653 22.664H116.415C116.859 22.664 117.249 22.562 117.585 22.358C117.921 22.154 118.185 21.878 118.377 21.53C118.569 21.17 118.665 20.762 118.665 20.306C118.665 19.814 118.551 19.376 118.323 18.992C118.095 18.608 117.777 18.308 117.369 18.092C116.973 17.876 116.517 17.768 116.001 17.768H112.653V22.664ZM126.38 29.18C125.444 29.18 124.61 28.976 123.878 28.568C123.158 28.16 122.594 27.59 122.186 26.858C121.778 26.126 121.574 25.286 121.574 24.338C121.574 23.606 121.688 22.946 121.916 22.358C122.144 21.758 122.462 21.236 122.87 20.792C123.29 20.348 123.788 20.006 124.364 19.766C124.94 19.514 125.564 19.388 126.236 19.388C126.872 19.388 127.448 19.502 127.964 19.73C128.492 19.958 128.942 20.276 129.314 20.684C129.698 21.08 129.986 21.554 130.178 22.106C130.37 22.658 130.454 23.264 130.43 23.924L130.412 24.554H122.582L122.384 23.42H129.386L129.062 23.726V23.294C129.038 22.862 128.912 22.448 128.684 22.052C128.456 21.644 128.132 21.314 127.712 21.062C127.304 20.81 126.812 20.684 126.236 20.684C125.564 20.684 124.982 20.822 124.49 21.098C123.998 21.362 123.62 21.758 123.356 22.286C123.092 22.814 122.96 23.468 122.96 24.248C122.96 24.992 123.104 25.64 123.392 26.192C123.68 26.732 124.088 27.152 124.616 27.452C125.156 27.752 125.804 27.902 126.56 27.902C127.004 27.902 127.442 27.83 127.874 27.686C128.318 27.53 128.804 27.23 129.332 26.786L130.034 27.758C129.758 28.034 129.428 28.28 129.044 28.496C128.66 28.7 128.24 28.868 127.784 29C127.328 29.12 126.86 29.18 126.38 29.18ZM139.529 32.96V26.696L139.817 26.534C139.769 26.87 139.631 27.2 139.403 27.524C139.187 27.836 138.911 28.118 138.575 28.37C138.239 28.622 137.861 28.82 137.441 28.964C137.021 29.108 136.589 29.18 136.145 29.18C135.293 29.18 134.531 28.97 133.859 28.55C133.187 28.13 132.653 27.554 132.257 26.822C131.873 26.078 131.681 25.238 131.681 24.302C131.681 23.354 131.873 22.514 132.257 21.782C132.653 21.038 133.187 20.456 133.859 20.036C134.531 19.616 135.281 19.406 136.109 19.406C136.589 19.406 137.039 19.484 137.459 19.64C137.891 19.784 138.281 19.982 138.629 20.234C138.977 20.486 139.265 20.78 139.493 21.116C139.721 21.44 139.859 21.782 139.907 22.142L139.475 22.034L139.529 19.586H140.879V32.96H139.529ZM136.307 27.884C136.931 27.884 137.489 27.734 137.981 27.434C138.485 27.122 138.881 26.696 139.169 26.156C139.457 25.616 139.601 24.992 139.601 24.284C139.601 23.588 139.457 22.97 139.169 22.43C138.881 21.89 138.491 21.464 137.999 21.152C137.507 20.84 136.943 20.684 136.307 20.684C135.671 20.684 135.107 20.84 134.615 21.152C134.123 21.464 133.733 21.89 133.445 22.43C133.169 22.97 133.031 23.588 133.031 24.284C133.031 24.968 133.169 25.586 133.445 26.138C133.721 26.678 134.105 27.104 134.597 27.416C135.089 27.728 135.659 27.884 136.307 27.884ZM146.839 29.18C146.119 29.18 145.507 29.036 145.003 28.748C144.511 28.448 144.133 28.016 143.869 27.452C143.617 26.888 143.491 26.186 143.491 25.346V19.604H144.859V25.076C144.859 25.712 144.943 26.246 145.111 26.678C145.291 27.098 145.555 27.416 145.903 27.632C146.263 27.848 146.701 27.956 147.217 27.956C147.613 27.956 147.979 27.89 148.315 27.758C148.651 27.614 148.945 27.422 149.197 27.182C149.449 26.942 149.647 26.66 149.791 26.336C149.935 26.012 150.007 25.67 150.007 25.31V19.604H151.357V29H150.025L149.971 27.02L150.187 26.912C150.043 27.332 149.803 27.716 149.467 28.064C149.131 28.4 148.729 28.67 148.261 28.874C147.805 29.078 147.331 29.18 146.839 29.18ZM154.346 29V19.604H155.696V29H154.346ZM155.012 17.57C154.676 17.57 154.418 17.486 154.238 17.318C154.07 17.138 153.986 16.898 153.986 16.598C153.986 16.298 154.076 16.058 154.256 15.878C154.436 15.698 154.688 15.608 155.012 15.608C155.336 15.608 155.588 15.698 155.768 15.878C155.948 16.046 156.038 16.286 156.038 16.598C156.038 16.886 155.948 17.12 155.768 17.3C155.588 17.48 155.336 17.57 155.012 17.57ZM158.644 29V19.604H159.994L160.03 22.106L159.886 21.764C160.018 21.344 160.228 20.954 160.516 20.594C160.816 20.234 161.17 19.946 161.578 19.73C161.986 19.514 162.436 19.406 162.928 19.406C163.132 19.406 163.324 19.424 163.504 19.46C163.684 19.484 163.834 19.52 163.954 19.568L163.576 21.08C163.42 21.008 163.258 20.96 163.09 20.936C162.934 20.9 162.784 20.882 162.64 20.882C162.232 20.882 161.866 20.954 161.542 21.098C161.218 21.242 160.942 21.446 160.714 21.71C160.486 21.962 160.312 22.256 160.192 22.592C160.072 22.928 160.012 23.288 160.012 23.672V29H158.644ZM169.095 29.18C168.159 29.18 167.325 28.976 166.593 28.568C165.873 28.16 165.309 27.59 164.901 26.858C164.493 26.126 164.289 25.286 164.289 24.338C164.289 23.606 164.403 22.946 164.631 22.358C164.859 21.758 165.177 21.236 165.585 20.792C166.005 20.348 166.503 20.006 167.079 19.766C167.655 19.514 168.279 19.388 168.951 19.388C169.587 19.388 170.163 19.502 170.679 19.73C171.207 19.958 171.657 20.276 172.029 20.684C172.413 21.08 172.701 21.554 172.893 22.106C173.085 22.658 173.169 23.264 173.145 23.924L173.127 24.554H165.297L165.099 23.42H172.101L171.777 23.726V23.294C171.753 22.862 171.627 22.448 171.399 22.052C171.171 21.644 170.847 21.314 170.427 21.062C170.019 20.81 169.527 20.684 168.951 20.684C168.279 20.684 167.697 20.822 167.205 21.098C166.713 21.362 166.335 21.758 166.071 22.286C165.807 22.814 165.675 23.468 165.675 24.248C165.675 24.992 165.819 25.64 166.107 26.192C166.395 26.732 166.803 27.152 167.331 27.452C167.871 27.752 168.519 27.902 169.275 27.902C169.719 27.902 170.157 27.83 170.589 27.686C171.033 27.53 171.519 27.23 172.047 26.786L172.749 27.758C172.473 28.034 172.143 28.28 171.759 28.496C171.375 28.7 170.955 28.868 170.499 29C170.043 29.12 169.575 29.18 169.095 29.18ZM178.878 29.18C178.026 29.18 177.258 28.97 176.574 28.55C175.902 28.13 175.368 27.554 174.972 26.822C174.588 26.078 174.396 25.238 174.396 24.302C174.396 23.354 174.594 22.514 174.99 21.782C175.386 21.038 175.92 20.456 176.592 20.036C177.264 19.616 178.02 19.406 178.86 19.406C179.328 19.406 179.778 19.478 180.21 19.622C180.654 19.766 181.05 19.97 181.398 20.234C181.746 20.486 182.034 20.78 182.262 21.116C182.49 21.44 182.628 21.782 182.676 22.142L182.262 21.998V15.68H183.612V29H182.28L182.244 26.66L182.586 26.534C182.538 26.87 182.4 27.2 182.172 27.524C181.956 27.836 181.68 28.118 181.344 28.37C181.008 28.622 180.624 28.82 180.192 28.964C179.772 29.108 179.334 29.18 178.878 29.18ZM179.076 27.938C179.7 27.938 180.258 27.782 180.75 27.47C181.242 27.158 181.626 26.726 181.902 26.174C182.19 25.622 182.334 24.992 182.334 24.284C182.334 23.576 182.19 22.952 181.902 22.412C181.626 21.86 181.242 21.428 180.75 21.116C180.258 20.792 179.7 20.63 179.076 20.63C178.428 20.63 177.858 20.792 177.366 21.116C176.886 21.428 176.502 21.86 176.214 22.412C175.938 22.952 175.8 23.576 175.8 24.284C175.8 24.98 175.938 25.604 176.214 26.156C176.49 26.708 176.874 27.146 177.366 27.47C177.858 27.782 178.428 27.938 179.076 27.938ZM186.422 31.97L185.918 31.322C186.302 31.094 186.602 30.848 186.818 30.584C187.034 30.32 187.142 30.068 187.142 29.828C187.142 29.696 187.118 29.57 187.07 29.45C187.022 29.33 186.902 29.18 186.71 29C186.542 28.844 186.416 28.694 186.332 28.55C186.26 28.406 186.224 28.256 186.224 28.1C186.224 27.86 186.308 27.668 186.476 27.524C186.644 27.368 186.866 27.29 187.142 27.29C187.418 27.29 187.658 27.362 187.862 27.506C188.066 27.65 188.222 27.854 188.33 28.118C188.45 28.37 188.51 28.67 188.51 29.018C188.51 29.342 188.462 29.642 188.366 29.918C188.27 30.206 188.132 30.476 187.952 30.728C187.772 30.98 187.556 31.208 187.304 31.412C187.052 31.616 186.758 31.802 186.422 31.97ZM196.309 29V16.4H197.587L205.831 27.308L205.579 27.632C205.543 27.44 205.513 27.152 205.489 26.768C205.477 26.384 205.459 25.952 205.435 25.472C205.423 24.98 205.411 24.47 205.399 23.942C205.387 23.414 205.375 22.898 205.363 22.394C205.363 21.89 205.363 21.434 205.363 21.026V16.4H206.767V29H205.453L197.245 18.236L197.461 17.858C197.497 18.338 197.527 18.812 197.551 19.28C197.587 19.748 197.611 20.198 197.623 20.63C197.647 21.062 197.665 21.458 197.677 21.818C197.689 22.178 197.695 22.484 197.695 22.736C197.707 22.988 197.713 23.168 197.713 23.276V29H196.309ZM214.095 29.18C213.159 29.18 212.325 28.97 211.593 28.55C210.873 28.13 210.303 27.548 209.883 26.804C209.475 26.06 209.271 25.214 209.271 24.266C209.271 23.33 209.475 22.496 209.883 21.764C210.303 21.032 210.873 20.456 211.593 20.036C212.325 19.616 213.159 19.406 214.095 19.406C215.019 19.406 215.841 19.616 216.561 20.036C217.293 20.456 217.863 21.032 218.271 21.764C218.691 22.496 218.901 23.33 218.901 24.266C218.901 25.214 218.691 26.06 218.271 26.804C217.863 27.548 217.293 28.13 216.561 28.55C215.841 28.97 215.019 29.18 214.095 29.18ZM214.095 27.902C214.755 27.902 215.343 27.746 215.859 27.434C216.375 27.11 216.777 26.678 217.065 26.138C217.353 25.586 217.497 24.962 217.497 24.266C217.497 23.57 217.353 22.952 217.065 22.412C216.777 21.872 216.375 21.452 215.859 21.152C215.343 20.84 214.755 20.684 214.095 20.684C213.435 20.684 212.841 20.84 212.313 21.152C211.797 21.452 211.389 21.878 211.089 22.43C210.801 22.97 210.663 23.582 210.675 24.266C210.663 24.962 210.801 25.586 211.089 26.138C211.389 26.678 211.797 27.11 212.313 27.434C212.841 27.746 213.435 27.902 214.095 27.902ZM231.676 29.18C230.776 29.18 229.948 29.024 229.192 28.712C228.436 28.388 227.782 27.938 227.23 27.362C226.678 26.774 226.246 26.084 225.934 25.292C225.634 24.5 225.484 23.636 225.484 22.7C225.484 21.776 225.634 20.93 225.934 20.162C226.246 19.382 226.684 18.704 227.248 18.128C227.812 17.54 228.466 17.09 229.21 16.778C229.954 16.466 230.77 16.31 231.658 16.31C232.246 16.31 232.828 16.406 233.404 16.598C233.98 16.778 234.508 17.03 234.988 17.354C235.48 17.678 235.882 18.05 236.194 18.47L235.222 19.478C234.922 19.118 234.574 18.806 234.178 18.542C233.794 18.278 233.386 18.074 232.954 17.93C232.522 17.786 232.09 17.714 231.658 17.714C230.986 17.714 230.356 17.84 229.768 18.092C229.192 18.332 228.694 18.674 228.274 19.118C227.854 19.562 227.524 20.09 227.284 20.702C227.056 21.314 226.942 21.98 226.942 22.7C226.942 23.444 227.056 24.128 227.284 24.752C227.524 25.376 227.86 25.916 228.292 26.372C228.736 26.816 229.252 27.164 229.84 27.416C230.44 27.656 231.106 27.776 231.838 27.776C232.27 27.776 232.702 27.716 233.134 27.596C233.566 27.464 233.962 27.284 234.322 27.056C234.682 26.828 234.988 26.57 235.24 26.282L235.96 27.452C235.684 27.788 235.312 28.088 234.844 28.352C234.388 28.604 233.884 28.808 233.332 28.964C232.78 29.108 232.228 29.18 231.676 29.18ZM238.08 29V19.604H239.43L239.466 22.106L239.322 21.764C239.454 21.344 239.664 20.954 239.952 20.594C240.252 20.234 240.606 19.946 241.014 19.73C241.422 19.514 241.872 19.406 242.364 19.406C242.568 19.406 242.76 19.424 242.94 19.46C243.12 19.484 243.27 19.52 243.39 19.568L243.012 21.08C242.856 21.008 242.694 20.96 242.526 20.936C242.37 20.9 242.22 20.882 242.076 20.882C241.668 20.882 241.302 20.954 240.978 21.098C240.654 21.242 240.378 21.446 240.15 21.71C239.922 21.962 239.748 22.256 239.628 22.592C239.508 22.928 239.448 23.288 239.448 23.672V29H238.08ZM248.53 29.18C247.594 29.18 246.76 28.976 246.028 28.568C245.308 28.16 244.744 27.59 244.336 26.858C243.928 26.126 243.724 25.286 243.724 24.338C243.724 23.606 243.838 22.946 244.066 22.358C244.294 21.758 244.612 21.236 245.02 20.792C245.44 20.348 245.938 20.006 246.514 19.766C247.09 19.514 247.714 19.388 248.386 19.388C249.022 19.388 249.598 19.502 250.114 19.73C250.642 19.958 251.092 20.276 251.464 20.684C251.848 21.08 252.136 21.554 252.328 22.106C252.52 22.658 252.604 23.264 252.58 23.924L252.562 24.554H244.732L244.534 23.42H251.536L251.212 23.726V23.294C251.188 22.862 251.062 22.448 250.834 22.052C250.606 21.644 250.282 21.314 249.862 21.062C249.454 20.81 248.962 20.684 248.386 20.684C247.714 20.684 247.132 20.822 246.64 21.098C246.148 21.362 245.77 21.758 245.506 22.286C245.242 22.814 245.11 23.468 245.11 24.248C245.11 24.992 245.254 25.64 245.542 26.192C245.83 26.732 246.238 27.152 246.766 27.452C247.306 27.752 247.954 27.902 248.71 27.902C249.154 27.902 249.592 27.83 250.024 27.686C250.468 27.53 250.954 27.23 251.482 26.786L252.184 27.758C251.908 28.034 251.578 28.28 251.194 28.496C250.81 28.7 250.39 28.868 249.934 29C249.478 29.12 249.01 29.18 248.53 29.18ZM258.314 29.18C257.462 29.18 256.694 28.97 256.01 28.55C255.338 28.13 254.804 27.554 254.408 26.822C254.024 26.078 253.832 25.238 253.832 24.302C253.832 23.354 254.03 22.514 254.426 21.782C254.822 21.038 255.356 20.456 256.028 20.036C256.7 19.616 257.456 19.406 258.296 19.406C258.764 19.406 259.214 19.478 259.646 19.622C260.09 19.766 260.486 19.97 260.834 20.234C261.182 20.486 261.47 20.78 261.698 21.116C261.926 21.44 262.064 21.782 262.112 22.142L261.698 21.998V15.68H263.048V29H261.716L261.68 26.66L262.022 26.534C261.974 26.87 261.836 27.2 261.608 27.524C261.392 27.836 261.116 28.118 260.78 28.37C260.444 28.622 260.06 28.82 259.628 28.964C259.208 29.108 258.77 29.18 258.314 29.18ZM258.512 27.938C259.136 27.938 259.694 27.782 260.186 27.47C260.678 27.158 261.062 26.726 261.338 26.174C261.626 25.622 261.77 24.992 261.77 24.284C261.77 23.576 261.626 22.952 261.338 22.412C261.062 21.86 260.678 21.428 260.186 21.116C259.694 20.792 259.136 20.63 258.512 20.63C257.864 20.63 257.294 20.792 256.802 21.116C256.322 21.428 255.938 21.86 255.65 22.412C255.374 22.952 255.236 23.576 255.236 24.284C255.236 24.98 255.374 25.604 255.65 26.156C255.926 26.708 256.31 27.146 256.802 27.47C257.294 27.782 257.864 27.938 258.512 27.938ZM266.037 29V19.604H267.387V29H266.037ZM266.703 17.57C266.367 17.57 266.109 17.486 265.929 17.318C265.761 17.138 265.677 16.898 265.677 16.598C265.677 16.298 265.767 16.058 265.947 15.878C266.127 15.698 266.379 15.608 266.703 15.608C267.027 15.608 267.279 15.698 267.459 15.878C267.639 16.046 267.729 16.286 267.729 16.598C267.729 16.886 267.639 17.12 267.459 17.3C267.279 17.48 267.027 17.57 266.703 17.57ZM271.631 29V17.138H272.981V29H271.631ZM269.507 20.9V19.604H275.357V20.9H269.507ZM287.82 29.18C286.92 29.18 286.092 29.024 285.336 28.712C284.58 28.388 283.926 27.938 283.374 27.362C282.822 26.774 282.39 26.084 282.078 25.292C281.778 24.5 281.628 23.636 281.628 22.7C281.628 21.776 281.778 20.93 282.078 20.162C282.39 19.382 282.828 18.704 283.392 18.128C283.956 17.54 284.61 17.09 285.354 16.778C286.098 16.466 286.914 16.31 287.802 16.31C288.39 16.31 288.972 16.406 289.548 16.598C290.124 16.778 290.652 17.03 291.132 17.354C291.624 17.678 292.026 18.05 292.338 18.47L291.366 19.478C291.066 19.118 290.718 18.806 290.322 18.542C289.938 18.278 289.53 18.074 289.098 17.93C288.666 17.786 288.234 17.714 287.802 17.714C287.13 17.714 286.5 17.84 285.912 18.092C285.336 18.332 284.838 18.674 284.418 19.118C283.998 19.562 283.668 20.09 283.428 20.702C283.2 21.314 283.086 21.98 283.086 22.7C283.086 23.444 283.2 24.128 283.428 24.752C283.668 25.376 284.004 25.916 284.436 26.372C284.88 26.816 285.396 27.164 285.984 27.416C286.584 27.656 287.25 27.776 287.982 27.776C288.414 27.776 288.846 27.716 289.278 27.596C289.71 27.464 290.106 27.284 290.466 27.056C290.826 26.828 291.132 26.57 291.384 26.282L292.104 27.452C291.828 27.788 291.456 28.088 290.988 28.352C290.532 28.604 290.028 28.808 289.476 28.964C288.924 29.108 288.372 29.18 287.82 29.18ZM294.224 29V15.68H295.574V21.656L295.304 21.926C295.436 21.434 295.682 21.002 296.042 20.63C296.402 20.246 296.822 19.946 297.302 19.73C297.794 19.514 298.292 19.406 298.796 19.406C299.516 19.406 300.116 19.544 300.596 19.82C301.076 20.096 301.43 20.522 301.658 21.098C301.898 21.674 302.018 22.406 302.018 23.294V29H300.65V23.366C300.65 22.742 300.566 22.232 300.398 21.836C300.242 21.428 299.996 21.128 299.66 20.936C299.324 20.744 298.904 20.654 298.4 20.666C298.004 20.666 297.632 20.738 297.284 20.882C296.936 21.014 296.636 21.2 296.384 21.44C296.132 21.68 295.934 21.956 295.79 22.268C295.646 22.58 295.574 22.916 295.574 23.276V29H294.908C294.824 29 294.728 29 294.62 29C294.512 29 294.38 29 294.224 29ZM308.735 29.18C307.799 29.18 306.965 28.976 306.233 28.568C305.513 28.16 304.949 27.59 304.541 26.858C304.133 26.126 303.929 25.286 303.929 24.338C303.929 23.606 304.043 22.946 304.271 22.358C304.499 21.758 304.817 21.236 305.225 20.792C305.645 20.348 306.143 20.006 306.719 19.766C307.295 19.514 307.919 19.388 308.591 19.388C309.227 19.388 309.803 19.502 310.319 19.73C310.847 19.958 311.297 20.276 311.669 20.684C312.053 21.08 312.341 21.554 312.533 22.106C312.725 22.658 312.809 23.264 312.785 23.924L312.767 24.554H304.937L304.739 23.42H311.741L311.417 23.726V23.294C311.393 22.862 311.267 22.448 311.039 22.052C310.811 21.644 310.487 21.314 310.067 21.062C309.659 20.81 309.167 20.684 308.591 20.684C307.919 20.684 307.337 20.822 306.845 21.098C306.353 21.362 305.975 21.758 305.711 22.286C305.447 22.814 305.315 23.468 305.315 24.248C305.315 24.992 305.459 25.64 305.747 26.192C306.035 26.732 306.443 27.152 306.971 27.452C307.511 27.752 308.159 27.902 308.915 27.902C309.359 27.902 309.797 27.83 310.229 27.686C310.673 27.53 311.159 27.23 311.687 26.786L312.389 27.758C312.113 28.034 311.783 28.28 311.399 28.496C311.015 28.7 310.595 28.868 310.139 29C309.683 29.12 309.215 29.18 308.735 29.18ZM318.663 29.18C317.775 29.18 316.983 28.97 316.287 28.55C315.591 28.118 315.039 27.536 314.631 26.804C314.235 26.06 314.037 25.22 314.037 24.284C314.037 23.348 314.235 22.514 314.631 21.782C315.039 21.038 315.591 20.456 316.287 20.036C316.983 19.616 317.781 19.406 318.681 19.406C319.485 19.406 320.217 19.568 320.877 19.892C321.537 20.204 322.065 20.642 322.461 21.206L321.669 22.178C321.441 21.878 321.165 21.614 320.841 21.386C320.529 21.158 320.187 20.984 319.815 20.864C319.455 20.732 319.095 20.666 318.735 20.666C318.099 20.666 317.529 20.828 317.025 21.152C316.521 21.464 316.119 21.89 315.819 22.43C315.531 22.97 315.387 23.588 315.387 24.284C315.387 24.98 315.531 25.604 315.819 26.156C316.119 26.696 316.521 27.122 317.025 27.434C317.529 27.746 318.093 27.902 318.717 27.902C319.077 27.902 319.431 27.848 319.779 27.74C320.127 27.62 320.457 27.452 320.769 27.236C321.081 27.02 321.369 26.75 321.633 26.426L322.425 27.398C322.017 27.938 321.471 28.37 320.787 28.694C320.103 29.018 319.395 29.18 318.663 29.18ZM325.383 25.976L325.329 24.41L330.243 19.604H332.061L325.383 25.976ZM324.177 29V15.68H325.527V29H324.177ZM330.621 29L326.661 24.41L327.615 23.474L332.385 29H330.621ZM334.601 29.18C334.277 29.18 334.025 29.084 333.845 28.892C333.677 28.7 333.593 28.424 333.593 28.064C333.593 27.74 333.683 27.476 333.863 27.272C334.055 27.056 334.301 26.948 334.601 26.948C334.925 26.948 335.171 27.05 335.339 27.254C335.519 27.446 335.609 27.716 335.609 28.064C335.609 28.4 335.513 28.67 335.321 28.874C335.141 29.078 334.901 29.18 334.601 29.18Z" fill="white"/>
</svg>
