<svg width="138" height="114" viewBox="0 0 138 114" fill="none" xmlns="http://www.w3.org/2000/svg">
<path d="M4.74602 45.5L16.226 20.14L17.186 22.1H2.86602V17.42H20.506L21.106 20.34L10.146 45.5H4.74602ZM35.102 45.9C32.8353 45.9 30.8886 45.3267 29.262 44.18C27.662 43.0067 26.422 41.3533 25.542 39.22C24.6886 37.06 24.262 34.4867 24.262 31.5C24.262 28.5133 24.6886 25.9533 25.542 23.82C26.422 21.66 27.662 20.0067 29.262 18.86C30.8886 17.6867 32.8353 17.1 35.102 17.1C37.3686 17.1 39.3153 17.6867 40.942 18.86C42.5686 20.0067 43.8086 21.66 44.662 23.82C45.542 25.9533 45.982 28.5133 45.982 31.5C45.982 34.4867 45.542 37.06 44.662 39.22C43.8086 41.3533 42.5686 43.0067 40.942 44.18C39.3153 45.3267 37.3686 45.9 35.102 45.9ZM35.102 41.34C36.9686 41.34 38.4086 40.4867 39.422 38.78C40.462 37.0467 40.982 34.62 40.982 31.5C40.982 28.3533 40.462 25.9133 39.422 24.18C38.4086 22.4467 36.9686 21.58 35.102 21.58C33.2353 21.58 31.782 22.4467 30.742 24.18C29.7286 25.9133 29.222 28.3533 29.222 31.5C29.222 34.62 29.7286 37.0467 30.742 38.78C31.782 40.4867 33.2353 41.34 35.102 41.34ZM53.4963 45.5L72.0163 17.5H76.7763L58.0563 45.5H53.4963ZM55.7763 32.34C54.523 32.34 53.403 32.0067 52.4163 31.34C51.4563 30.6733 50.6963 29.7667 50.1363 28.62C49.603 27.4733 49.3363 26.1667 49.3363 24.7C49.3363 23.2067 49.603 21.8867 50.1363 20.74C50.6963 19.5667 51.4563 18.6467 52.4163 17.98C53.403 17.3133 54.5363 16.98 55.8163 16.98C57.0697 16.98 58.1763 17.3133 59.1363 17.98C60.123 18.6467 60.883 19.5667 61.4163 20.74C61.9763 21.8867 62.2563 23.2067 62.2563 24.7C62.2563 26.14 61.9763 27.4467 61.4163 28.62C60.8563 29.7667 60.083 30.6733 59.0963 31.34C58.1097 32.0067 57.003 32.34 55.7763 32.34ZM55.8163 28.94C56.323 28.94 56.763 28.7667 57.1363 28.42C57.5097 28.0733 57.803 27.5933 58.0163 26.98C58.2297 26.34 58.3363 25.58 58.3363 24.7C58.3363 23.82 58.2297 23.06 58.0163 22.42C57.803 21.78 57.5097 21.2867 57.1363 20.94C56.763 20.5933 56.3097 20.42 55.7763 20.42C55.2697 20.42 54.8163 20.6067 54.4163 20.98C54.043 21.3267 53.7497 21.82 53.5363 22.46C53.323 23.0733 53.2163 23.82 53.2163 24.7C53.2163 25.58 53.3097 26.34 53.4963 26.98C53.7097 27.5933 54.0163 28.0733 54.4163 28.42C54.8163 28.7667 55.283 28.94 55.8163 28.94ZM74.7763 45.86C73.523 45.86 72.403 45.5267 71.4163 44.86C70.4563 44.1933 69.6963 43.2867 69.1363 42.14C68.5763 40.9933 68.2963 39.6867 68.2963 38.22C68.2963 36.7267 68.563 35.4067 69.0963 34.26C69.6563 33.0867 70.4297 32.1667 71.4163 31.5C72.403 30.8333 73.523 30.5 74.7763 30.5C76.0563 30.5 77.1763 30.8333 78.1363 31.5C79.0963 32.1667 79.843 33.0867 80.3763 34.26C80.9363 35.4067 81.2163 36.7267 81.2163 38.22C81.2163 39.66 80.9363 40.9667 80.3763 42.14C79.8163 43.2867 79.043 44.1933 78.0563 44.86C77.0963 45.5267 76.003 45.86 74.7763 45.86ZM74.7763 42.5C75.283 42.5 75.723 42.3267 76.0963 41.98C76.4963 41.6067 76.803 41.1133 77.0163 40.5C77.2297 39.86 77.3363 39.1 77.3363 38.22C77.3363 37.3667 77.2297 36.62 77.0163 35.98C76.803 35.34 76.4963 34.8467 76.0963 34.5C75.723 34.1267 75.283 33.94 74.7763 33.94C74.243 33.94 73.7763 34.1133 73.3763 34.46C73.003 34.8067 72.7097 35.3133 72.4963 35.98C72.283 36.62 72.1763 37.3667 72.1763 38.22C72.1763 39.1 72.283 39.86 72.4963 40.5C72.7097 41.1133 73.003 41.6067 73.3763 41.98C73.7763 42.3267 74.243 42.5 74.7763 42.5Z" fill="#CAFF33"/>
<path d="M2.31402 83.5V72.3H6.53802C7.30602 72.3 8.00468 72.4387 8.63402 72.716C9.27402 72.9827 9.82868 73.3667 10.298 73.868C10.7673 74.3693 11.13 74.9613 11.386 75.644C11.642 76.3267 11.77 77.0787 11.77 77.9C11.77 78.7213 11.642 79.4787 11.386 80.172C11.13 80.8547 10.7673 81.4467 10.298 81.948C9.83935 82.4387 9.29002 82.8227 8.65002 83.1C8.01002 83.3667 7.30602 83.5 6.53802 83.5H2.31402ZM3.56202 82.508L3.41802 82.284H6.45802C7.04468 82.284 7.58335 82.1827 8.07402 81.98C8.57535 81.7667 9.00202 81.468 9.35402 81.084C9.71668 80.6893 9.99402 80.2253 10.186 79.692C10.3887 79.1587 10.49 78.5613 10.49 77.9C10.49 77.2387 10.3887 76.6413 10.186 76.108C9.99402 75.5747 9.71668 75.116 9.35402 74.732C8.99135 74.3373 8.56468 74.0387 8.07402 73.836C7.58335 73.6227 7.04468 73.516 6.45802 73.516H3.37002L3.56202 73.324V82.508ZM13.7246 83.5V75.148H14.9246L14.9566 77.372L14.8286 77.068C14.946 76.6947 15.1326 76.348 15.3886 76.028C15.6553 75.708 15.97 75.452 16.3326 75.26C16.6953 75.068 17.0953 74.972 17.5326 74.972C17.714 74.972 17.8846 74.988 18.0446 75.02C18.2046 75.0413 18.338 75.0733 18.4446 75.116L18.1086 76.46C17.97 76.396 17.826 76.3533 17.6766 76.332C17.538 76.3 17.4046 76.284 17.2766 76.284C16.914 76.284 16.5886 76.348 16.3006 76.476C16.0126 76.604 15.7673 76.7853 15.5646 77.02C15.362 77.244 15.2073 77.5053 15.1006 77.804C14.994 78.1027 14.9406 78.4227 14.9406 78.764V83.5H13.7246ZM20.0134 83.5V75.148H21.2134V83.5H20.0134ZM20.6054 73.34C20.3067 73.34 20.0774 73.2653 19.9174 73.116C19.7681 72.956 19.6934 72.7427 19.6934 72.476C19.6934 72.2093 19.7734 71.996 19.9334 71.836C20.0934 71.676 20.3174 71.596 20.6054 71.596C20.8934 71.596 21.1174 71.676 21.2774 71.836C21.4374 71.9853 21.5174 72.1987 21.5174 72.476C21.5174 72.732 21.4374 72.94 21.2774 73.1C21.1174 73.26 20.8934 73.34 20.6054 73.34ZM26.426 83.5L22.906 75.148H24.234L27.018 81.98L26.698 82.156L29.754 75.148H31.034L27.29 83.5H26.426ZM35.889 83.66C35.057 83.66 34.3157 83.4787 33.665 83.116C33.025 82.7533 32.5237 82.2467 32.161 81.596C31.7983 80.9453 31.617 80.1987 31.617 79.356C31.617 78.7053 31.7183 78.1187 31.921 77.596C32.1237 77.0627 32.4063 76.5987 32.769 76.204C33.1423 75.8093 33.585 75.5053 34.097 75.292C34.609 75.068 35.1637 74.956 35.761 74.956C36.3263 74.956 36.8383 75.0573 37.297 75.26C37.7663 75.4627 38.1663 75.7453 38.497 76.108C38.8383 76.46 39.0943 76.8813 39.265 77.372C39.4357 77.8627 39.5103 78.4013 39.489 78.988L39.473 79.548H32.513L32.337 78.54H38.561L38.273 78.812V78.428C38.2517 78.044 38.1397 77.676 37.937 77.324C37.7343 76.9613 37.4463 76.668 37.073 76.444C36.7103 76.22 36.273 76.108 35.761 76.108C35.1637 76.108 34.6463 76.2307 34.209 76.476C33.7717 76.7107 33.4357 77.0627 33.201 77.532C32.9663 78.0013 32.849 78.5827 32.849 79.276C32.849 79.9373 32.977 80.5133 33.233 81.004C33.489 81.484 33.8517 81.8573 34.321 82.124C34.801 82.3907 35.377 82.524 36.049 82.524C36.4437 82.524 36.833 82.46 37.217 82.332C37.6117 82.1933 38.0437 81.9267 38.513 81.532L39.137 82.396C38.8917 82.6413 38.5983 82.86 38.257 83.052C37.9157 83.2333 37.5423 83.3827 37.137 83.5C36.7317 83.6067 36.3157 83.66 35.889 83.66ZM46.1578 83.5V72.3H50.7018C51.3524 72.3 51.9124 72.4173 52.3818 72.652C52.8618 72.876 53.2298 73.2013 53.4858 73.628C53.7418 74.044 53.8698 74.54 53.8698 75.116C53.8698 75.7347 53.6938 76.268 53.3418 76.716C52.9898 77.1533 52.5098 77.4573 51.9018 77.628L51.8698 77.324C52.3924 77.42 52.8458 77.6067 53.2298 77.884C53.6138 78.1507 53.9124 78.4813 54.1258 78.876C54.3498 79.2707 54.4618 79.7133 54.4618 80.204C54.4618 80.7053 54.3764 81.1587 54.2058 81.564C54.0351 81.9693 53.7898 82.316 53.4698 82.604C53.1604 82.892 52.7818 83.116 52.3338 83.276C51.8964 83.4253 51.4058 83.5 50.8618 83.5H46.1578ZM47.4058 82.284H50.7658C51.2458 82.284 51.6618 82.204 52.0138 82.044C52.3764 81.8733 52.6538 81.6333 52.8458 81.324C53.0484 81.0147 53.1498 80.6573 53.1498 80.252C53.1498 79.868 53.0431 79.532 52.8298 79.244C52.6271 78.956 52.3391 78.732 51.9658 78.572C51.6031 78.412 51.1764 78.332 50.6858 78.332H47.4058V82.284ZM47.4058 77.116H50.6058C50.9898 77.116 51.3311 77.0413 51.6298 76.892C51.9284 76.732 52.1631 76.5187 52.3338 76.252C52.5044 75.9747 52.5898 75.6653 52.5898 75.324C52.5898 74.78 52.4031 74.3427 52.0298 74.012C51.6671 73.6813 51.1551 73.516 50.4938 73.516H47.4058V77.116ZM59.3721 83.66C58.7321 83.66 58.1881 83.532 57.7401 83.276C57.3028 83.0093 56.9668 82.6253 56.7321 82.124C56.5081 81.6227 56.3961 80.9987 56.3961 80.252V75.148H57.6121V80.012C57.6121 80.5773 57.6868 81.052 57.8361 81.436C57.9961 81.8093 58.2308 82.092 58.5401 82.284C58.8601 82.476 59.2495 82.572 59.7081 82.572C60.0601 82.572 60.3855 82.5133 60.6841 82.396C60.9828 82.268 61.2441 82.0973 61.4681 81.884C61.6921 81.6707 61.8681 81.42 61.9961 81.132C62.1241 80.844 62.1881 80.54 62.1881 80.22V75.148H63.3881V83.5H62.2041L62.1561 81.74L62.3481 81.644C62.2201 82.0173 62.0068 82.3587 61.7081 82.668C61.4095 82.9667 61.0521 83.2067 60.6361 83.388C60.2308 83.5693 59.8095 83.66 59.3721 83.66ZM68.4606 83.66C67.746 83.66 67.106 83.5267 66.5406 83.26C65.9753 82.9933 65.5273 82.6413 65.1966 82.204L66.0446 81.468C66.354 81.8413 66.7166 82.124 67.1326 82.316C67.5593 82.508 68.034 82.604 68.5566 82.604C68.8233 82.604 69.0633 82.5773 69.2766 82.524C69.49 82.46 69.6766 82.3693 69.8366 82.252C69.9966 82.1347 70.1193 81.996 70.2046 81.836C70.29 81.676 70.3326 81.5 70.3326 81.308C70.3326 80.956 70.178 80.6627 69.8686 80.428C69.73 80.332 69.5326 80.236 69.2766 80.14C69.0206 80.0333 68.7113 79.932 68.3486 79.836C67.7513 79.6653 67.2553 79.4947 66.8606 79.324C66.466 79.1427 66.1566 78.9347 65.9326 78.7C65.7726 78.508 65.65 78.3 65.5646 78.076C65.49 77.852 65.4526 77.6067 65.4526 77.34C65.4526 76.9987 65.522 76.684 65.6606 76.396C65.81 76.108 66.0126 75.8573 66.2686 75.644C66.5353 75.42 66.8446 75.2547 67.1966 75.148C67.5593 75.0307 67.9486 74.972 68.3646 74.972C68.7593 74.972 69.1486 75.0253 69.5326 75.132C69.9166 75.2387 70.274 75.3933 70.6046 75.596C70.9353 75.7987 71.218 76.0387 71.4526 76.316L70.7166 77.116C70.514 76.9027 70.29 76.7107 70.0446 76.54C69.7993 76.3693 69.538 76.236 69.2606 76.14C68.994 76.044 68.7166 75.996 68.4286 75.996C68.1726 75.996 67.9326 76.028 67.7086 76.092C67.4953 76.156 67.3086 76.2467 67.1486 76.364C66.9993 76.4707 66.882 76.604 66.7966 76.764C66.722 76.924 66.6846 77.1 66.6846 77.292C66.6846 77.452 66.7166 77.596 66.7806 77.724C66.8446 77.852 66.9353 77.964 67.0526 78.06C67.202 78.1773 67.41 78.2893 67.6766 78.396C67.954 78.492 68.2953 78.5933 68.7006 78.7C69.17 78.828 69.5646 78.9613 69.8846 79.1C70.2153 79.228 70.4873 79.3827 70.7006 79.564C70.9886 79.7773 71.1913 80.0227 71.3086 80.3C71.4366 80.5773 71.5006 80.892 71.5006 81.244C71.5006 81.7133 71.3673 82.1293 71.1006 82.492C70.8446 82.8547 70.4873 83.1427 70.0286 83.356C69.57 83.5587 69.0473 83.66 68.4606 83.66ZM73.7009 83.5V75.148H74.9009V83.5H73.7009ZM74.2929 73.34C73.9942 73.34 73.7649 73.2653 73.6049 73.116C73.4556 72.956 73.3809 72.7427 73.3809 72.476C73.3809 72.2093 73.4609 71.996 73.6209 71.836C73.7809 71.676 74.0049 71.596 74.2929 71.596C74.5809 71.596 74.8049 71.676 74.9649 71.836C75.1249 71.9853 75.2049 72.1987 75.2049 72.476C75.2049 72.732 75.1249 72.94 74.9649 73.1C74.8049 73.26 74.5809 73.34 74.2929 73.34ZM77.5215 83.5V75.148H78.7055L78.7535 76.892L78.5615 76.972C78.6682 76.6093 78.8762 76.2787 79.1855 75.98C79.4948 75.6813 79.8628 75.4413 80.2895 75.26C80.7268 75.068 81.1748 74.972 81.6335 74.972C82.2522 74.972 82.7695 75.0947 83.1855 75.34C83.6015 75.5853 83.9162 75.964 84.1295 76.476C84.3428 76.988 84.4495 77.6387 84.4495 78.428V83.5H83.2335V78.492C83.2335 77.9373 83.1588 77.484 83.0095 77.132C82.8708 76.7693 82.6522 76.5027 82.3535 76.332C82.0548 76.1613 81.6868 76.0813 81.2495 76.092C80.8868 76.092 80.5508 76.156 80.2415 76.284C79.9322 76.4013 79.6655 76.5667 79.4415 76.78C79.2175 76.9933 79.0415 77.2387 78.9135 77.516C78.7855 77.7933 78.7215 78.092 78.7215 78.412V83.5H78.1295C78.0548 83.5 77.9695 83.5 77.8735 83.5C77.7775 83.5 77.6602 83.5 77.5215 83.5ZM90.4203 83.66C89.5883 83.66 88.8469 83.4787 88.1963 83.116C87.5563 82.7533 87.0549 82.2467 86.6923 81.596C86.3296 80.9453 86.1483 80.1987 86.1483 79.356C86.1483 78.7053 86.2496 78.1187 86.4523 77.596C86.6549 77.0627 86.9376 76.5987 87.3003 76.204C87.6736 75.8093 88.1163 75.5053 88.6283 75.292C89.1403 75.068 89.6949 74.956 90.2923 74.956C90.8576 74.956 91.3696 75.0573 91.8283 75.26C92.2976 75.4627 92.6976 75.7453 93.0283 76.108C93.3696 76.46 93.6256 76.8813 93.7963 77.372C93.9669 77.8627 94.0416 78.4013 94.0203 78.988L94.0043 79.548H87.0443L86.8683 78.54H93.0923L92.8043 78.812V78.428C92.7829 78.044 92.6709 77.676 92.4683 77.324C92.2656 76.9613 91.9776 76.668 91.6043 76.444C91.2416 76.22 90.8043 76.108 90.2923 76.108C89.6949 76.108 89.1776 76.2307 88.7403 76.476C88.3029 76.7107 87.9669 77.0627 87.7323 77.532C87.4976 78.0013 87.3803 78.5827 87.3803 79.276C87.3803 79.9373 87.5083 80.5133 87.7643 81.004C88.0203 81.484 88.3829 81.8573 88.8523 82.124C89.3323 82.3907 89.9083 82.524 90.5803 82.524C90.9749 82.524 91.3643 82.46 91.7483 82.332C92.1429 82.1933 92.5749 81.9267 93.0443 81.532L93.6683 82.396C93.4229 82.6413 93.1296 82.86 92.7883 83.052C92.4469 83.2333 92.0736 83.3827 91.6683 83.5C91.2629 83.6067 90.8469 83.66 90.4203 83.66ZM98.4606 83.66C97.746 83.66 97.106 83.5267 96.5406 83.26C95.9753 82.9933 95.5273 82.6413 95.1966 82.204L96.0446 81.468C96.354 81.8413 96.7166 82.124 97.1326 82.316C97.5593 82.508 98.034 82.604 98.5566 82.604C98.8233 82.604 99.0633 82.5773 99.2766 82.524C99.49 82.46 99.6766 82.3693 99.8366 82.252C99.9966 82.1347 100.119 81.996 100.205 81.836C100.29 81.676 100.333 81.5 100.333 81.308C100.333 80.956 100.178 80.6627 99.8686 80.428C99.73 80.332 99.5326 80.236 99.2766 80.14C99.0206 80.0333 98.7113 79.932 98.3486 79.836C97.7513 79.6653 97.2553 79.4947 96.8606 79.324C96.466 79.1427 96.1566 78.9347 95.9326 78.7C95.7726 78.508 95.65 78.3 95.5646 78.076C95.49 77.852 95.4526 77.6067 95.4526 77.34C95.4526 76.9987 95.522 76.684 95.6606 76.396C95.81 76.108 96.0126 75.8573 96.2686 75.644C96.5353 75.42 96.8446 75.2547 97.1966 75.148C97.5593 75.0307 97.9486 74.972 98.3646 74.972C98.7593 74.972 99.1486 75.0253 99.5326 75.132C99.9166 75.2387 100.274 75.3933 100.605 75.596C100.935 75.7987 101.218 76.0387 101.453 76.316L100.717 77.116C100.514 76.9027 100.29 76.7107 100.045 76.54C99.7993 76.3693 99.538 76.236 99.2606 76.14C98.994 76.044 98.7166 75.996 98.4286 75.996C98.1726 75.996 97.9326 76.028 97.7086 76.092C97.4953 76.156 97.3086 76.2467 97.1486 76.364C96.9993 76.4707 96.882 76.604 96.7966 76.764C96.722 76.924 96.6846 77.1 96.6846 77.292C96.6846 77.452 96.7166 77.596 96.7806 77.724C96.8446 77.852 96.9353 77.964 97.0526 78.06C97.202 78.1773 97.41 78.2893 97.6766 78.396C97.954 78.492 98.2953 78.5933 98.7006 78.7C99.17 78.828 99.5646 78.9613 99.8846 79.1C100.215 79.228 100.487 79.3827 100.701 79.564C100.989 79.7773 101.191 80.0227 101.309 80.3C101.437 80.5773 101.501 80.892 101.501 81.244C101.501 81.7133 101.367 82.1293 101.101 82.492C100.845 82.8547 100.487 83.1427 100.029 83.356C99.57 83.5587 99.0473 83.66 98.4606 83.66ZM106.117 83.66C105.402 83.66 104.762 83.5267 104.197 83.26C103.632 82.9933 103.184 82.6413 102.853 82.204L103.701 81.468C104.01 81.8413 104.373 82.124 104.789 82.316C105.216 82.508 105.69 82.604 106.213 82.604C106.48 82.604 106.72 82.5773 106.933 82.524C107.146 82.46 107.333 82.3693 107.493 82.252C107.653 82.1347 107.776 81.996 107.861 81.836C107.946 81.676 107.989 81.5 107.989 81.308C107.989 80.956 107.834 80.6627 107.525 80.428C107.386 80.332 107.189 80.236 106.933 80.14C106.677 80.0333 106.368 79.932 106.005 79.836C105.408 79.6653 104.912 79.4947 104.517 79.324C104.122 79.1427 103.813 78.9347 103.589 78.7C103.429 78.508 103.306 78.3 103.221 78.076C103.146 77.852 103.109 77.6067 103.109 77.34C103.109 76.9987 103.178 76.684 103.317 76.396C103.466 76.108 103.669 75.8573 103.925 75.644C104.192 75.42 104.501 75.2547 104.853 75.148C105.216 75.0307 105.605 74.972 106.021 74.972C106.416 74.972 106.805 75.0253 107.189 75.132C107.573 75.2387 107.93 75.3933 108.261 75.596C108.592 75.7987 108.874 76.0387 109.109 76.316L108.373 77.116C108.17 76.9027 107.946 76.7107 107.701 76.54C107.456 76.3693 107.194 76.236 106.917 76.14C106.65 76.044 106.373 75.996 106.085 75.996C105.829 75.996 105.589 76.028 105.365 76.092C105.152 76.156 104.965 76.2467 104.805 76.364C104.656 76.4707 104.538 76.604 104.453 76.764C104.378 76.924 104.341 77.1 104.341 77.292C104.341 77.452 104.373 77.596 104.437 77.724C104.501 77.852 104.592 77.964 104.709 78.06C104.858 78.1773 105.066 78.2893 105.333 78.396C105.61 78.492 105.952 78.5933 106.357 78.7C106.826 78.828 107.221 78.9613 107.541 79.1C107.872 79.228 108.144 79.3827 108.357 79.564C108.645 79.7773 108.848 80.0227 108.965 80.3C109.093 80.5773 109.157 80.892 109.157 81.244C109.157 81.7133 109.024 82.1293 108.757 82.492C108.501 82.8547 108.144 83.1427 107.685 83.356C107.226 83.5587 106.704 83.66 106.117 83.66ZM2.31402 107.5V96.3H9.09802V97.516H3.56202V106.284H9.06602V107.5H2.31402ZM2.89002 102.348V101.132H8.20202V102.348H2.89002ZM17.0921 107.5L14.1961 103.772L14.0521 103.596L10.5801 99.148H12.1001L14.9481 102.812L15.1081 103.02L18.5961 107.5H17.0921ZM10.5161 107.5L13.9241 103.1L14.6441 103.964L11.9561 107.5H10.5161ZM15.1881 103.404L14.5001 102.556L16.9321 99.148H18.3881L15.1881 103.404ZM20.0215 111.02V99.148H21.2215L21.2535 101.18L21.0295 101.212C21.1255 100.807 21.3335 100.439 21.6535 100.108C21.9735 99.7667 22.3628 99.4947 22.8215 99.292C23.2802 99.0893 23.7655 98.988 24.2775 98.988C25.0242 98.988 25.6908 99.1747 26.2775 99.548C26.8748 99.9213 27.3495 100.433 27.7015 101.084C28.0535 101.735 28.2295 102.481 28.2295 103.324C28.2295 104.156 28.0588 104.897 27.7175 105.548C27.3762 106.199 26.9068 106.716 26.3095 107.1C25.7122 107.473 25.0402 107.66 24.2935 107.66C23.7708 107.66 23.2748 107.553 22.8055 107.34C22.3362 107.127 21.9362 106.849 21.6055 106.508C21.2748 106.156 21.0562 105.777 20.9495 105.372H21.2375V111.02H20.0215ZM24.1015 106.508C24.6668 106.508 25.1682 106.369 25.6055 106.092C26.0428 105.815 26.3895 105.436 26.6455 104.956C26.9015 104.476 27.0295 103.932 27.0295 103.324C27.0295 102.705 26.9015 102.156 26.6455 101.676C26.3895 101.196 26.0428 100.817 25.6055 100.54C25.1682 100.263 24.6668 100.124 24.1015 100.124C23.5362 100.124 23.0295 100.263 22.5815 100.54C22.1442 100.807 21.7975 101.18 21.5415 101.66C21.2855 102.14 21.1575 102.689 21.1575 103.308C21.1575 103.927 21.2855 104.476 21.5415 104.956C21.7975 105.436 22.1442 105.815 22.5815 106.092C23.0295 106.369 23.5362 106.508 24.1015 106.508ZM33.2386 107.66C32.5133 107.66 31.8573 107.473 31.2706 107.1C30.684 106.716 30.22 106.199 29.8786 105.548C29.5373 104.887 29.3666 104.14 29.3666 103.308C29.3666 102.465 29.5426 101.719 29.8946 101.068C30.2466 100.417 30.716 99.9053 31.3026 99.532C31.9 99.1587 32.5666 98.972 33.3026 98.972C33.74 98.972 34.1453 99.036 34.5186 99.164C34.892 99.292 35.2226 99.4733 35.5106 99.708C35.8093 99.932 36.0546 100.199 36.2466 100.508C36.4493 100.807 36.588 101.132 36.6626 101.484L36.3106 101.308L36.3586 99.148H37.5586V107.5H36.3426V105.452L36.6626 105.244C36.588 105.564 36.444 105.873 36.2306 106.172C36.0173 106.46 35.756 106.716 35.4466 106.94C35.148 107.164 34.8066 107.34 34.4226 107.468C34.0493 107.596 33.6546 107.66 33.2386 107.66ZM33.5106 106.508C34.0653 106.508 34.5613 106.375 34.9986 106.108C35.436 105.831 35.7773 105.452 36.0226 104.972C36.2786 104.481 36.4066 103.927 36.4066 103.308C36.4066 102.689 36.2786 102.14 36.0226 101.66C35.7773 101.18 35.436 100.801 34.9986 100.524C34.5613 100.247 34.0653 100.108 33.5106 100.108C32.9453 100.108 32.444 100.247 32.0066 100.524C31.58 100.801 31.2386 101.18 30.9826 101.66C30.7373 102.14 30.6146 102.689 30.6146 103.308C30.6146 103.916 30.7373 104.465 30.9826 104.956C31.228 105.436 31.5693 105.815 32.0066 106.092C32.444 106.369 32.9453 106.508 33.5106 106.508ZM39.8965 107.5V99.148H41.0805L41.1285 100.892L40.9365 100.972C41.0432 100.609 41.2512 100.279 41.5605 99.98C41.8698 99.6813 42.2378 99.4413 42.6645 99.26C43.1018 99.068 43.5498 98.972 44.0085 98.972C44.6272 98.972 45.1445 99.0947 45.5605 99.34C45.9765 99.5853 46.2912 99.964 46.5045 100.476C46.7178 100.988 46.8245 101.639 46.8245 102.428V107.5H45.6085V102.492C45.6085 101.937 45.5338 101.484 45.3845 101.132C45.2458 100.769 45.0272 100.503 44.7285 100.332C44.4298 100.161 44.0618 100.081 43.6245 100.092C43.2618 100.092 42.9258 100.156 42.6165 100.284C42.3072 100.401 42.0405 100.567 41.8165 100.78C41.5925 100.993 41.4165 101.239 41.2885 101.516C41.1605 101.793 41.0965 102.092 41.0965 102.412V107.5H40.5045C40.4298 107.5 40.3445 107.5 40.2485 107.5C40.1525 107.5 40.0352 107.5 39.8965 107.5ZM51.8513 107.66C51.1366 107.66 50.4966 107.527 49.9313 107.26C49.3659 106.993 48.9179 106.641 48.5873 106.204L49.4353 105.468C49.7446 105.841 50.1073 106.124 50.5233 106.316C50.9499 106.508 51.4246 106.604 51.9473 106.604C52.2139 106.604 52.4539 106.577 52.6673 106.524C52.8806 106.46 53.0673 106.369 53.2273 106.252C53.3873 106.135 53.5099 105.996 53.5953 105.836C53.6806 105.676 53.7233 105.5 53.7233 105.308C53.7233 104.956 53.5686 104.663 53.2593 104.428C53.1206 104.332 52.9233 104.236 52.6673 104.14C52.4113 104.033 52.1019 103.932 51.7393 103.836C51.1419 103.665 50.6459 103.495 50.2513 103.324C49.8566 103.143 49.5473 102.935 49.3233 102.7C49.1633 102.508 49.0406 102.3 48.9553 102.076C48.8806 101.852 48.8433 101.607 48.8433 101.34C48.8433 100.999 48.9126 100.684 49.0513 100.396C49.2006 100.108 49.4033 99.8573 49.6593 99.644C49.9259 99.42 50.2353 99.2547 50.5873 99.148C50.9499 99.0307 51.3393 98.972 51.7553 98.972C52.1499 98.972 52.5393 99.0253 52.9233 99.132C53.3073 99.2387 53.6646 99.3933 53.9953 99.596C54.3259 99.7987 54.6086 100.039 54.8433 100.316L54.1073 101.116C53.9046 100.903 53.6806 100.711 53.4353 100.54C53.1899 100.369 52.9286 100.236 52.6513 100.14C52.3846 100.044 52.1073 99.996 51.8193 99.996C51.5633 99.996 51.3233 100.028 51.0993 100.092C50.8859 100.156 50.6993 100.247 50.5393 100.364C50.3899 100.471 50.2726 100.604 50.1873 100.764C50.1126 100.924 50.0753 101.1 50.0753 101.292C50.0753 101.452 50.1073 101.596 50.1713 101.724C50.2353 101.852 50.3259 101.964 50.4433 102.06C50.5926 102.177 50.8006 102.289 51.0673 102.396C51.3446 102.492 51.6859 102.593 52.0913 102.7C52.5606 102.828 52.9553 102.961 53.2753 103.1C53.6059 103.228 53.8779 103.383 54.0913 103.564C54.3793 103.777 54.5819 104.023 54.6993 104.3C54.8273 104.577 54.8913 104.892 54.8913 105.244C54.8913 105.713 54.7579 106.129 54.4913 106.492C54.2353 106.855 53.8779 107.143 53.4193 107.356C52.9606 107.559 52.4379 107.66 51.8513 107.66ZM57.0915 107.5V99.148H58.2915V107.5H57.0915ZM57.6835 97.34C57.3848 97.34 57.1555 97.2653 56.9955 97.116C56.8462 96.956 56.7715 96.7427 56.7715 96.476C56.7715 96.2093 56.8515 95.996 57.0115 95.836C57.1715 95.676 57.3955 95.596 57.6835 95.596C57.9715 95.596 58.1955 95.676 58.3555 95.836C58.5155 95.9853 58.5955 96.1987 58.5955 96.476C58.5955 96.732 58.5155 96.94 58.3555 97.1C58.1955 97.26 57.9715 97.34 57.6835 97.34ZM64.6081 107.66C63.7761 107.66 63.0348 107.473 62.3841 107.1C61.7441 106.727 61.2375 106.209 60.8641 105.548C60.5015 104.887 60.3201 104.135 60.3201 103.292C60.3201 102.46 60.5015 101.719 60.8641 101.068C61.2375 100.417 61.7441 99.9053 62.3841 99.532C63.0348 99.1587 63.7761 98.972 64.6081 98.972C65.4295 98.972 66.1601 99.1587 66.8001 99.532C67.4508 99.9053 67.9575 100.417 68.3201 101.068C68.6935 101.719 68.8801 102.46 68.8801 103.292C68.8801 104.135 68.6935 104.887 68.3201 105.548C67.9575 106.209 67.4508 106.727 66.8001 107.1C66.1601 107.473 65.4295 107.66 64.6081 107.66ZM64.6081 106.524C65.1948 106.524 65.7175 106.385 66.1761 106.108C66.6348 105.82 66.9921 105.436 67.2481 104.956C67.5041 104.465 67.6321 103.911 67.6321 103.292C67.6321 102.673 67.5041 102.124 67.2481 101.644C66.9921 101.164 66.6348 100.791 66.1761 100.524C65.7175 100.247 65.1948 100.108 64.6081 100.108C64.0215 100.108 63.4935 100.247 63.0241 100.524C62.5655 100.791 62.2028 101.169 61.9361 101.66C61.6801 102.14 61.5575 102.684 61.5681 103.292C61.5575 103.911 61.6801 104.465 61.9361 104.956C62.2028 105.436 62.5655 105.82 63.0241 106.108C63.4935 106.385 64.0215 106.524 64.6081 106.524ZM70.6309 107.5V99.148H71.8149L71.8629 100.892L71.6709 100.972C71.7776 100.609 71.9856 100.279 72.2949 99.98C72.6042 99.6813 72.9722 99.4413 73.3989 99.26C73.8362 99.068 74.2842 98.972 74.7429 98.972C75.3616 98.972 75.8789 99.0947 76.2949 99.34C76.7109 99.5853 77.0256 99.964 77.2389 100.476C77.4522 100.988 77.5589 101.639 77.5589 102.428V107.5H76.3429V102.492C76.3429 101.937 76.2682 101.484 76.1189 101.132C75.9802 100.769 75.7616 100.503 75.4629 100.332C75.1642 100.161 74.7962 100.081 74.3589 100.092C73.9962 100.092 73.6602 100.156 73.3509 100.284C73.0416 100.401 72.7749 100.567 72.5509 100.78C72.3269 100.993 72.1509 101.239 72.0229 101.516C71.8949 101.793 71.8309 102.092 71.8309 102.412V107.5H71.2389C71.1642 107.5 71.0789 107.5 70.9829 107.5C70.8869 107.5 70.7696 107.5 70.6309 107.5Z" fill="#B3B3B3"/>
</svg>
