<svg width="137" height="112" viewBox="0 0 137 112" fill="none" xmlns="http://www.w3.org/2000/svg">
<path d="M4.08 45.5L15.56 20.14L16.52 22.1H2.2V17.42H19.84L20.44 20.34L9.48 45.5H4.08ZM32.7347 45.62C30.948 45.62 29.308 45.26 27.8147 44.54C26.348 43.7933 25.1747 42.8067 24.2947 41.58C23.4147 40.3267 22.9747 38.94 22.9747 37.42C22.9747 36.5133 23.0947 35.6733 23.3347 34.9C23.6014 34.1267 23.9747 33.4333 24.4547 32.82C24.9614 32.2067 25.5614 31.66 26.2547 31.18C26.9747 30.6733 27.788 30.2333 28.6947 29.86L28.3747 30.98C27.6814 30.6867 27.0414 30.34 26.4547 29.94C25.8947 29.54 25.4014 29.0867 24.9747 28.58C24.5747 28.0467 24.268 27.4867 24.0547 26.9C23.8414 26.2867 23.7347 25.6467 23.7347 24.98C23.7347 23.54 24.1347 22.2467 24.9347 21.1C25.7614 19.9533 26.8547 19.0467 28.2147 18.38C29.5747 17.6867 31.0814 17.34 32.7347 17.34C34.4147 17.34 35.9347 17.6867 37.2947 18.38C38.6547 19.0467 39.7347 19.9533 40.5347 21.1C41.3614 22.2467 41.7747 23.54 41.7747 24.98C41.7747 25.6467 41.668 26.2867 41.4547 26.9C41.2414 27.4867 40.9347 28.0333 40.5347 28.54C40.1614 29.02 39.6814 29.4733 39.0947 29.9C38.508 30.3 37.828 30.66 37.0547 30.98L36.8547 30.02C37.708 30.3133 38.4814 30.7 39.1747 31.18C39.868 31.66 40.468 32.22 40.9747 32.86C41.4814 33.5 41.868 34.2067 42.1347 34.98C42.428 35.7533 42.5747 36.5667 42.5747 37.42C42.5747 38.9667 42.1347 40.3667 41.2547 41.62C40.3747 42.8467 39.188 43.82 37.6947 44.54C36.228 45.26 34.5747 45.62 32.7347 45.62ZM32.7347 41.14C33.6414 41.14 34.4547 40.9667 35.1747 40.62C35.8947 40.2733 36.4547 39.8067 36.8547 39.22C37.2814 38.6333 37.4947 37.9533 37.4947 37.18C37.4947 36.3533 37.2814 35.6333 36.8547 35.02C36.4547 34.38 35.8947 33.8867 35.1747 33.54C34.4547 33.1667 33.6414 32.98 32.7347 32.98C31.8547 32.98 31.0547 33.1667 30.3347 33.54C29.6414 33.8867 29.0814 34.38 28.6547 35.02C28.228 35.6333 28.0147 36.3533 28.0147 37.18C28.0147 37.9267 28.228 38.5933 28.6547 39.18C29.0814 39.7667 29.6414 40.2467 30.3347 40.62C31.0547 40.9667 31.8547 41.14 32.7347 41.14ZM32.7347 28.58C33.5347 28.58 34.2414 28.4333 34.8547 28.14C35.4947 27.8467 35.988 27.4467 36.3347 26.94C36.6814 26.4333 36.8547 25.8467 36.8547 25.18C36.8547 24.4867 36.6814 23.8867 36.3347 23.38C35.988 22.8467 35.4947 22.4333 34.8547 22.14C34.2414 21.82 33.5347 21.66 32.7347 21.66C31.9614 21.66 31.2547 21.82 30.6147 22.14C30.0014 22.4333 29.5214 22.8467 29.1747 23.38C28.828 23.8867 28.6547 24.4867 28.6547 25.18C28.6547 25.8467 28.828 26.4333 29.1747 26.94C29.5214 27.4467 30.0014 27.8467 30.6147 28.14C31.2547 28.4333 31.9614 28.58 32.7347 28.58ZM50.2522 45.5L68.7722 17.5H73.5322L54.8122 45.5H50.2522ZM52.5322 32.34C51.2789 32.34 50.1589 32.0067 49.1722 31.34C48.2122 30.6733 47.4522 29.7667 46.8922 28.62C46.3589 27.4733 46.0922 26.1667 46.0922 24.7C46.0922 23.2067 46.3589 21.8867 46.8922 20.74C47.4522 19.5667 48.2122 18.6467 49.1722 17.98C50.1589 17.3133 51.2922 16.98 52.5722 16.98C53.8255 16.98 54.9322 17.3133 55.8922 17.98C56.8789 18.6467 57.6389 19.5667 58.1722 20.74C58.7322 21.8867 59.0122 23.2067 59.0122 24.7C59.0122 26.14 58.7322 27.4467 58.1722 28.62C57.6122 29.7667 56.8389 30.6733 55.8522 31.34C54.8655 32.0067 53.7589 32.34 52.5322 32.34ZM52.5722 28.94C53.0789 28.94 53.5189 28.7667 53.8922 28.42C54.2655 28.0733 54.5589 27.5933 54.7722 26.98C54.9855 26.34 55.0922 25.58 55.0922 24.7C55.0922 23.82 54.9855 23.06 54.7722 22.42C54.5589 21.78 54.2655 21.2867 53.8922 20.94C53.5189 20.5933 53.0655 20.42 52.5322 20.42C52.0255 20.42 51.5722 20.6067 51.1722 20.98C50.7989 21.3267 50.5055 21.82 50.2922 22.46C50.0789 23.0733 49.9722 23.82 49.9722 24.7C49.9722 25.58 50.0655 26.34 50.2522 26.98C50.4655 27.5933 50.7722 28.0733 51.1722 28.42C51.5722 28.7667 52.0389 28.94 52.5722 28.94ZM71.5322 45.86C70.2789 45.86 69.1589 45.5267 68.1722 44.86C67.2122 44.1933 66.4522 43.2867 65.8922 42.14C65.3322 40.9933 65.0522 39.6867 65.0522 38.22C65.0522 36.7267 65.3189 35.4067 65.8522 34.26C66.4122 33.0867 67.1855 32.1667 68.1722 31.5C69.1589 30.8333 70.2789 30.5 71.5322 30.5C72.8122 30.5 73.9322 30.8333 74.8922 31.5C75.8522 32.1667 76.5989 33.0867 77.1322 34.26C77.6922 35.4067 77.9722 36.7267 77.9722 38.22C77.9722 39.66 77.6922 40.9667 77.1322 42.14C76.5722 43.2867 75.7989 44.1933 74.8122 44.86C73.8522 45.5267 72.7589 45.86 71.5322 45.86ZM71.5322 42.5C72.0389 42.5 72.4789 42.3267 72.8522 41.98C73.2522 41.6067 73.5589 41.1133 73.7722 40.5C73.9855 39.86 74.0922 39.1 74.0922 38.22C74.0922 37.3667 73.9855 36.62 73.7722 35.98C73.5589 35.34 73.2522 34.8467 72.8522 34.5C72.4789 34.1267 72.0389 33.94 71.5322 33.94C70.9989 33.94 70.5322 34.1133 70.1322 34.46C69.7589 34.8067 69.4655 35.3133 69.2522 35.98C69.0389 36.62 68.9322 37.3667 68.9322 38.22C68.9322 39.1 69.0389 39.86 69.2522 40.5C69.4655 41.1133 69.7589 41.6067 70.1322 41.98C70.5322 42.3267 70.9989 42.5 71.5322 42.5Z" fill="#CAFF33"/>
<path d="M4.605 82.65C4.075 82.65 3.575 82.575 3.105 82.425C2.635 82.275 2.205 82.05 1.815 81.75C1.425 81.45 1.08 81.08 0.78 80.64L1.59 79.74C2.06 80.41 2.54 80.88 3.03 81.15C3.53 81.42 4.09 81.555 4.71 81.555C5.16 81.555 5.57 81.48 5.94 81.33C6.31 81.18 6.6 80.97 6.81 80.7C7.02 80.43 7.125 80.12 7.125 79.77C7.125 79.54 7.085 79.335 7.005 79.155C6.935 78.975 6.825 78.815 6.675 78.675C6.525 78.535 6.34 78.41 6.12 78.3C5.9 78.19 5.645 78.09 5.355 78C5.075 77.91 4.76 77.82 4.41 77.73C3.9 77.61 3.45 77.47 3.06 77.31C2.68 77.14 2.355 76.935 2.085 76.695C1.825 76.455 1.625 76.18 1.485 75.87C1.355 75.55 1.29 75.175 1.29 74.745C1.29 74.335 1.375 73.955 1.545 73.605C1.725 73.255 1.97 72.955 2.28 72.705C2.59 72.445 2.955 72.245 3.375 72.105C3.795 71.965 4.245 71.895 4.725 71.895C5.265 71.895 5.745 71.97 6.165 72.12C6.595 72.26 6.975 72.47 7.305 72.75C7.635 73.03 7.92 73.365 8.16 73.755L7.335 74.565C7.125 74.235 6.885 73.95 6.615 73.71C6.355 73.47 6.065 73.29 5.745 73.17C5.435 73.04 5.09 72.975 4.71 72.975C4.27 72.975 3.88 73.05 3.54 73.2C3.21 73.35 2.95 73.56 2.76 73.83C2.57 74.09 2.475 74.39 2.475 74.73C2.475 74.98 2.52 75.205 2.61 75.405C2.7 75.595 2.84 75.765 3.03 75.915C3.23 76.055 3.485 76.185 3.795 76.305C4.115 76.415 4.495 76.52 4.935 76.62C5.455 76.74 5.92 76.885 6.33 77.055C6.75 77.225 7.105 77.43 7.395 77.67C7.695 77.9 7.92 78.17 8.07 78.48C8.23 78.79 8.31 79.145 8.31 79.545C8.31 80.165 8.155 80.71 7.845 81.18C7.535 81.64 7.1 82 6.54 82.26C5.99 82.52 5.345 82.65 4.605 82.65ZM13.671 82.65C12.891 82.65 12.196 82.48 11.586 82.14C10.986 81.8 10.516 81.325 10.176 80.715C9.83598 80.105 9.66598 79.405 9.66598 78.615C9.66598 78.005 9.76098 77.455 9.95098 76.965C10.141 76.465 10.406 76.03 10.746 75.66C11.096 75.29 11.511 75.005 11.991 74.805C12.471 74.595 12.991 74.49 13.551 74.49C14.081 74.49 14.561 74.585 14.991 74.775C15.431 74.965 15.806 75.23 16.116 75.57C16.436 75.9 16.676 76.295 16.836 76.755C16.996 77.215 17.066 77.72 17.046 78.27L17.031 78.795H10.506L10.341 77.85H16.176L15.906 78.105V77.745C15.886 77.385 15.781 77.04 15.591 76.71C15.401 76.37 15.131 76.095 14.781 75.885C14.441 75.675 14.031 75.57 13.551 75.57C12.991 75.57 12.506 75.685 12.096 75.915C11.686 76.135 11.371 76.465 11.151 76.905C10.931 77.345 10.821 77.89 10.821 78.54C10.821 79.16 10.941 79.7 11.181 80.16C11.421 80.61 11.761 80.96 12.201 81.21C12.651 81.46 13.191 81.585 13.821 81.585C14.191 81.585 14.556 81.525 14.916 81.405C15.286 81.275 15.691 81.025 16.131 80.655L16.716 81.465C16.486 81.695 16.211 81.9 15.891 82.08C15.571 82.25 15.221 82.39 14.841 82.5C14.461 82.6 14.071 82.65 13.671 82.65ZM21.9438 82.65C21.2038 82.65 20.5438 82.475 19.9638 82.125C19.3838 81.765 18.9238 81.28 18.5838 80.67C18.2538 80.05 18.0888 79.35 18.0888 78.57C18.0888 77.79 18.2538 77.095 18.5838 76.485C18.9238 75.865 19.3838 75.38 19.9638 75.03C20.5438 74.68 21.2088 74.505 21.9588 74.505C22.6288 74.505 23.2388 74.64 23.7888 74.91C24.3388 75.17 24.7788 75.535 25.1088 76.005L24.4488 76.815C24.2588 76.565 24.0288 76.345 23.7588 76.155C23.4988 75.965 23.2138 75.82 22.9038 75.72C22.6038 75.61 22.3038 75.555 22.0038 75.555C21.4738 75.555 20.9988 75.69 20.5788 75.96C20.1588 76.22 19.8238 76.575 19.5738 77.025C19.3338 77.475 19.2138 77.99 19.2138 78.57C19.2138 79.15 19.3338 79.67 19.5738 80.13C19.8238 80.58 20.1588 80.935 20.5788 81.195C20.9988 81.455 21.4688 81.585 21.9888 81.585C22.2888 81.585 22.5838 81.54 22.8738 81.45C23.1638 81.35 23.4388 81.21 23.6988 81.03C23.9588 80.85 24.1988 80.625 24.4188 80.355L25.0788 81.165C24.7388 81.615 24.2838 81.975 23.7138 82.245C23.1438 82.515 22.5538 82.65 21.9438 82.65ZM29.3143 82.65C28.7143 82.65 28.2043 82.53 27.7843 82.29C27.3743 82.04 27.0593 81.68 26.8393 81.21C26.6293 80.74 26.5243 80.155 26.5243 79.455V74.67H27.6643V79.23C27.6643 79.76 27.7343 80.205 27.8743 80.565C28.0243 80.915 28.2443 81.18 28.5343 81.36C28.8343 81.54 29.1993 81.63 29.6293 81.63C29.9593 81.63 30.2643 81.575 30.5443 81.465C30.8243 81.345 31.0693 81.185 31.2793 80.985C31.4893 80.785 31.6543 80.55 31.7743 80.28C31.8943 80.01 31.9543 79.725 31.9543 79.425V74.67H33.0793V82.5H31.9693L31.9243 80.85L32.1043 80.76C31.9843 81.11 31.7843 81.43 31.5043 81.72C31.2243 82 30.8893 82.225 30.4993 82.395C30.1193 82.565 29.7243 82.65 29.3143 82.65ZM35.2698 82.5V74.67H36.3948L36.4248 76.755L36.3048 76.47C36.4148 76.12 36.5898 75.795 36.8298 75.495C37.0798 75.195 37.3748 74.955 37.7148 74.775C38.0548 74.595 38.4298 74.505 38.8398 74.505C39.0098 74.505 39.1698 74.52 39.3198 74.55C39.4698 74.57 39.5948 74.6 39.6948 74.64L39.3798 75.9C39.2498 75.84 39.1148 75.8 38.9748 75.78C38.8448 75.75 38.7198 75.735 38.5998 75.735C38.2598 75.735 37.9548 75.795 37.6848 75.915C37.4148 76.035 37.1848 76.205 36.9948 76.425C36.8048 76.635 36.6598 76.88 36.5598 77.16C36.4598 77.44 36.4098 77.74 36.4098 78.06V82.5H35.2698ZM43.9786 82.65C43.1986 82.65 42.5036 82.48 41.8936 82.14C41.2936 81.8 40.8236 81.325 40.4836 80.715C40.1436 80.105 39.9736 79.405 39.9736 78.615C39.9736 78.005 40.0686 77.455 40.2586 76.965C40.4486 76.465 40.7136 76.03 41.0536 75.66C41.4036 75.29 41.8186 75.005 42.2986 74.805C42.7786 74.595 43.2986 74.49 43.8586 74.49C44.3886 74.49 44.8686 74.585 45.2986 74.775C45.7386 74.965 46.1136 75.23 46.4236 75.57C46.7436 75.9 46.9836 76.295 47.1436 76.755C47.3036 77.215 47.3736 77.72 47.3536 78.27L47.3386 78.795H40.8136L40.6486 77.85H46.4836L46.2136 78.105V77.745C46.1936 77.385 46.0886 77.04 45.8986 76.71C45.7086 76.37 45.4386 76.095 45.0886 75.885C44.7486 75.675 44.3386 75.57 43.8586 75.57C43.2986 75.57 42.8136 75.685 42.4036 75.915C41.9936 76.135 41.6786 76.465 41.4586 76.905C41.2386 77.345 41.1286 77.89 41.1286 78.54C41.1286 79.16 41.2486 79.7 41.4886 80.16C41.7286 80.61 42.0686 80.96 42.5086 81.21C42.9586 81.46 43.4986 81.585 44.1286 81.585C44.4986 81.585 44.8636 81.525 45.2236 81.405C45.5936 81.275 45.9986 81.025 46.4386 80.655L47.0236 81.465C46.7936 81.695 46.5186 81.9 46.1986 82.08C45.8786 82.25 45.5286 82.39 45.1486 82.5C44.7686 82.6 44.3786 82.65 43.9786 82.65ZM53.6055 82.5V72H57.7155C58.3255 72 58.8755 72.145 59.3655 72.435C59.8655 72.715 60.2605 73.1 60.5505 73.59C60.8405 74.08 60.9855 74.635 60.9855 75.255C60.9855 75.835 60.8455 76.36 60.5655 76.83C60.2855 77.3 59.9055 77.675 59.4255 77.955C58.9455 78.225 58.4055 78.36 57.8055 78.36H54.7755V82.5H53.6055ZM60.0105 82.5L57.3705 77.88L58.4955 77.49L61.4055 82.5H60.0105ZM54.7755 77.22H57.9105C58.2805 77.22 58.6055 77.135 58.8855 76.965C59.1655 76.795 59.3855 76.565 59.5455 76.275C59.7055 75.975 59.7855 75.635 59.7855 75.255C59.7855 74.845 59.6905 74.48 59.5005 74.16C59.3105 73.84 59.0455 73.59 58.7055 73.41C58.3755 73.23 57.9955 73.14 57.5655 73.14H54.7755V77.22ZM66.2149 82.65C65.4349 82.65 64.7399 82.48 64.1299 82.14C63.5299 81.8 63.0599 81.325 62.7199 80.715C62.3799 80.105 62.2099 79.405 62.2099 78.615C62.2099 78.005 62.3049 77.455 62.4949 76.965C62.6849 76.465 62.9499 76.03 63.2899 75.66C63.6399 75.29 64.0549 75.005 64.5349 74.805C65.0149 74.595 65.5349 74.49 66.0949 74.49C66.6249 74.49 67.1049 74.585 67.5349 74.775C67.9749 74.965 68.3499 75.23 68.6599 75.57C68.9799 75.9 69.2199 76.295 69.3799 76.755C69.5399 77.215 69.6099 77.72 69.5899 78.27L69.5749 78.795H63.0499L62.8849 77.85H68.7199L68.4499 78.105V77.745C68.4299 77.385 68.3249 77.04 68.1349 76.71C67.9449 76.37 67.6749 76.095 67.3249 75.885C66.9849 75.675 66.5749 75.57 66.0949 75.57C65.5349 75.57 65.0499 75.685 64.6399 75.915C64.2299 76.135 63.9149 76.465 63.6949 76.905C63.4749 77.345 63.3649 77.89 63.3649 78.54C63.3649 79.16 63.4849 79.7 63.7249 80.16C63.9649 80.61 64.3049 80.96 64.7449 81.21C65.1949 81.46 65.7349 81.585 66.3649 81.585C66.7349 81.585 67.0999 81.525 67.4599 81.405C67.8299 81.275 68.2349 81.025 68.6749 80.655L69.2599 81.465C69.0299 81.695 68.7549 81.9 68.4349 82.08C68.1149 82.25 67.7649 82.39 67.3849 82.5C67.0049 82.6 66.6149 82.65 66.2149 82.65ZM72.2678 82.5V72.615H73.3928V82.5H72.2678ZM70.4978 75.75V74.67H75.3728V75.75H70.4978ZM77.0542 82.5V74.67H78.1792V82.5H77.0542ZM77.6092 72.975C77.3292 72.975 77.1142 72.905 76.9642 72.765C76.8242 72.615 76.7542 72.415 76.7542 72.165C76.7542 71.915 76.8292 71.715 76.9792 71.565C77.1292 71.415 77.3392 71.34 77.6092 71.34C77.8792 71.34 78.0892 71.415 78.2392 71.565C78.3892 71.705 78.4642 71.905 78.4642 72.165C78.4642 72.405 78.3892 72.6 78.2392 72.75C78.0892 72.9 77.8792 72.975 77.6092 72.975ZM80.636 82.5V74.67H81.761L81.791 76.755L81.671 76.47C81.781 76.12 81.956 75.795 82.196 75.495C82.446 75.195 82.741 74.955 83.081 74.775C83.421 74.595 83.796 74.505 84.206 74.505C84.376 74.505 84.536 74.52 84.686 74.55C84.836 74.57 84.961 74.6 85.061 74.64L84.746 75.9C84.616 75.84 84.481 75.8 84.341 75.78C84.211 75.75 84.086 75.735 83.966 75.735C83.626 75.735 83.321 75.795 83.051 75.915C82.781 76.035 82.551 76.205 82.361 76.425C82.171 76.635 82.026 76.88 81.926 77.16C81.826 77.44 81.776 77.74 81.776 78.06V82.5H80.636ZM89.3448 82.65C88.5648 82.65 87.8698 82.48 87.2598 82.14C86.6598 81.8 86.1898 81.325 85.8498 80.715C85.5098 80.105 85.3398 79.405 85.3398 78.615C85.3398 78.005 85.4348 77.455 85.6248 76.965C85.8148 76.465 86.0798 76.03 86.4198 75.66C86.7698 75.29 87.1848 75.005 87.6648 74.805C88.1448 74.595 88.6648 74.49 89.2248 74.49C89.7548 74.49 90.2348 74.585 90.6648 74.775C91.1048 74.965 91.4798 75.23 91.7898 75.57C92.1098 75.9 92.3498 76.295 92.5098 76.755C92.6698 77.215 92.7398 77.72 92.7198 78.27L92.7048 78.795H86.1798L86.0148 77.85H91.8498L91.5798 78.105V77.745C91.5598 77.385 91.4548 77.04 91.2648 76.71C91.0748 76.37 90.8048 76.095 90.4548 75.885C90.1148 75.675 89.7048 75.57 89.2248 75.57C88.6648 75.57 88.1798 75.685 87.7698 75.915C87.3598 76.135 87.0448 76.465 86.8248 76.905C86.6048 77.345 86.4948 77.89 86.4948 78.54C86.4948 79.16 86.6148 79.7 86.8548 80.16C87.0948 80.61 87.4348 80.96 87.8748 81.21C88.3248 81.46 88.8648 81.585 89.4948 81.585C89.8648 81.585 90.2298 81.525 90.5898 81.405C90.9598 81.275 91.3648 81.025 91.8048 80.655L92.3898 81.465C92.1598 81.695 91.8848 81.9 91.5648 82.08C91.2448 82.25 90.8948 82.39 90.5148 82.5C90.1348 82.6 89.7448 82.65 89.3448 82.65ZM94.3027 82.5V74.67H95.4277L95.4577 76.455L95.2327 76.53C95.3127 76.23 95.4427 75.96 95.6227 75.72C95.8127 75.47 96.0377 75.255 96.2977 75.075C96.5577 74.895 96.8427 74.76 97.1527 74.67C97.4627 74.57 97.7877 74.52 98.1277 74.52C98.5377 74.52 98.9027 74.59 99.2227 74.73C99.5527 74.86 99.8277 75.09 100.048 75.42C100.278 75.74 100.453 76.165 100.573 76.695L100.303 76.56L100.408 76.305C100.508 76.075 100.653 75.855 100.843 75.645C101.043 75.425 101.268 75.23 101.518 75.06C101.778 74.89 102.058 74.76 102.358 74.67C102.668 74.57 102.983 74.52 103.303 74.52C103.853 74.52 104.318 74.64 104.698 74.88C105.078 75.11 105.363 75.465 105.553 75.945C105.753 76.425 105.853 77.035 105.853 77.775V82.5H104.698V77.835C104.698 77.315 104.633 76.89 104.503 76.56C104.373 76.23 104.178 75.985 103.918 75.825C103.668 75.655 103.348 75.57 102.958 75.57C102.618 75.57 102.303 75.63 102.013 75.75C101.733 75.86 101.488 76.02 101.278 76.23C101.078 76.43 100.918 76.66 100.798 76.92C100.688 77.18 100.633 77.46 100.633 77.76V82.5H99.4927V77.82C99.4927 77.32 99.4227 76.905 99.2827 76.575C99.1527 76.245 98.9577 75.995 98.6977 75.825C98.4377 75.655 98.1177 75.57 97.7377 75.57C97.4077 75.57 97.1027 75.63 96.8227 75.75C96.5427 75.86 96.2977 76.015 96.0877 76.215C95.8877 76.415 95.7277 76.645 95.6077 76.905C95.4977 77.165 95.4427 77.445 95.4427 77.745V82.5H94.3027ZM111.435 82.65C110.655 82.65 109.96 82.48 109.35 82.14C108.75 81.8 108.28 81.325 107.94 80.715C107.6 80.105 107.43 79.405 107.43 78.615C107.43 78.005 107.525 77.455 107.715 76.965C107.905 76.465 108.17 76.03 108.51 75.66C108.86 75.29 109.275 75.005 109.755 74.805C110.235 74.595 110.755 74.49 111.315 74.49C111.845 74.49 112.325 74.585 112.755 74.775C113.195 74.965 113.57 75.23 113.88 75.57C114.2 75.9 114.44 76.295 114.6 76.755C114.76 77.215 114.83 77.72 114.81 78.27L114.795 78.795H108.27L108.105 77.85H113.94L113.67 78.105V77.745C113.65 77.385 113.545 77.04 113.355 76.71C113.165 76.37 112.895 76.095 112.545 75.885C112.205 75.675 111.795 75.57 111.315 75.57C110.755 75.57 110.27 75.685 109.86 75.915C109.45 76.135 109.135 76.465 108.915 76.905C108.695 77.345 108.585 77.89 108.585 78.54C108.585 79.16 108.705 79.7 108.945 80.16C109.185 80.61 109.525 80.96 109.965 81.21C110.415 81.46 110.955 81.585 111.585 81.585C111.955 81.585 112.32 81.525 112.68 81.405C113.05 81.275 113.455 81.025 113.895 80.655L114.48 81.465C114.25 81.695 113.975 81.9 113.655 82.08C113.335 82.25 112.985 82.39 112.605 82.5C112.225 82.6 111.835 82.65 111.435 82.65ZM116.408 82.5V74.67H117.517L117.563 76.305L117.383 76.38C117.483 76.04 117.678 75.73 117.968 75.45C118.258 75.17 118.603 74.945 119.003 74.775C119.413 74.595 119.833 74.505 120.263 74.505C120.843 74.505 121.328 74.62 121.718 74.85C122.108 75.08 122.403 75.435 122.603 75.915C122.803 76.395 122.903 77.005 122.903 77.745V82.5H121.763V77.805C121.763 77.285 121.693 76.86 121.553 76.53C121.423 76.19 121.218 75.94 120.938 75.78C120.658 75.62 120.313 75.545 119.903 75.555C119.563 75.555 119.248 75.615 118.958 75.735C118.668 75.845 118.418 76 118.208 76.2C117.998 76.4 117.833 76.63 117.713 76.89C117.593 77.15 117.533 77.43 117.533 77.73V82.5H116.978C116.908 82.5 116.828 82.5 116.738 82.5C116.648 82.5 116.538 82.5 116.408 82.5ZM126.13 82.5V72.615H127.255V82.5H126.13ZM124.36 75.75V74.67H129.235V75.75H124.36ZM1.545 105.5V95H5.7C6.25 95 6.745 95.135 7.185 95.405C7.625 95.675 7.975 96.05 8.235 96.53C8.495 97 8.625 97.53 8.625 98.12C8.625 98.74 8.495 99.295 8.235 99.785C7.975 100.265 7.625 100.65 7.185 100.94C6.745 101.22 6.25 101.36 5.7 101.36H2.715V105.5H1.545ZM2.715 100.22H5.76C6.07 100.22 6.345 100.13 6.585 99.95C6.835 99.76 7.035 99.51 7.185 99.2C7.335 98.88 7.41 98.515 7.41 98.105C7.41 97.735 7.335 97.405 7.185 97.115C7.035 96.815 6.835 96.58 6.585 96.41C6.345 96.23 6.07 96.14 5.76 96.14H2.715V100.22ZM10.4561 105.5V94.4H11.5811V105.5H10.4561ZM16.7087 105.65C16.0287 105.65 15.4137 105.475 14.8637 105.125C14.3137 104.765 13.8787 104.28 13.5587 103.67C13.2387 103.05 13.0787 102.35 13.0787 101.57C13.0787 100.78 13.2437 100.08 13.5737 99.47C13.9037 98.86 14.3437 98.38 14.8937 98.03C15.4537 97.68 16.0787 97.505 16.7687 97.505C17.1787 97.505 17.5587 97.565 17.9087 97.685C18.2587 97.805 18.5687 97.975 18.8387 98.195C19.1187 98.405 19.3487 98.655 19.5287 98.945C19.7187 99.225 19.8487 99.53 19.9187 99.86L19.5887 99.695L19.6337 97.67H20.7587V105.5H19.6187V103.58L19.9187 103.385C19.8487 103.685 19.7137 103.975 19.5137 104.255C19.3137 104.525 19.0687 104.765 18.7787 104.975C18.4987 105.185 18.1787 105.35 17.8187 105.47C17.4687 105.59 17.0987 105.65 16.7087 105.65ZM16.9637 104.57C17.4837 104.57 17.9487 104.445 18.3587 104.195C18.7687 103.935 19.0887 103.58 19.3187 103.13C19.5587 102.67 19.6787 102.15 19.6787 101.57C19.6787 100.99 19.5587 100.475 19.3187 100.025C19.0887 99.575 18.7687 99.22 18.3587 98.96C17.9487 98.7 17.4837 98.57 16.9637 98.57C16.4337 98.57 15.9637 98.7 15.5537 98.96C15.1537 99.22 14.8337 99.575 14.5937 100.025C14.3637 100.475 14.2487 100.99 14.2487 101.57C14.2487 102.14 14.3637 102.655 14.5937 103.115C14.8237 103.565 15.1437 103.92 15.5537 104.18C15.9637 104.44 16.4337 104.57 16.9637 104.57ZM22.9505 105.5V97.67H24.0605L24.1055 99.305L23.9255 99.38C24.0255 99.04 24.2205 98.73 24.5105 98.45C24.8005 98.17 25.1455 97.945 25.5455 97.775C25.9555 97.595 26.3755 97.505 26.8055 97.505C27.3855 97.505 27.8705 97.62 28.2605 97.85C28.6505 98.08 28.9455 98.435 29.1455 98.915C29.3455 99.395 29.4455 100.005 29.4455 100.745V105.5H28.3055V100.805C28.3055 100.285 28.2355 99.86 28.0955 99.53C27.9655 99.19 27.7605 98.94 27.4805 98.78C27.2005 98.62 26.8555 98.545 26.4455 98.555C26.1055 98.555 25.7905 98.615 25.5005 98.735C25.2105 98.845 24.9605 99 24.7505 99.2C24.5405 99.4 24.3755 99.63 24.2555 99.89C24.1355 100.15 24.0755 100.43 24.0755 100.73V105.5H23.5205C23.4505 105.5 23.3705 105.5 23.2805 105.5C23.1905 105.5 23.0805 105.5 22.9505 105.5ZM31.593 105.5V97.67H32.703L32.748 99.305L32.568 99.38C32.668 99.04 32.863 98.73 33.153 98.45C33.443 98.17 33.788 97.945 34.188 97.775C34.598 97.595 35.018 97.505 35.448 97.505C36.028 97.505 36.513 97.62 36.903 97.85C37.293 98.08 37.588 98.435 37.788 98.915C37.988 99.395 38.088 100.005 38.088 100.745V105.5H36.948V100.805C36.948 100.285 36.878 99.86 36.738 99.53C36.608 99.19 36.403 98.94 36.123 98.78C35.843 98.62 35.498 98.545 35.088 98.555C34.748 98.555 34.433 98.615 34.143 98.735C33.853 98.845 33.603 99 33.393 99.2C33.183 99.4 33.018 99.63 32.898 99.89C32.778 100.15 32.718 100.43 32.718 100.73V105.5H32.163C32.093 105.5 32.013 105.5 31.923 105.5C31.833 105.5 31.723 105.5 31.593 105.5ZM40.5356 105.5V97.67H41.6606V105.5H40.5356ZM41.0906 95.975C40.8106 95.975 40.5956 95.905 40.4456 95.765C40.3056 95.615 40.2356 95.415 40.2356 95.165C40.2356 94.915 40.3106 94.715 40.4606 94.565C40.6106 94.415 40.8206 94.34 41.0906 94.34C41.3606 94.34 41.5706 94.415 41.7206 94.565C41.8706 94.705 41.9456 94.905 41.9456 95.165C41.9456 95.405 41.8706 95.6 41.7206 95.75C41.5706 95.9 41.3606 95.975 41.0906 95.975ZM44.1175 105.5V97.67H45.2275L45.2725 99.305L45.0925 99.38C45.1925 99.04 45.3875 98.73 45.6775 98.45C45.9675 98.17 46.3125 97.945 46.7125 97.775C47.1225 97.595 47.5425 97.505 47.9725 97.505C48.5525 97.505 49.0375 97.62 49.4275 97.85C49.8175 98.08 50.1125 98.435 50.3125 98.915C50.5125 99.395 50.6125 100.005 50.6125 100.745V105.5H49.4725V100.805C49.4725 100.285 49.4025 99.86 49.2625 99.53C49.1325 99.19 48.9275 98.94 48.6475 98.78C48.3675 98.62 48.0225 98.545 47.6125 98.555C47.2725 98.555 46.9575 98.615 46.6675 98.735C46.3775 98.845 46.1275 99 45.9175 99.2C45.7075 99.4 45.5425 99.63 45.4225 99.89C45.3025 100.15 45.2425 100.43 45.2425 100.73V105.5H44.6875C44.6175 105.5 44.5375 105.5 44.4475 105.5C44.3575 105.5 44.2475 105.5 44.1175 105.5ZM56.135 108.95C55.555 108.95 55.005 108.86 54.485 108.68C53.965 108.5 53.535 108.275 53.195 108.005L53.645 107.06C53.845 107.22 54.075 107.36 54.335 107.48C54.605 107.61 54.895 107.71 55.205 107.78C55.515 107.86 55.83 107.9 56.15 107.9C56.73 107.9 57.22 107.79 57.62 107.57C58.03 107.36 58.34 107.045 58.55 106.625C58.77 106.205 58.88 105.685 58.88 105.065V103.565L59.06 103.52C58.97 103.9 58.775 104.255 58.475 104.585C58.175 104.905 57.81 105.165 57.38 105.365C56.95 105.555 56.495 105.65 56.015 105.65C55.285 105.65 54.63 105.475 54.05 105.125C53.48 104.775 53.03 104.295 52.7 103.685C52.37 103.065 52.205 102.365 52.205 101.585C52.205 100.795 52.37 100.095 52.7 99.485C53.04 98.865 53.495 98.38 54.065 98.03C54.635 97.68 55.275 97.505 55.985 97.505C56.295 97.505 56.595 97.545 56.885 97.625C57.175 97.695 57.44 97.8 57.68 97.94C57.93 98.08 58.155 98.24 58.355 98.42C58.555 98.6 58.72 98.795 58.85 99.005C58.99 99.215 59.09 99.43 59.15 99.65L58.835 99.605L58.88 97.67H60.005V105.02C60.005 105.65 59.915 106.205 59.735 106.685C59.555 107.175 59.29 107.585 58.94 107.915C58.6 108.255 58.19 108.51 57.71 108.68C57.24 108.86 56.715 108.95 56.135 108.95ZM56.15 104.57C56.68 104.57 57.15 104.445 57.56 104.195C57.98 103.935 58.31 103.58 58.55 103.13C58.79 102.68 58.91 102.16 58.91 101.57C58.91 100.99 58.79 100.475 58.55 100.025C58.32 99.575 57.995 99.22 57.575 98.96C57.155 98.7 56.68 98.57 56.15 98.57C55.61 98.57 55.13 98.7 54.71 98.96C54.3 99.22 53.975 99.575 53.735 100.025C53.495 100.475 53.375 100.99 53.375 101.57C53.375 102.14 53.49 102.655 53.72 103.115C53.96 103.565 54.285 103.92 54.695 104.18C55.115 104.44 55.6 104.57 56.15 104.57Z" fill="#B3B3B3"/>
</svg>
