<svg width="138" height="112" viewBox="0 0 138 112" fill="none" xmlns="http://www.w3.org/2000/svg">
<path d="M12.146 45.5C10.7327 45.5 9.41268 45.2467 8.18602 44.74C6.98602 44.2333 5.93268 43.54 5.02602 42.66C4.14602 41.7533 3.45268 40.7 2.94602 39.5C2.43935 38.3 2.18602 36.98 2.18602 35.54C2.18602 34.74 2.27935 33.8867 2.46602 32.98C2.67935 32.0733 2.98602 31.1133 3.38602 30.1C3.81268 29.06 4.30602 27.98 4.86602 26.86C5.42602 25.74 6.07935 24.5667 6.82602 23.34L10.546 17.02H15.506L15.666 17.42L10.906 25.26C10.1327 26.54 9.45268 27.7533 8.86602 28.9C8.27935 30.02 7.77268 31.1 7.34602 32.14C6.94602 33.1533 6.61268 34.14 6.34602 35.1L5.26602 31.46C5.66602 30.6067 6.15935 29.8333 6.74602 29.14C7.33268 28.4467 7.98602 27.86 8.70602 27.38C9.42602 26.9 10.1727 26.54 10.946 26.3C11.746 26.06 12.5593 25.94 13.386 25.94C14.9327 25.94 16.3593 26.3667 17.666 27.22C18.9727 28.0467 20.0127 29.1533 20.786 30.54C21.586 31.9267 21.986 33.4467 21.986 35.1C21.986 37.1 21.5594 38.8867 20.706 40.46C19.8794 42.0067 18.7194 43.2333 17.226 44.14C15.7327 45.0467 14.0393 45.5 12.146 45.5ZM12.186 40.94C13.146 40.94 13.9993 40.7133 14.746 40.26C15.5193 39.8067 16.1193 39.18 16.546 38.38C16.9727 37.5533 17.186 36.6067 17.186 35.54C17.186 34.6333 16.9593 33.7933 16.506 33.02C16.0793 32.22 15.4927 31.58 14.746 31.1C13.9993 30.5933 13.1593 30.34 12.226 30.34C11.2127 30.34 10.306 30.58 9.50602 31.06C8.73268 31.5133 8.11935 32.14 7.66602 32.94C7.23935 33.7133 7.02602 34.58 7.02602 35.54C7.02602 36.5533 7.23935 37.4733 7.66602 38.3C8.11935 39.1 8.73268 39.74 9.50602 40.22C10.2793 40.7 11.1727 40.94 12.186 40.94ZM33.8432 45.9C31.7632 45.9 29.9499 45.4467 28.4032 44.54C26.8565 43.6067 25.4299 42.0333 24.1232 39.82L28.0432 37.34C28.6565 38.3267 29.2832 39.1267 29.9232 39.74C30.5899 40.3267 31.2565 40.7667 31.9232 41.06C32.6165 41.3267 33.3499 41.46 34.1232 41.46C35.0032 41.46 35.8032 41.2467 36.5232 40.82C37.2699 40.3933 37.8565 39.8067 38.2832 39.06C38.7365 38.3133 38.9632 37.46 38.9632 36.5C38.9632 35.54 38.7765 34.7267 38.4032 34.06C38.0565 33.3933 37.5365 32.8867 36.8432 32.54C36.1765 32.1667 35.3632 31.98 34.4032 31.98C33.9765 31.98 33.5232 32.0333 33.0432 32.14C32.5632 32.22 32.0565 32.3533 31.5232 32.54C30.9899 32.7 30.4032 32.9 29.7632 33.14L28.4832 29.74L36.4432 20.94L37.6432 22.1L25.8432 22.02V17.42H42.2832L43.2432 19.34L34.0432 29.38L32.8432 28.06C33.0565 27.9533 33.4032 27.86 33.8832 27.78C34.3899 27.6733 34.8299 27.62 35.2032 27.62C36.3765 27.62 37.4965 27.8467 38.5632 28.3C39.6299 28.7267 40.5499 29.34 41.3232 30.14C42.1232 30.94 42.7499 31.8733 43.2032 32.94C43.6565 33.98 43.8832 35.1133 43.8832 36.34C43.8832 38.18 43.4299 39.82 42.5232 41.26C41.6432 42.6733 40.4432 43.8067 38.9232 44.66C37.4032 45.4867 35.7099 45.9 33.8432 45.9ZM51.0745 45.5L69.5945 17.5H74.3545L55.6345 45.5H51.0745ZM53.3545 32.34C52.1011 32.34 50.9811 32.0067 49.9945 31.34C49.0345 30.6733 48.2745 29.7667 47.7145 28.62C47.1811 27.4733 46.9145 26.1667 46.9145 24.7C46.9145 23.2067 47.1811 21.8867 47.7145 20.74C48.2745 19.5667 49.0345 18.6467 49.9945 17.98C50.9811 17.3133 52.1145 16.98 53.3945 16.98C54.6478 16.98 55.7545 17.3133 56.7145 17.98C57.7011 18.6467 58.4611 19.5667 58.9945 20.74C59.5545 21.8867 59.8345 23.2067 59.8345 24.7C59.8345 26.14 59.5545 27.4467 58.9945 28.62C58.4345 29.7667 57.6611 30.6733 56.6745 31.34C55.6878 32.0067 54.5811 32.34 53.3545 32.34ZM53.3945 28.94C53.9011 28.94 54.3411 28.7667 54.7145 28.42C55.0878 28.0733 55.3811 27.5933 55.5945 26.98C55.8078 26.34 55.9145 25.58 55.9145 24.7C55.9145 23.82 55.8078 23.06 55.5945 22.42C55.3811 21.78 55.0878 21.2867 54.7145 20.94C54.3411 20.5933 53.8878 20.42 53.3545 20.42C52.8478 20.42 52.3945 20.6067 51.9945 20.98C51.6211 21.3267 51.3278 21.82 51.1145 22.46C50.9011 23.0733 50.7945 23.82 50.7945 24.7C50.7945 25.58 50.8878 26.34 51.0745 26.98C51.2878 27.5933 51.5945 28.0733 51.9945 28.42C52.3945 28.7667 52.8611 28.94 53.3945 28.94ZM72.3545 45.86C71.1011 45.86 69.9811 45.5267 68.9945 44.86C68.0345 44.1933 67.2745 43.2867 66.7145 42.14C66.1545 40.9933 65.8745 39.6867 65.8745 38.22C65.8745 36.7267 66.1411 35.4067 66.6745 34.26C67.2345 33.0867 68.0078 32.1667 68.9945 31.5C69.9811 30.8333 71.1011 30.5 72.3545 30.5C73.6345 30.5 74.7545 30.8333 75.7145 31.5C76.6745 32.1667 77.4211 33.0867 77.9545 34.26C78.5145 35.4067 78.7945 36.7267 78.7945 38.22C78.7945 39.66 78.5145 40.9667 77.9545 42.14C77.3945 43.2867 76.6211 44.1933 75.6345 44.86C74.6745 45.5267 73.5811 45.86 72.3545 45.86ZM72.3545 42.5C72.8611 42.5 73.3011 42.3267 73.6745 41.98C74.0745 41.6067 74.3811 41.1133 74.5945 40.5C74.8078 39.86 74.9145 39.1 74.9145 38.22C74.9145 37.3667 74.8078 36.62 74.5945 35.98C74.3811 35.34 74.0745 34.8467 73.6745 34.5C73.3011 34.1267 72.8611 33.94 72.3545 33.94C71.8211 33.94 71.3545 34.1133 70.9545 34.46C70.5811 34.8067 70.2878 35.3133 70.0745 35.98C69.8611 36.62 69.7545 37.3667 69.7545 38.22C69.7545 39.1 69.8611 39.86 70.0745 40.5C70.2878 41.1133 70.5811 41.6067 70.9545 41.98C71.3545 42.3267 71.8211 42.5 72.3545 42.5Z" fill="#CAFF33"/>
<path d="M2.21102 82.5V72H3.35102L7.38602 78.555L6.84602 78.54L10.926 72H11.991V82.5H10.821V77.7C10.821 76.8 10.836 75.99 10.866 75.27C10.896 74.55 10.951 73.835 11.031 73.125L11.241 73.545L7.47602 79.455H6.66602L3.00602 73.62L3.17102 73.125C3.25102 73.795 3.30602 74.485 3.33602 75.195C3.36602 75.895 3.38102 76.73 3.38102 77.7V82.5H2.21102ZM17.697 82.65C17.017 82.65 16.402 82.475 15.852 82.125C15.302 81.765 14.867 81.28 14.547 80.67C14.227 80.05 14.067 79.35 14.067 78.57C14.067 77.78 14.232 77.08 14.562 76.47C14.892 75.86 15.332 75.38 15.882 75.03C16.442 74.68 17.067 74.505 17.757 74.505C18.167 74.505 18.547 74.565 18.897 74.685C19.247 74.805 19.557 74.975 19.827 75.195C20.107 75.405 20.337 75.655 20.517 75.945C20.707 76.225 20.837 76.53 20.907 76.86L20.577 76.695L20.622 74.67H21.747V82.5H20.607V80.58L20.907 80.385C20.837 80.685 20.702 80.975 20.502 81.255C20.302 81.525 20.057 81.765 19.767 81.975C19.487 82.185 19.167 82.35 18.807 82.47C18.457 82.59 18.087 82.65 17.697 82.65ZM17.952 81.57C18.472 81.57 18.937 81.445 19.347 81.195C19.757 80.935 20.077 80.58 20.307 80.13C20.547 79.67 20.667 79.15 20.667 78.57C20.667 77.99 20.547 77.475 20.307 77.025C20.077 76.575 19.757 76.22 19.347 75.96C18.937 75.7 18.472 75.57 17.952 75.57C17.422 75.57 16.952 75.7 16.542 75.96C16.142 76.22 15.822 76.575 15.582 77.025C15.352 77.475 15.237 77.99 15.237 78.57C15.237 79.14 15.352 79.655 15.582 80.115C15.812 80.565 16.132 80.92 16.542 81.18C16.952 81.44 17.422 81.57 17.952 81.57ZM23.9388 82.5V74.67H25.0487L25.0938 76.305L24.9138 76.38C25.0138 76.04 25.2088 75.73 25.4988 75.45C25.7888 75.17 26.1338 74.945 26.5338 74.775C26.9438 74.595 27.3638 74.505 27.7938 74.505C28.3738 74.505 28.8588 74.62 29.2488 74.85C29.6388 75.08 29.9338 75.435 30.1338 75.915C30.3338 76.395 30.4338 77.005 30.4338 77.745V82.5H29.2938V77.805C29.2938 77.285 29.2238 76.86 29.0838 76.53C28.9538 76.19 28.7488 75.94 28.4688 75.78C28.1888 75.62 27.8438 75.545 27.4338 75.555C27.0938 75.555 26.7788 75.615 26.4888 75.735C26.1988 75.845 25.9488 76 25.7388 76.2C25.5288 76.4 25.3638 76.63 25.2438 76.89C25.1238 77.15 25.0638 77.43 25.0638 77.73V82.5H24.5088C24.4388 82.5 24.3588 82.5 24.2688 82.5C24.1788 82.5 24.0688 82.5 23.9388 82.5ZM35.6413 82.65C34.9613 82.65 34.3463 82.475 33.7963 82.125C33.2463 81.765 32.8113 81.28 32.4913 80.67C32.1713 80.05 32.0113 79.35 32.0113 78.57C32.0113 77.78 32.1763 77.08 32.5063 76.47C32.8363 75.86 33.2763 75.38 33.8263 75.03C34.3863 74.68 35.0113 74.505 35.7013 74.505C36.1113 74.505 36.4913 74.565 36.8413 74.685C37.1913 74.805 37.5013 74.975 37.7713 75.195C38.0513 75.405 38.2813 75.655 38.4613 75.945C38.6513 76.225 38.7813 76.53 38.8513 76.86L38.5213 76.695L38.5663 74.67H39.6913V82.5H38.5513V80.58L38.8513 80.385C38.7813 80.685 38.6463 80.975 38.4463 81.255C38.2463 81.525 38.0013 81.765 37.7113 81.975C37.4313 82.185 37.1113 82.35 36.7513 82.47C36.4013 82.59 36.0313 82.65 35.6413 82.65ZM35.8963 81.57C36.4163 81.57 36.8813 81.445 37.2913 81.195C37.7013 80.935 38.0213 80.58 38.2513 80.13C38.4913 79.67 38.6113 79.15 38.6113 78.57C38.6113 77.99 38.4913 77.475 38.2513 77.025C38.0213 76.575 37.7013 76.22 37.2913 75.96C36.8813 75.7 36.4163 75.57 35.8963 75.57C35.3663 75.57 34.8963 75.7 34.4863 75.96C34.0863 76.22 33.7663 76.575 33.5263 77.025C33.2963 77.475 33.1813 77.99 33.1813 78.57C33.1813 79.14 33.2963 79.655 33.5263 80.115C33.7563 80.565 34.0763 80.92 34.4863 81.18C34.8963 81.44 35.3663 81.57 35.8963 81.57ZM45.2581 85.95C44.6781 85.95 44.1281 85.86 43.6081 85.68C43.0881 85.5 42.6581 85.275 42.3181 85.005L42.7681 84.06C42.9681 84.22 43.1981 84.36 43.4581 84.48C43.7281 84.61 44.0181 84.71 44.3281 84.78C44.6381 84.86 44.9531 84.9 45.2731 84.9C45.8531 84.9 46.3431 84.79 46.7431 84.57C47.1531 84.36 47.4631 84.045 47.6731 83.625C47.8931 83.205 48.0031 82.685 48.0031 82.065V80.565L48.1831 80.52C48.0931 80.9 47.8981 81.255 47.5981 81.585C47.2981 81.905 46.9331 82.165 46.5031 82.365C46.0731 82.555 45.6181 82.65 45.1381 82.65C44.4081 82.65 43.7531 82.475 43.1731 82.125C42.6031 81.775 42.1531 81.295 41.8231 80.685C41.4931 80.065 41.3281 79.365 41.3281 78.585C41.3281 77.795 41.4931 77.095 41.8231 76.485C42.1631 75.865 42.6181 75.38 43.1881 75.03C43.7581 74.68 44.3981 74.505 45.1081 74.505C45.4181 74.505 45.7181 74.545 46.0081 74.625C46.2981 74.695 46.5631 74.8 46.8031 74.94C47.0531 75.08 47.2781 75.24 47.4781 75.42C47.6781 75.6 47.8431 75.795 47.9731 76.005C48.1131 76.215 48.2131 76.43 48.2731 76.65L47.9581 76.605L48.0031 74.67H49.1281V82.02C49.1281 82.65 49.0381 83.205 48.8581 83.685C48.6781 84.175 48.4131 84.585 48.0631 84.915C47.7231 85.255 47.3131 85.51 46.8331 85.68C46.3631 85.86 45.8381 85.95 45.2581 85.95ZM45.2731 81.57C45.8031 81.57 46.2731 81.445 46.6831 81.195C47.1031 80.935 47.4331 80.58 47.6731 80.13C47.9131 79.68 48.0331 79.16 48.0331 78.57C48.0331 77.99 47.9131 77.475 47.6731 77.025C47.4431 76.575 47.1181 76.22 46.6981 75.96C46.2781 75.7 45.8031 75.57 45.2731 75.57C44.7331 75.57 44.2531 75.7 43.8331 75.96C43.4231 76.22 43.0981 76.575 42.8581 77.025C42.6181 77.475 42.4981 77.99 42.4981 78.57C42.4981 79.14 42.6131 79.655 42.8431 80.115C43.0831 80.565 43.4081 80.92 43.8181 81.18C44.2381 81.44 44.7231 81.57 45.2731 81.57ZM54.7667 82.65C53.9867 82.65 53.2917 82.48 52.6817 82.14C52.0817 81.8 51.6117 81.325 51.2717 80.715C50.9317 80.105 50.7617 79.405 50.7617 78.615C50.7617 78.005 50.8567 77.455 51.0467 76.965C51.2367 76.465 51.5017 76.03 51.8417 75.66C52.1917 75.29 52.6067 75.005 53.0867 74.805C53.5667 74.595 54.0867 74.49 54.6467 74.49C55.1767 74.49 55.6567 74.585 56.0867 74.775C56.5267 74.965 56.9017 75.23 57.2117 75.57C57.5317 75.9 57.7717 76.295 57.9317 76.755C58.0917 77.215 58.1617 77.72 58.1417 78.27L58.1267 78.795H51.6017L51.4367 77.85H57.2717L57.0017 78.105V77.745C56.9817 77.385 56.8767 77.04 56.6867 76.71C56.4967 76.37 56.2267 76.095 55.8767 75.885C55.5367 75.675 55.1267 75.57 54.6467 75.57C54.0867 75.57 53.6017 75.685 53.1917 75.915C52.7817 76.135 52.4667 76.465 52.2467 76.905C52.0267 77.345 51.9167 77.89 51.9167 78.54C51.9167 79.16 52.0367 79.7 52.2767 80.16C52.5167 80.61 52.8567 80.96 53.2967 81.21C53.7467 81.46 54.2867 81.585 54.9167 81.585C55.2867 81.585 55.6517 81.525 56.0117 81.405C56.3817 81.275 56.7867 81.025 57.2267 80.655L57.8117 81.465C57.5817 81.695 57.3067 81.9 56.9867 82.08C56.6667 82.25 56.3167 82.39 55.9367 82.5C55.5567 82.6 55.1667 82.65 54.7667 82.65ZM62.7995 82.65C62.1195 82.65 61.5045 82.475 60.9545 82.125C60.4045 81.765 59.9695 81.28 59.6495 80.67C59.3295 80.05 59.1695 79.35 59.1695 78.57C59.1695 77.78 59.3345 77.08 59.6645 76.47C59.9945 75.86 60.4345 75.38 60.9845 75.03C61.5445 74.68 62.1695 74.505 62.8595 74.505C63.2695 74.505 63.6495 74.565 63.9995 74.685C64.3495 74.805 64.6595 74.975 64.9295 75.195C65.2095 75.405 65.4395 75.655 65.6195 75.945C65.8095 76.225 65.9395 76.53 66.0095 76.86L65.6795 76.695L65.7245 74.67H66.8495V82.5H65.7095V80.58L66.0095 80.385C65.9395 80.685 65.8045 80.975 65.6045 81.255C65.4045 81.525 65.1595 81.765 64.8695 81.975C64.5895 82.185 64.2695 82.35 63.9095 82.47C63.5595 82.59 63.1895 82.65 62.7995 82.65ZM63.0545 81.57C63.5745 81.57 64.0395 81.445 64.4495 81.195C64.8595 80.935 65.1795 80.58 65.4095 80.13C65.6495 79.67 65.7695 79.15 65.7695 78.57C65.7695 77.99 65.6495 77.475 65.4095 77.025C65.1795 76.575 64.8595 76.22 64.4495 75.96C64.0395 75.7 63.5745 75.57 63.0545 75.57C62.5245 75.57 62.0545 75.7 61.6445 75.96C61.2445 76.22 60.9245 76.575 60.6845 77.025C60.4545 77.475 60.3395 77.99 60.3395 78.57C60.3395 79.14 60.4545 79.655 60.6845 80.115C60.9145 80.565 61.2345 80.92 61.6445 81.18C62.0545 81.44 62.5245 81.57 63.0545 81.57ZM73.0163 82.65C72.6463 82.65 72.2863 82.595 71.9363 82.485C71.5863 82.365 71.2663 82.205 70.9763 82.005C70.6963 81.805 70.4563 81.575 70.2563 81.315C70.0663 81.055 69.9363 80.785 69.8663 80.505L70.1963 80.52L70.1513 82.485H69.0413V71.4H70.1663V76.545L69.9413 76.605C70.0113 76.325 70.1363 76.06 70.3163 75.81C70.5063 75.55 70.7413 75.325 71.0213 75.135C71.3013 74.935 71.6063 74.78 71.9363 74.67C72.2763 74.56 72.6263 74.505 72.9863 74.505C73.6863 74.505 74.3113 74.68 74.8613 75.03C75.4213 75.38 75.8663 75.86 76.1963 76.47C76.5263 77.08 76.6913 77.78 76.6913 78.57C76.6913 79.36 76.5313 80.065 76.2113 80.685C75.8913 81.295 75.4513 81.775 74.8913 82.125C74.3413 82.475 73.7163 82.65 73.0163 82.65ZM72.8363 81.585C73.3663 81.585 73.8363 81.455 74.2463 81.195C74.6563 80.925 74.9763 80.565 75.2063 80.115C75.4463 79.655 75.5663 79.14 75.5663 78.57C75.5663 77.99 75.4463 77.475 75.2063 77.025C74.9763 76.575 74.6563 76.22 74.2463 75.96C73.8363 75.7 73.3663 75.57 72.8363 75.57C72.3063 75.57 71.8363 75.7 71.4263 75.96C71.0163 76.22 70.6913 76.575 70.4513 77.025C70.2213 77.475 70.1063 77.99 70.1063 78.57C70.1063 79.15 70.2213 79.67 70.4513 80.13C70.6913 80.58 71.0163 80.935 71.4263 81.195C71.8363 81.455 72.3063 81.585 72.8363 81.585ZM78.3584 82.5V71.4H79.4834V82.5H78.3584ZM85.0011 82.65C84.2211 82.65 83.5261 82.48 82.9161 82.14C82.3161 81.8 81.8461 81.325 81.5061 80.715C81.1661 80.105 80.9961 79.405 80.9961 78.615C80.9961 78.005 81.0911 77.455 81.2811 76.965C81.4711 76.465 81.7361 76.03 82.0761 75.66C82.4261 75.29 82.8411 75.005 83.3211 74.805C83.8011 74.595 84.3211 74.49 84.8811 74.49C85.4111 74.49 85.8911 74.585 86.3211 74.775C86.7611 74.965 87.1361 75.23 87.4461 75.57C87.7661 75.9 88.0061 76.295 88.1661 76.755C88.3261 77.215 88.3961 77.72 88.3761 78.27L88.3611 78.795H81.8361L81.6711 77.85H87.5061L87.2361 78.105V77.745C87.2161 77.385 87.1111 77.04 86.9211 76.71C86.7311 76.37 86.4611 76.095 86.1111 75.885C85.7711 75.675 85.3611 75.57 84.8811 75.57C84.3211 75.57 83.8361 75.685 83.4261 75.915C83.0161 76.135 82.7011 76.465 82.4811 76.905C82.2611 77.345 82.1511 77.89 82.1511 78.54C82.1511 79.16 82.2711 79.7 82.5111 80.16C82.7511 80.61 83.0911 80.96 83.5311 81.21C83.9811 81.46 84.5211 81.585 85.1511 81.585C85.5211 81.585 85.8861 81.525 86.2461 81.405C86.6161 81.275 87.0211 81.025 87.4611 80.655L88.0461 81.465C87.8161 81.695 87.5411 81.9 87.2211 82.08C86.9011 82.25 86.5511 82.39 86.1711 82.5C85.7911 82.6 85.4011 82.65 85.0011 82.65ZM94.628 82.5V72H98.588C99.308 72 99.963 72.13 100.553 72.39C101.153 72.64 101.673 73 102.113 73.47C102.553 73.94 102.893 74.495 103.133 75.135C103.373 75.775 103.493 76.48 103.493 77.25C103.493 78.02 103.373 78.73 103.133 79.38C102.893 80.02 102.553 80.575 102.113 81.045C101.683 81.505 101.168 81.865 100.568 82.125C99.968 82.375 99.308 82.5 98.588 82.5H94.628ZM95.798 81.57L95.663 81.36H98.513C99.063 81.36 99.568 81.265 100.028 81.075C100.498 80.875 100.898 80.595 101.228 80.235C101.568 79.865 101.828 79.43 102.008 78.93C102.198 78.43 102.293 77.87 102.293 77.25C102.293 76.63 102.198 76.07 102.008 75.57C101.828 75.07 101.568 74.64 101.228 74.28C100.888 73.91 100.488 73.63 100.028 73.44C99.568 73.24 99.063 73.14 98.513 73.14H95.618L95.798 72.96V81.57ZM108.775 82.65C107.995 82.65 107.3 82.48 106.69 82.14C106.09 81.8 105.62 81.325 105.28 80.715C104.94 80.105 104.77 79.405 104.77 78.615C104.77 78.005 104.865 77.455 105.055 76.965C105.245 76.465 105.51 76.03 105.85 75.66C106.2 75.29 106.615 75.005 107.095 74.805C107.575 74.595 108.095 74.49 108.655 74.49C109.185 74.49 109.665 74.585 110.095 74.775C110.535 74.965 110.91 75.23 111.22 75.57C111.54 75.9 111.78 76.295 111.94 76.755C112.1 77.215 112.17 77.72 112.15 78.27L112.135 78.795H105.61L105.445 77.85H111.28L111.01 78.105V77.745C110.99 77.385 110.885 77.04 110.695 76.71C110.505 76.37 110.235 76.095 109.885 75.885C109.545 75.675 109.135 75.57 108.655 75.57C108.095 75.57 107.61 75.685 107.2 75.915C106.79 76.135 106.475 76.465 106.255 76.905C106.035 77.345 105.925 77.89 105.925 78.54C105.925 79.16 106.045 79.7 106.285 80.16C106.525 80.61 106.865 80.96 107.305 81.21C107.755 81.46 108.295 81.585 108.925 81.585C109.295 81.585 109.66 81.525 110.02 81.405C110.39 81.275 110.795 81.025 111.235 80.655L111.82 81.465C111.59 81.695 111.315 81.9 110.995 82.08C110.675 82.25 110.325 82.39 109.945 82.5C109.565 82.6 109.175 82.65 108.775 82.65ZM117.723 82.65C117.353 82.65 116.993 82.595 116.643 82.485C116.293 82.365 115.973 82.205 115.683 82.005C115.403 81.805 115.163 81.575 114.963 81.315C114.773 81.055 114.643 80.785 114.573 80.505L114.903 80.52L114.858 82.485H113.748V71.4H114.873V76.545L114.648 76.605C114.718 76.325 114.843 76.06 115.023 75.81C115.213 75.55 115.448 75.325 115.728 75.135C116.008 74.935 116.313 74.78 116.643 74.67C116.983 74.56 117.333 74.505 117.693 74.505C118.393 74.505 119.018 74.68 119.568 75.03C120.128 75.38 120.573 75.86 120.903 76.47C121.233 77.08 121.398 77.78 121.398 78.57C121.398 79.36 121.238 80.065 120.918 80.685C120.598 81.295 120.158 81.775 119.598 82.125C119.048 82.475 118.423 82.65 117.723 82.65ZM117.543 81.585C118.073 81.585 118.543 81.455 118.953 81.195C119.363 80.925 119.683 80.565 119.913 80.115C120.153 79.655 120.273 79.14 120.273 78.57C120.273 77.99 120.153 77.475 119.913 77.025C119.683 76.575 119.363 76.22 118.953 75.96C118.543 75.7 118.073 75.57 117.543 75.57C117.013 75.57 116.543 75.7 116.133 75.96C115.723 76.22 115.398 76.575 115.158 77.025C114.928 77.475 114.813 77.99 114.813 78.57C114.813 79.15 114.928 79.67 115.158 80.13C115.398 80.58 115.723 80.935 116.133 81.195C116.543 81.455 117.013 81.585 117.543 81.585ZM124.115 82.5V72.615H125.24V82.5H124.115ZM122.345 75.75V74.67H127.22V75.75H122.345ZM6.56102 105.65C5.81102 105.65 5.12102 105.52 4.49102 105.26C3.86102 104.99 3.31602 104.615 2.85602 104.135C2.39602 103.645 2.03602 103.07 1.77602 102.41C1.52602 101.75 1.40102 101.03 1.40102 100.25C1.40102 99.48 1.52602 98.775 1.77602 98.135C2.03602 97.485 2.40102 96.92 2.87102 96.44C3.34102 95.95 3.88602 95.575 4.50602 95.315C5.12602 95.055 5.80602 94.925 6.54602 94.925C7.03602 94.925 7.52102 95.005 8.00102 95.165C8.48102 95.315 8.92102 95.525 9.32102 95.795C9.73102 96.065 10.066 96.375 10.326 96.725L9.51602 97.565C9.26602 97.265 8.97602 97.005 8.64602 96.785C8.32602 96.565 7.98602 96.395 7.62602 96.275C7.26602 96.155 6.90602 96.095 6.54602 96.095C5.98602 96.095 5.46102 96.2 4.97102 96.41C4.49102 96.61 4.07602 96.895 3.72602 97.265C3.37602 97.635 3.10102 98.075 2.90102 98.585C2.71102 99.095 2.61602 99.65 2.61602 100.25C2.61602 100.87 2.71102 101.44 2.90102 101.96C3.10102 102.48 3.38102 102.93 3.74102 103.31C4.11102 103.68 4.54102 103.97 5.03102 104.18C5.53102 104.38 6.08602 104.48 6.69602 104.48C7.05602 104.48 7.41602 104.43 7.77602 104.33C8.13602 104.22 8.46602 104.07 8.76602 103.88C9.06602 103.69 9.32102 103.475 9.53102 103.235L10.131 104.21C9.90102 104.49 9.59102 104.74 9.20102 104.96C8.82102 105.17 8.40102 105.34 7.94102 105.47C7.48102 105.59 7.02102 105.65 6.56102 105.65ZM15.3627 105.65C14.5827 105.65 13.8877 105.475 13.2777 105.125C12.6777 104.775 12.2027 104.29 11.8527 103.67C11.5127 103.05 11.3427 102.345 11.3427 101.555C11.3427 100.775 11.5127 100.08 11.8527 99.47C12.2027 98.86 12.6777 98.38 13.2777 98.03C13.8877 97.68 14.5827 97.505 15.3627 97.505C16.1327 97.505 16.8177 97.68 17.4177 98.03C18.0277 98.38 18.5027 98.86 18.8427 99.47C19.1927 100.08 19.3677 100.775 19.3677 101.555C19.3677 102.345 19.1927 103.05 18.8427 103.67C18.5027 104.29 18.0277 104.775 17.4177 105.125C16.8177 105.475 16.1327 105.65 15.3627 105.65ZM15.3627 104.585C15.9127 104.585 16.4027 104.455 16.8327 104.195C17.2627 103.925 17.5977 103.565 17.8377 103.115C18.0777 102.655 18.1977 102.135 18.1977 101.555C18.1977 100.975 18.0777 100.46 17.8377 100.01C17.5977 99.56 17.2627 99.21 16.8327 98.96C16.4027 98.7 15.9127 98.57 15.3627 98.57C14.8127 98.57 14.3177 98.7 13.8777 98.96C13.4477 99.21 13.1077 99.565 12.8577 100.025C12.6177 100.475 12.5027 100.985 12.5127 101.555C12.5027 102.135 12.6177 102.655 12.8577 103.115C13.1077 103.565 13.4477 103.925 13.8777 104.195C14.3177 104.455 14.8127 104.585 15.3627 104.585ZM21.0091 105.5V97.67H22.1191L22.1641 99.305L21.9841 99.38C22.0841 99.04 22.2791 98.73 22.5691 98.45C22.8591 98.17 23.2041 97.945 23.6041 97.775C24.0141 97.595 24.4341 97.505 24.8641 97.505C25.4441 97.505 25.9291 97.62 26.3191 97.85C26.7091 98.08 27.0041 98.435 27.2041 98.915C27.4041 99.395 27.5041 100.005 27.5041 100.745V105.5H26.3641V100.805C26.3641 100.285 26.2941 99.86 26.1541 99.53C26.0241 99.19 25.8191 98.94 25.5391 98.78C25.2591 98.62 24.9141 98.545 24.5041 98.555C24.1641 98.555 23.8491 98.615 23.5591 98.735C23.2691 98.845 23.0191 99 22.8091 99.2C22.5991 99.4 22.4341 99.63 22.3141 99.89C22.1941 100.15 22.1341 100.43 22.1341 100.73V105.5H21.5791C21.5091 105.5 21.4291 105.5 21.3391 105.5C21.2491 105.5 21.1391 105.5 21.0091 105.5ZM32.2166 105.65C31.5466 105.65 30.9466 105.525 30.4166 105.275C29.8866 105.025 29.4666 104.695 29.1566 104.285L29.9516 103.595C30.2416 103.945 30.5816 104.21 30.9716 104.39C31.3716 104.57 31.8166 104.66 32.3066 104.66C32.5566 104.66 32.7816 104.635 32.9816 104.585C33.1816 104.525 33.3566 104.44 33.5066 104.33C33.6566 104.22 33.7716 104.09 33.8516 103.94C33.9316 103.79 33.9716 103.625 33.9716 103.445C33.9716 103.115 33.8266 102.84 33.5366 102.62C33.4066 102.53 33.2216 102.44 32.9816 102.35C32.7416 102.25 32.4516 102.155 32.1116 102.065C31.5516 101.905 31.0866 101.745 30.7166 101.585C30.3466 101.415 30.0566 101.22 29.8466 101C29.6966 100.82 29.5816 100.625 29.5016 100.415C29.4316 100.205 29.3966 99.975 29.3966 99.725C29.3966 99.405 29.4616 99.11 29.5916 98.84C29.7316 98.57 29.9216 98.335 30.1616 98.135C30.4116 97.925 30.7016 97.77 31.0316 97.67C31.3716 97.56 31.7366 97.505 32.1266 97.505C32.4966 97.505 32.8616 97.555 33.2216 97.655C33.5816 97.755 33.9166 97.9 34.2266 98.09C34.5366 98.28 34.8016 98.505 35.0216 98.765L34.3316 99.515C34.1416 99.315 33.9316 99.135 33.7016 98.975C33.4716 98.815 33.2266 98.69 32.9666 98.6C32.7166 98.51 32.4566 98.465 32.1866 98.465C31.9466 98.465 31.7216 98.495 31.5116 98.555C31.3116 98.615 31.1366 98.7 30.9866 98.81C30.8466 98.91 30.7366 99.035 30.6566 99.185C30.5866 99.335 30.5516 99.5 30.5516 99.68C30.5516 99.83 30.5816 99.965 30.6416 100.085C30.7016 100.205 30.7866 100.31 30.8966 100.4C31.0366 100.51 31.2316 100.615 31.4816 100.715C31.7416 100.805 32.0616 100.9 32.4416 101C32.8816 101.12 33.2516 101.245 33.5516 101.375C33.8616 101.495 34.1166 101.64 34.3166 101.81C34.5866 102.01 34.7766 102.24 34.8866 102.5C35.0066 102.76 35.0666 103.055 35.0666 103.385C35.0666 103.825 34.9416 104.215 34.6916 104.555C34.4516 104.895 34.1166 105.165 33.6866 105.365C33.2566 105.555 32.7666 105.65 32.2166 105.65ZM40.2944 105.65C39.5144 105.65 38.8194 105.475 38.2094 105.125C37.6094 104.775 37.1344 104.29 36.7844 103.67C36.4444 103.05 36.2744 102.345 36.2744 101.555C36.2744 100.775 36.4444 100.08 36.7844 99.47C37.1344 98.86 37.6094 98.38 38.2094 98.03C38.8194 97.68 39.5144 97.505 40.2944 97.505C41.0644 97.505 41.7494 97.68 42.3494 98.03C42.9594 98.38 43.4344 98.86 43.7744 99.47C44.1244 100.08 44.2994 100.775 44.2994 101.555C44.2994 102.345 44.1244 103.05 43.7744 103.67C43.4344 104.29 42.9594 104.775 42.3494 105.125C41.7494 105.475 41.0644 105.65 40.2944 105.65ZM40.2944 104.585C40.8444 104.585 41.3344 104.455 41.7644 104.195C42.1944 103.925 42.5294 103.565 42.7694 103.115C43.0094 102.655 43.1294 102.135 43.1294 101.555C43.1294 100.975 43.0094 100.46 42.7694 100.01C42.5294 99.56 42.1944 99.21 41.7644 98.96C41.3344 98.7 40.8444 98.57 40.2944 98.57C39.7444 98.57 39.2494 98.7 38.8094 98.96C38.3794 99.21 38.0394 99.565 37.7894 100.025C37.5494 100.475 37.4344 100.985 37.4444 101.555C37.4344 102.135 37.5494 102.655 37.7894 103.115C38.0394 103.565 38.3794 103.925 38.8094 104.195C39.2494 104.455 39.7444 104.585 40.2944 104.585ZM45.9707 105.5V94.4H47.0957V105.5H45.9707ZM49.6098 105.5V97.67H50.7348V105.5H49.6098ZM50.1648 95.975C49.8848 95.975 49.6698 95.905 49.5198 95.765C49.3798 95.615 49.3098 95.415 49.3098 95.165C49.3098 94.915 49.3848 94.715 49.5348 94.565C49.6848 94.415 49.8948 94.34 50.1648 94.34C50.4348 94.34 50.6448 94.415 50.7948 94.565C50.9448 94.705 51.0198 94.905 51.0198 95.165C51.0198 95.405 50.9448 95.6 50.7948 95.75C50.6448 95.9 50.4348 95.975 50.1648 95.975ZM56.3717 105.65C55.6617 105.65 55.0217 105.475 54.4517 105.125C53.8917 104.775 53.4467 104.295 53.1167 103.685C52.7967 103.065 52.6367 102.365 52.6367 101.585C52.6367 100.795 52.8017 100.095 53.1317 99.485C53.4617 98.865 53.9067 98.38 54.4667 98.03C55.0267 97.68 55.6567 97.505 56.3567 97.505C56.7467 97.505 57.1217 97.565 57.4817 97.685C57.8517 97.805 58.1817 97.975 58.4717 98.195C58.7617 98.405 59.0017 98.65 59.1917 98.93C59.3817 99.2 59.4967 99.485 59.5367 99.785L59.1917 99.665V94.4H60.3167V105.5H59.2067L59.1767 103.55L59.4617 103.445C59.4217 103.725 59.3067 104 59.1167 104.27C58.9367 104.53 58.7067 104.765 58.4267 104.975C58.1467 105.185 57.8267 105.35 57.4667 105.47C57.1167 105.59 56.7517 105.65 56.3717 105.65ZM56.5367 104.615C57.0567 104.615 57.5217 104.485 57.9317 104.225C58.3417 103.965 58.6617 103.605 58.8917 103.145C59.1317 102.685 59.2517 102.16 59.2517 101.57C59.2517 100.98 59.1317 100.46 58.8917 100.01C58.6617 99.55 58.3417 99.19 57.9317 98.93C57.5217 98.66 57.0567 98.525 56.5367 98.525C55.9967 98.525 55.5217 98.66 55.1117 98.93C54.7117 99.19 54.3917 99.55 54.1517 100.01C53.9217 100.46 53.8067 100.98 53.8067 101.57C53.8067 102.15 53.9217 102.67 54.1517 103.13C54.3817 103.59 54.7017 103.955 55.1117 104.225C55.5217 104.485 55.9967 104.615 56.5367 104.615ZM65.5681 105.65C64.8881 105.65 64.2731 105.475 63.7231 105.125C63.1731 104.765 62.7381 104.28 62.4181 103.67C62.0981 103.05 61.9381 102.35 61.9381 101.57C61.9381 100.78 62.1031 100.08 62.4331 99.47C62.7631 98.86 63.2031 98.38 63.7531 98.03C64.3131 97.68 64.9381 97.505 65.6281 97.505C66.0381 97.505 66.4181 97.565 66.7681 97.685C67.1181 97.805 67.4281 97.975 67.6981 98.195C67.9781 98.405 68.2081 98.655 68.3881 98.945C68.5781 99.225 68.7081 99.53 68.7781 99.86L68.4481 99.695L68.4931 97.67H69.6181V105.5H68.4781V103.58L68.7781 103.385C68.7081 103.685 68.5731 103.975 68.3731 104.255C68.1731 104.525 67.9281 104.765 67.6381 104.975C67.3581 105.185 67.0381 105.35 66.6781 105.47C66.3281 105.59 65.9581 105.65 65.5681 105.65ZM65.8231 104.57C66.3431 104.57 66.8081 104.445 67.2181 104.195C67.6281 103.935 67.9481 103.58 68.1781 103.13C68.4181 102.67 68.5381 102.15 68.5381 101.57C68.5381 100.99 68.4181 100.475 68.1781 100.025C67.9481 99.575 67.6281 99.22 67.2181 98.96C66.8081 98.7 66.3431 98.57 65.8231 98.57C65.2931 98.57 64.8231 98.7 64.4131 98.96C64.0131 99.22 63.6931 99.575 63.4531 100.025C63.2231 100.475 63.1081 100.99 63.1081 101.57C63.1081 102.14 63.2231 102.655 63.4531 103.115C63.6831 103.565 64.0031 103.92 64.4131 104.18C64.8231 104.44 65.2931 104.57 65.8231 104.57ZM72.8898 105.5V95.615H74.0148V105.5H72.8898ZM71.1198 98.75V97.67H75.9948V98.75H71.1198ZM77.6763 105.5V97.67H78.8013V105.5H77.6763ZM78.2313 95.975C77.9513 95.975 77.7363 95.905 77.5863 95.765C77.4463 95.615 77.3763 95.415 77.3763 95.165C77.3763 94.915 77.4513 94.715 77.6013 94.565C77.7513 94.415 77.9613 94.34 78.2313 94.34C78.5013 94.34 78.7113 94.415 78.8613 94.565C79.0113 94.705 79.0863 94.905 79.0863 95.165C79.0863 95.405 79.0113 95.6 78.8613 95.75C78.7113 95.9 78.5013 95.975 78.2313 95.975ZM84.7231 105.65C83.9431 105.65 83.2481 105.475 82.6381 105.125C82.0381 104.775 81.5631 104.29 81.2131 103.67C80.8731 103.05 80.7031 102.345 80.7031 101.555C80.7031 100.775 80.8731 100.08 81.2131 99.47C81.5631 98.86 82.0381 98.38 82.6381 98.03C83.2481 97.68 83.9431 97.505 84.7231 97.505C85.4931 97.505 86.1781 97.68 86.7781 98.03C87.3881 98.38 87.8631 98.86 88.2031 99.47C88.5531 100.08 88.7281 100.775 88.7281 101.555C88.7281 102.345 88.5531 103.05 88.2031 103.67C87.8631 104.29 87.3881 104.775 86.7781 105.125C86.1781 105.475 85.4931 105.65 84.7231 105.65ZM84.7231 104.585C85.2731 104.585 85.7631 104.455 86.1931 104.195C86.6231 103.925 86.9581 103.565 87.1981 103.115C87.4381 102.655 87.5581 102.135 87.5581 101.555C87.5581 100.975 87.4381 100.46 87.1981 100.01C86.9581 99.56 86.6231 99.21 86.1931 98.96C85.7631 98.7 85.2731 98.57 84.7231 98.57C84.1731 98.57 83.6781 98.7 83.2381 98.96C82.8081 99.21 82.4681 99.565 82.2181 100.025C81.9781 100.475 81.8631 100.985 81.8731 101.555C81.8631 102.135 81.9781 102.655 82.2181 103.115C82.4681 103.565 82.8081 103.925 83.2381 104.195C83.6781 104.455 84.1731 104.585 84.7231 104.585ZM90.3694 105.5V97.67H91.4794L91.5244 99.305L91.3444 99.38C91.4444 99.04 91.6394 98.73 91.9294 98.45C92.2194 98.17 92.5644 97.945 92.9644 97.775C93.3744 97.595 93.7944 97.505 94.2244 97.505C94.8044 97.505 95.2894 97.62 95.6794 97.85C96.0694 98.08 96.3644 98.435 96.5644 98.915C96.7644 99.395 96.8644 100.005 96.8644 100.745V105.5H95.7244V100.805C95.7244 100.285 95.6544 99.86 95.5144 99.53C95.3844 99.19 95.1794 98.94 94.8994 98.78C94.6194 98.62 94.2744 98.545 93.8644 98.555C93.5244 98.555 93.2094 98.615 92.9194 98.735C92.6294 98.845 92.3794 99 92.1694 99.2C91.9594 99.4 91.7944 99.63 91.6744 99.89C91.5544 100.15 91.4944 100.43 91.4944 100.73V105.5H90.9394C90.8694 105.5 90.7894 105.5 90.6994 105.5C90.6094 105.5 90.4994 105.5 90.3694 105.5Z" fill="#B3B3B3"/>
</svg>
