<svg width="137" height="112" viewBox="0 0 137 112" fill="none" xmlns="http://www.w3.org/2000/svg">
<path d="M9.17399 45.5L9.01398 45.1L17.494 27.42L17.974 30.42C17.574 31.2733 17.0807 32.0333 16.494 32.7C15.934 33.3667 15.2807 33.9533 14.534 34.46C13.814 34.94 13.0673 35.3133 12.294 35.58C11.5207 35.82 10.7473 35.94 9.97398 35.94C8.45398 35.94 7.05398 35.54 5.77398 34.74C4.49398 33.9133 3.46732 32.8333 2.69398 31.5C1.92065 30.14 1.53398 28.66 1.53398 27.06C1.53398 25.1667 1.97398 23.46 2.85398 21.94C3.73398 20.3933 4.92065 19.18 6.41398 18.3C7.93398 17.3933 9.64065 16.94 11.534 16.94C12.894 16.94 14.174 17.1933 15.374 17.7C16.6007 18.18 17.654 18.86 18.534 19.74C19.4407 20.62 20.1473 21.6333 20.654 22.78C21.1873 23.9267 21.454 25.14 21.454 26.42C21.454 27.1933 21.374 27.9933 21.214 28.82C21.0807 29.62 20.854 30.5 20.534 31.46C20.214 32.42 19.8007 33.4733 19.294 34.62C18.814 35.7667 18.2273 37.0733 17.534 38.54L14.134 45.5H9.17399ZM11.134 31.46C12.094 31.46 12.9607 31.2467 13.734 30.82C14.5073 30.3667 15.1073 29.78 15.534 29.06C15.9607 28.34 16.174 27.5133 16.174 26.58C16.174 25.62 15.9607 24.7533 15.534 23.98C15.1073 23.2067 14.5207 22.6067 13.774 22.18C13.0273 21.7267 12.174 21.5 11.214 21.5C10.3073 21.5 9.50732 21.7133 8.81398 22.14C8.12065 22.5667 7.56065 23.1667 7.13398 23.94C6.73398 24.6867 6.53398 25.5667 6.53398 26.58C6.53398 27.4333 6.73398 28.2333 7.13398 28.98C7.56065 29.7267 8.12065 30.3267 8.81398 30.78C9.53398 31.2333 10.3073 31.46 11.134 31.46ZM31.3168 43.54V20.82L32.7968 22.74L27.1168 25.62L25.9568 21.06L33.5968 17.1H36.4768V43.54H31.3168ZM26.6368 45.5V40.7H41.2768V45.5H26.6368ZM49.3752 45.5L67.8952 17.5H72.6552L53.9352 45.5H49.3752ZM51.6552 32.34C50.4019 32.34 49.2819 32.0067 48.2952 31.34C47.3352 30.6733 46.5752 29.7667 46.0152 28.62C45.4819 27.4733 45.2152 26.1667 45.2152 24.7C45.2152 23.2067 45.4819 21.8867 46.0152 20.74C46.5752 19.5667 47.3352 18.6467 48.2952 17.98C49.2819 17.3133 50.4152 16.98 51.6952 16.98C52.9486 16.98 54.0552 17.3133 55.0152 17.98C56.0019 18.6467 56.7619 19.5667 57.2952 20.74C57.8552 21.8867 58.1352 23.2067 58.1352 24.7C58.1352 26.14 57.8552 27.4467 57.2952 28.62C56.7352 29.7667 55.9619 30.6733 54.9752 31.34C53.9886 32.0067 52.8819 32.34 51.6552 32.34ZM51.6952 28.94C52.2019 28.94 52.6419 28.7667 53.0152 28.42C53.3886 28.0733 53.6819 27.5933 53.8952 26.98C54.1086 26.34 54.2152 25.58 54.2152 24.7C54.2152 23.82 54.1086 23.06 53.8952 22.42C53.6819 21.78 53.3886 21.2867 53.0152 20.94C52.6419 20.5933 52.1886 20.42 51.6552 20.42C51.1486 20.42 50.6952 20.6067 50.2952 20.98C49.9219 21.3267 49.6286 21.82 49.4152 22.46C49.2019 23.0733 49.0952 23.82 49.0952 24.7C49.0952 25.58 49.1886 26.34 49.3752 26.98C49.5886 27.5933 49.8952 28.0733 50.2952 28.42C50.6952 28.7667 51.1619 28.94 51.6952 28.94ZM70.6552 45.86C69.4019 45.86 68.2819 45.5267 67.2952 44.86C66.3352 44.1933 65.5752 43.2867 65.0152 42.14C64.4552 40.9933 64.1752 39.6867 64.1752 38.22C64.1752 36.7267 64.4419 35.4067 64.9752 34.26C65.5352 33.0867 66.3086 32.1667 67.2952 31.5C68.2819 30.8333 69.4019 30.5 70.6552 30.5C71.9352 30.5 73.0552 30.8333 74.0152 31.5C74.9752 32.1667 75.7219 33.0867 76.2552 34.26C76.8152 35.4067 77.0952 36.7267 77.0952 38.22C77.0952 39.66 76.8152 40.9667 76.2552 42.14C75.6952 43.2867 74.9219 44.1933 73.9352 44.86C72.9752 45.5267 71.8819 45.86 70.6552 45.86ZM70.6552 42.5C71.1619 42.5 71.6019 42.3267 71.9752 41.98C72.3752 41.6067 72.6819 41.1133 72.8952 40.5C73.1086 39.86 73.2152 39.1 73.2152 38.22C73.2152 37.3667 73.1086 36.62 72.8952 35.98C72.6819 35.34 72.3752 34.8467 71.9752 34.5C71.6019 34.1267 71.1619 33.94 70.6552 33.94C70.1219 33.94 69.6552 34.1133 69.2552 34.46C68.8819 34.8067 68.5886 35.3133 68.3752 35.98C68.1619 36.62 68.0552 37.3667 68.0552 38.22C68.0552 39.1 68.1619 39.86 68.3752 40.5C68.5886 41.1133 68.8819 41.6067 69.2552 41.98C69.6552 42.3267 70.1219 42.5 70.6552 42.5Z" fill="#CAFF33"/>
<path d="M1.87898 82.5V72H5.98898C6.59898 72 7.14898 72.145 7.63898 72.435C8.13898 72.715 8.53398 73.1 8.82399 73.59C9.11398 74.08 9.25898 74.635 9.25898 75.255C9.25898 75.835 9.11898 76.36 8.83898 76.83C8.55898 77.3 8.17898 77.675 7.69898 77.955C7.21898 78.225 6.67898 78.36 6.07898 78.36H3.04898V82.5H1.87898ZM8.28398 82.5L5.64398 77.88L6.76898 77.49L9.67898 82.5H8.28398ZM3.04898 77.22H6.18398C6.55398 77.22 6.87898 77.135 7.15898 76.965C7.43898 76.795 7.65898 76.565 7.81898 76.275C7.97898 75.975 8.05899 75.635 8.05899 75.255C8.05899 74.845 7.96398 74.48 7.77398 74.16C7.58398 73.84 7.31898 73.59 6.97898 73.41C6.64898 73.23 6.26898 73.14 5.83898 73.14H3.04898V77.22ZM14.4884 82.65C13.7084 82.65 13.0134 82.48 12.4034 82.14C11.8034 81.8 11.3334 81.325 10.9934 80.715C10.6534 80.105 10.4834 79.405 10.4834 78.615C10.4834 78.005 10.5784 77.455 10.7684 76.965C10.9584 76.465 11.2234 76.03 11.5634 75.66C11.9134 75.29 12.3284 75.005 12.8084 74.805C13.2884 74.595 13.8084 74.49 14.3684 74.49C14.8984 74.49 15.3784 74.585 15.8084 74.775C16.2484 74.965 16.6234 75.23 16.9334 75.57C17.2534 75.9 17.4934 76.295 17.6534 76.755C17.8134 77.215 17.8834 77.72 17.8634 78.27L17.8484 78.795H11.3234L11.1584 77.85H16.9934L16.7234 78.105V77.745C16.7034 77.385 16.5984 77.04 16.4084 76.71C16.2184 76.37 15.9484 76.095 15.5984 75.885C15.2584 75.675 14.8484 75.57 14.3684 75.57C13.8084 75.57 13.3234 75.685 12.9134 75.915C12.5034 76.135 12.1884 76.465 11.9684 76.905C11.7484 77.345 11.6384 77.89 11.6384 78.54C11.6384 79.16 11.7584 79.7 11.9984 80.16C12.2384 80.61 12.5784 80.96 13.0184 81.21C13.4684 81.46 14.0084 81.585 14.6384 81.585C15.0084 81.585 15.3734 81.525 15.7334 81.405C16.1034 81.275 16.5084 81.025 16.9484 80.655L17.5334 81.465C17.3034 81.695 17.0284 81.9 16.7084 82.08C16.3884 82.25 16.0384 82.39 15.6584 82.5C15.2784 82.6 14.8884 82.65 14.4884 82.65ZM22.6412 82.65C21.9312 82.65 21.2912 82.475 20.7212 82.125C20.1612 81.775 19.7162 81.295 19.3862 80.685C19.0662 80.065 18.9062 79.365 18.9062 78.585C18.9062 77.795 19.0712 77.095 19.4012 76.485C19.7312 75.865 20.1762 75.38 20.7362 75.03C21.2962 74.68 21.9262 74.505 22.6262 74.505C23.0162 74.505 23.3912 74.565 23.7512 74.685C24.1212 74.805 24.4512 74.975 24.7412 75.195C25.0312 75.405 25.2712 75.65 25.4612 75.93C25.6512 76.2 25.7662 76.485 25.8062 76.785L25.4612 76.665V71.4H26.5862V82.5H25.4762L25.4462 80.55L25.7312 80.445C25.6912 80.725 25.5762 81 25.3862 81.27C25.2062 81.53 24.9762 81.765 24.6962 81.975C24.4162 82.185 24.0962 82.35 23.7362 82.47C23.3862 82.59 23.0212 82.65 22.6412 82.65ZM22.8062 81.615C23.3262 81.615 23.7912 81.485 24.2012 81.225C24.6112 80.965 24.9312 80.605 25.1612 80.145C25.4012 79.685 25.5212 79.16 25.5212 78.57C25.5212 77.98 25.4012 77.46 25.1612 77.01C24.9312 76.55 24.6112 76.19 24.2012 75.93C23.7912 75.66 23.3262 75.525 22.8062 75.525C22.2662 75.525 21.7912 75.66 21.3812 75.93C20.9812 76.19 20.6612 76.55 20.4212 77.01C20.1912 77.46 20.0762 77.98 20.0762 78.57C20.0762 79.15 20.1912 79.67 20.4212 80.13C20.6512 80.59 20.9712 80.955 21.3812 81.225C21.7912 81.485 22.2662 81.615 22.8062 81.615ZM31.787 82.65C31.187 82.65 30.677 82.53 30.257 82.29C29.847 82.04 29.532 81.68 29.312 81.21C29.102 80.74 28.997 80.155 28.997 79.455V74.67H30.137V79.23C30.137 79.76 30.207 80.205 30.347 80.565C30.497 80.915 30.717 81.18 31.007 81.36C31.307 81.54 31.672 81.63 32.102 81.63C32.432 81.63 32.737 81.575 33.017 81.465C33.297 81.345 33.542 81.185 33.752 80.985C33.962 80.785 34.127 80.55 34.247 80.28C34.367 80.01 34.427 79.725 34.427 79.425V74.67H35.552V82.5H34.442L34.397 80.85L34.577 80.76C34.457 81.11 34.257 81.43 33.977 81.72C33.697 82 33.362 82.225 32.972 82.395C32.592 82.565 32.197 82.65 31.787 82.65ZM41.0425 82.65C40.3025 82.65 39.6425 82.475 39.0625 82.125C38.4825 81.765 38.0225 81.28 37.6825 80.67C37.3525 80.05 37.1875 79.35 37.1875 78.57C37.1875 77.79 37.3525 77.095 37.6825 76.485C38.0225 75.865 38.4825 75.38 39.0625 75.03C39.6425 74.68 40.3075 74.505 41.0575 74.505C41.7275 74.505 42.3375 74.64 42.8875 74.91C43.4375 75.17 43.8775 75.535 44.2075 76.005L43.5475 76.815C43.3575 76.565 43.1275 76.345 42.8575 76.155C42.5975 75.965 42.3125 75.82 42.0025 75.72C41.7025 75.61 41.4025 75.555 41.1025 75.555C40.5725 75.555 40.0975 75.69 39.6775 75.96C39.2575 76.22 38.9225 76.575 38.6725 77.025C38.4325 77.475 38.3125 77.99 38.3125 78.57C38.3125 79.15 38.4325 79.67 38.6725 80.13C38.9225 80.58 39.2575 80.935 39.6775 81.195C40.0975 81.455 40.5675 81.585 41.0875 81.585C41.3875 81.585 41.6825 81.54 41.9725 81.45C42.2625 81.35 42.5375 81.21 42.7975 81.03C43.0575 80.85 43.2975 80.625 43.5175 80.355L44.1775 81.165C43.8375 81.615 43.3825 81.975 42.8125 82.245C42.2425 82.515 41.6525 82.65 41.0425 82.65ZM45.938 82.5V74.67H47.063V82.5H45.938ZM46.493 72.975C46.213 72.975 45.998 72.905 45.848 72.765C45.708 72.615 45.638 72.415 45.638 72.165C45.638 71.915 45.713 71.715 45.863 71.565C46.013 71.415 46.223 71.34 46.493 71.34C46.763 71.34 46.973 71.415 47.123 71.565C47.273 71.705 47.348 71.905 47.348 72.165C47.348 72.405 47.273 72.6 47.123 72.75C46.973 72.9 46.763 72.975 46.493 72.975ZM49.5198 82.5V74.67H50.6298L50.6748 76.305L50.4948 76.38C50.5948 76.04 50.7898 75.73 51.0798 75.45C51.3698 75.17 51.7148 74.945 52.1148 74.775C52.5248 74.595 52.9448 74.505 53.3748 74.505C53.9548 74.505 54.4398 74.62 54.8298 74.85C55.2198 75.08 55.5148 75.435 55.7148 75.915C55.9148 76.395 56.0148 77.005 56.0148 77.745V82.5H54.8748V77.805C54.8748 77.285 54.8048 76.86 54.6648 76.53C54.5348 76.19 54.3298 75.94 54.0498 75.78C53.7698 75.62 53.4248 75.545 53.0148 75.555C52.6748 75.555 52.3598 75.615 52.0698 75.735C51.7798 75.845 51.5298 76 51.3198 76.2C51.1098 76.4 50.9448 76.63 50.8248 76.89C50.7048 77.15 50.6448 77.43 50.6448 77.73V82.5H50.0898C50.0198 82.5 49.9398 82.5 49.8498 82.5C49.7598 82.5 49.6498 82.5 49.5198 82.5ZM61.5374 85.95C60.9574 85.95 60.4074 85.86 59.8874 85.68C59.3674 85.5 58.9374 85.275 58.5974 85.005L59.0474 84.06C59.2474 84.22 59.4774 84.36 59.7374 84.48C60.0074 84.61 60.2974 84.71 60.6074 84.78C60.9174 84.86 61.2324 84.9 61.5524 84.9C62.1324 84.9 62.6224 84.79 63.0224 84.57C63.4324 84.36 63.7424 84.045 63.9524 83.625C64.1724 83.205 64.2824 82.685 64.2824 82.065V80.565L64.4624 80.52C64.3724 80.9 64.1774 81.255 63.8774 81.585C63.5774 81.905 63.2124 82.165 62.7824 82.365C62.3524 82.555 61.8974 82.65 61.4174 82.65C60.6874 82.65 60.0324 82.475 59.4524 82.125C58.8824 81.775 58.4324 81.295 58.1024 80.685C57.7724 80.065 57.6074 79.365 57.6074 78.585C57.6074 77.795 57.7724 77.095 58.1024 76.485C58.4424 75.865 58.8974 75.38 59.4674 75.03C60.0374 74.68 60.6774 74.505 61.3874 74.505C61.6974 74.505 61.9974 74.545 62.2874 74.625C62.5774 74.695 62.8424 74.8 63.0824 74.94C63.3324 75.08 63.5574 75.24 63.7574 75.42C63.9574 75.6 64.1224 75.795 64.2524 76.005C64.3924 76.215 64.4924 76.43 64.5524 76.65L64.2374 76.605L64.2824 74.67H65.4074V82.02C65.4074 82.65 65.3174 83.205 65.1374 83.685C64.9574 84.175 64.6924 84.585 64.3424 84.915C64.0024 85.255 63.5924 85.51 63.1124 85.68C62.6424 85.86 62.1174 85.95 61.5374 85.95ZM61.5524 81.57C62.0824 81.57 62.5524 81.445 62.9624 81.195C63.3824 80.935 63.7124 80.58 63.9524 80.13C64.1924 79.68 64.3124 79.16 64.3124 78.57C64.3124 77.99 64.1924 77.475 63.9524 77.025C63.7224 76.575 63.3974 76.22 62.9774 75.96C62.5574 75.7 62.0824 75.57 61.5524 75.57C61.0124 75.57 60.5324 75.7 60.1124 75.96C59.7024 76.22 59.3774 76.575 59.1374 77.025C58.8974 77.475 58.7774 77.99 58.7774 78.57C58.7774 79.14 58.8924 79.655 59.1224 80.115C59.3624 80.565 59.6874 80.92 60.0974 81.18C60.5174 81.44 61.0024 81.57 61.5524 81.57ZM72.7001 82.5V73.455C72.7001 73.065 72.7851 72.72 72.9551 72.42C73.1251 72.12 73.3651 71.885 73.6751 71.715C73.9951 71.535 74.3651 71.445 74.7851 71.445C75.1051 71.445 75.3901 71.505 75.6401 71.625C75.9001 71.735 76.1151 71.89 76.2851 72.09L75.8951 72.975C75.7351 72.805 75.5601 72.685 75.3701 72.615C75.1901 72.535 75.0151 72.495 74.8451 72.495C74.6251 72.495 74.4401 72.535 74.2901 72.615C74.1401 72.685 74.0251 72.795 73.9451 72.945C73.8751 73.085 73.8401 73.255 73.8401 73.455V82.5H73.3151C73.2051 82.5 73.1001 82.5 73.0001 82.5C72.9001 82.5 72.8001 82.5 72.7001 82.5ZM71.3051 75.78V74.73H75.8351V75.78H71.3051ZM77.7701 82.5V74.67H78.8951V82.5H77.7701ZM78.3251 72.975C78.0451 72.975 77.8301 72.905 77.6801 72.765C77.5401 72.615 77.4701 72.415 77.4701 72.165C77.4701 71.915 77.5451 71.715 77.6951 71.565C77.8451 71.415 78.0551 71.34 78.3251 71.34C78.5951 71.34 78.8051 71.415 78.9551 71.565C79.1051 71.705 79.1801 71.905 79.1801 72.165C79.1801 72.405 79.1051 72.6 78.9551 72.75C78.8051 72.9 78.5951 72.975 78.3251 72.975ZM81.3509 82.5V74.67H82.4609L82.5059 76.305L82.3259 76.38C82.4259 76.04 82.6209 75.73 82.9109 75.45C83.2009 75.17 83.5459 74.945 83.9459 74.775C84.3559 74.595 84.7759 74.505 85.2059 74.505C85.7859 74.505 86.2709 74.62 86.6609 74.85C87.0509 75.08 87.3459 75.435 87.5459 75.915C87.7459 76.395 87.8459 77.005 87.8459 77.745V82.5H86.7059V77.805C86.7059 77.285 86.6359 76.86 86.4959 76.53C86.3659 76.19 86.1609 75.94 85.8809 75.78C85.6009 75.62 85.2559 75.545 84.8459 75.555C84.5059 75.555 84.1909 75.615 83.9009 75.735C83.6109 75.845 83.3609 76 83.1509 76.2C82.9409 76.4 82.7759 76.63 82.6559 76.89C82.5359 77.15 82.4759 77.43 82.4759 77.73V82.5H81.9209C81.8509 82.5 81.7709 82.5 81.6809 82.5C81.5909 82.5 81.4809 82.5 81.3509 82.5ZM93.0534 82.65C92.3734 82.65 91.7584 82.475 91.2084 82.125C90.6584 81.765 90.2234 81.28 89.9034 80.67C89.5834 80.05 89.4234 79.35 89.4234 78.57C89.4234 77.78 89.5884 77.08 89.9184 76.47C90.2484 75.86 90.6884 75.38 91.2384 75.03C91.7984 74.68 92.4234 74.505 93.1134 74.505C93.5234 74.505 93.9034 74.565 94.2534 74.685C94.6034 74.805 94.9134 74.975 95.1834 75.195C95.4634 75.405 95.6934 75.655 95.8734 75.945C96.0634 76.225 96.1934 76.53 96.2634 76.86L95.9334 76.695L95.9784 74.67H97.1034V82.5H95.9634V80.58L96.2634 80.385C96.1934 80.685 96.0584 80.975 95.8584 81.255C95.6584 81.525 95.4134 81.765 95.1234 81.975C94.8434 82.185 94.5234 82.35 94.1634 82.47C93.8134 82.59 93.4434 82.65 93.0534 82.65ZM93.3084 81.57C93.8284 81.57 94.2934 81.445 94.7034 81.195C95.1134 80.935 95.4334 80.58 95.6634 80.13C95.9034 79.67 96.0234 79.15 96.0234 78.57C96.0234 77.99 95.9034 77.475 95.6634 77.025C95.4334 76.575 95.1134 76.22 94.7034 75.96C94.2934 75.7 93.8284 75.57 93.3084 75.57C92.7784 75.57 92.3084 75.7 91.8984 75.96C91.4984 76.22 91.1784 76.575 90.9384 77.025C90.7084 77.475 90.5934 77.99 90.5934 78.57C90.5934 79.14 90.7084 79.655 90.9384 80.115C91.1684 80.565 91.4884 80.92 91.8984 81.18C92.3084 81.44 92.7784 81.57 93.3084 81.57ZM99.2952 82.5V74.67H100.405L100.45 76.305L100.27 76.38C100.37 76.04 100.565 75.73 100.855 75.45C101.145 75.17 101.49 74.945 101.89 74.775C102.3 74.595 102.72 74.505 103.15 74.505C103.73 74.505 104.215 74.62 104.605 74.85C104.995 75.08 105.29 75.435 105.49 75.915C105.69 76.395 105.79 77.005 105.79 77.745V82.5H104.65V77.805C104.65 77.285 104.58 76.86 104.44 76.53C104.31 76.19 104.105 75.94 103.825 75.78C103.545 75.62 103.2 75.545 102.79 75.555C102.45 75.555 102.135 75.615 101.845 75.735C101.555 75.845 101.305 76 101.095 76.2C100.885 76.4 100.72 76.63 100.6 76.89C100.48 77.15 100.42 77.43 100.42 77.73V82.5H99.8652C99.7952 82.5 99.7152 82.5 99.6252 82.5C99.5352 82.5 99.4252 82.5 99.2952 82.5ZM111.238 82.65C110.498 82.65 109.838 82.475 109.258 82.125C108.678 81.765 108.218 81.28 107.878 80.67C107.548 80.05 107.383 79.35 107.383 78.57C107.383 77.79 107.548 77.095 107.878 76.485C108.218 75.865 108.678 75.38 109.258 75.03C109.838 74.68 110.503 74.505 111.253 74.505C111.923 74.505 112.533 74.64 113.083 74.91C113.633 75.17 114.073 75.535 114.403 76.005L113.743 76.815C113.553 76.565 113.323 76.345 113.053 76.155C112.793 75.965 112.508 75.82 112.198 75.72C111.898 75.61 111.598 75.555 111.298 75.555C110.768 75.555 110.293 75.69 109.873 75.96C109.453 76.22 109.118 76.575 108.868 77.025C108.628 77.475 108.508 77.99 108.508 78.57C108.508 79.15 108.628 79.67 108.868 80.13C109.118 80.58 109.453 80.935 109.873 81.195C110.293 81.455 110.763 81.585 111.283 81.585C111.583 81.585 111.878 81.54 112.168 81.45C112.458 81.35 112.733 81.21 112.993 81.03C113.253 80.85 113.493 80.625 113.713 80.355L114.373 81.165C114.033 81.615 113.578 81.975 113.008 82.245C112.438 82.515 111.848 82.65 111.238 82.65ZM116.133 82.5V74.67H117.258V82.5H116.133ZM116.688 72.975C116.408 72.975 116.193 72.905 116.043 72.765C115.903 72.615 115.833 72.415 115.833 72.165C115.833 71.915 115.908 71.715 116.058 71.565C116.208 71.415 116.418 71.34 116.688 71.34C116.958 71.34 117.168 71.415 117.318 71.565C117.468 71.705 117.543 71.905 117.543 72.165C117.543 72.405 117.468 72.6 117.318 72.75C117.168 72.9 116.958 72.975 116.688 72.975ZM122.775 82.65C122.095 82.65 121.48 82.475 120.93 82.125C120.38 81.765 119.945 81.28 119.625 80.67C119.305 80.05 119.145 79.35 119.145 78.57C119.145 77.78 119.31 77.08 119.64 76.47C119.97 75.86 120.41 75.38 120.96 75.03C121.52 74.68 122.145 74.505 122.835 74.505C123.245 74.505 123.625 74.565 123.975 74.685C124.325 74.805 124.635 74.975 124.905 75.195C125.185 75.405 125.415 75.655 125.595 75.945C125.785 76.225 125.915 76.53 125.985 76.86L125.655 76.695L125.7 74.67H126.825V82.5H125.685V80.58L125.985 80.385C125.915 80.685 125.78 80.975 125.58 81.255C125.38 81.525 125.135 81.765 124.845 81.975C124.565 82.185 124.245 82.35 123.885 82.47C123.535 82.59 123.165 82.65 122.775 82.65ZM123.03 81.57C123.55 81.57 124.015 81.445 124.425 81.195C124.835 80.935 125.155 80.58 125.385 80.13C125.625 79.67 125.745 79.15 125.745 78.57C125.745 77.99 125.625 77.475 125.385 77.025C125.155 76.575 124.835 76.22 124.425 75.96C124.015 75.7 123.55 75.57 123.03 75.57C122.5 75.57 122.03 75.7 121.62 75.96C121.22 76.22 120.9 76.575 120.66 77.025C120.43 77.475 120.315 77.99 120.315 78.57C120.315 79.14 120.43 79.655 120.66 80.115C120.89 80.565 121.21 80.92 121.62 81.18C122.03 81.44 122.5 81.57 123.03 81.57ZM129.047 82.5V71.4H130.172V82.5H129.047ZM5.40398 105.65C5.03398 105.65 4.67398 105.595 4.32398 105.485C3.97398 105.365 3.65398 105.205 3.36398 105.005C3.08398 104.805 2.84398 104.575 2.64398 104.315C2.45398 104.055 2.32398 103.785 2.25398 103.505L2.58398 103.52L2.53898 105.485H1.42898V94.4H2.55398V99.545L2.32898 99.605C2.39898 99.325 2.52398 99.06 2.70398 98.81C2.89398 98.55 3.12898 98.325 3.40898 98.135C3.68898 97.935 3.99398 97.78 4.32398 97.67C4.66398 97.56 5.01398 97.505 5.37398 97.505C6.07398 97.505 6.69898 97.68 7.24898 98.03C7.80898 98.38 8.25398 98.86 8.58398 99.47C8.91398 100.08 9.07898 100.78 9.07898 101.57C9.07898 102.36 8.91898 103.065 8.59898 103.685C8.27898 104.295 7.83899 104.775 7.27898 105.125C6.72898 105.475 6.10398 105.65 5.40398 105.65ZM5.22398 104.585C5.75398 104.585 6.22398 104.455 6.63398 104.195C7.04398 103.925 7.36398 103.565 7.59398 103.115C7.83398 102.655 7.95398 102.14 7.95398 101.57C7.95398 100.99 7.83398 100.475 7.59398 100.025C7.36398 99.575 7.04398 99.22 6.63398 98.96C6.22398 98.7 5.75398 98.57 5.22398 98.57C4.69398 98.57 4.22398 98.7 3.81398 98.96C3.40398 99.22 3.07898 99.575 2.83898 100.025C2.60898 100.475 2.49398 100.99 2.49398 101.57C2.49398 102.15 2.60898 102.67 2.83898 103.13C3.07898 103.58 3.40398 103.935 3.81398 104.195C4.22398 104.455 4.69398 104.585 5.22398 104.585ZM13.4911 105.65C12.8911 105.65 12.3811 105.53 11.9611 105.29C11.5511 105.04 11.2361 104.68 11.0161 104.21C10.8061 103.74 10.7011 103.155 10.7011 102.455V97.67H11.8411V102.23C11.8411 102.76 11.9111 103.205 12.0511 103.565C12.2011 103.915 12.4211 104.18 12.7111 104.36C13.0111 104.54 13.3761 104.63 13.8061 104.63C14.1361 104.63 14.4411 104.575 14.7211 104.465C15.0011 104.345 15.2461 104.185 15.4561 103.985C15.6661 103.785 15.8311 103.55 15.9511 103.28C16.0711 103.01 16.1311 102.725 16.1311 102.425V97.67H17.2561V105.5H16.1461L16.1011 103.85L16.2811 103.76C16.1611 104.11 15.9611 104.43 15.6811 104.72C15.4011 105 15.0661 105.225 14.6761 105.395C14.2961 105.565 13.9011 105.65 13.4911 105.65ZM19.4466 105.5V97.67H20.5716L20.6016 99.755L20.4816 99.47C20.5916 99.12 20.7666 98.795 21.0066 98.495C21.2566 98.195 21.5516 97.955 21.8916 97.775C22.2316 97.595 22.6066 97.505 23.0166 97.505C23.1866 97.505 23.3466 97.52 23.4966 97.55C23.6466 97.57 23.7716 97.6 23.8716 97.64L23.5566 98.9C23.4266 98.84 23.2916 98.8 23.1516 98.78C23.0216 98.75 22.8966 98.735 22.7766 98.735C22.4366 98.735 22.1316 98.795 21.8616 98.915C21.5916 99.035 21.3616 99.205 21.1716 99.425C20.9816 99.635 20.8366 99.88 20.7366 100.16C20.6366 100.44 20.5866 100.74 20.5866 101.06V105.5H19.4466ZM27.8854 105.65C27.1754 105.65 26.5354 105.475 25.9654 105.125C25.4054 104.775 24.9604 104.295 24.6304 103.685C24.3104 103.065 24.1504 102.365 24.1504 101.585C24.1504 100.795 24.3154 100.095 24.6454 99.485C24.9754 98.865 25.4204 98.38 25.9804 98.03C26.5404 97.68 27.1704 97.505 27.8704 97.505C28.2604 97.505 28.6354 97.565 28.9954 97.685C29.3654 97.805 29.6954 97.975 29.9854 98.195C30.2754 98.405 30.5154 98.65 30.7054 98.93C30.8954 99.2 31.0104 99.485 31.0504 99.785L30.7054 99.665V94.4H31.8304V105.5H30.7204L30.6904 103.55L30.9754 103.445C30.9354 103.725 30.8204 104 30.6304 104.27C30.4504 104.53 30.2204 104.765 29.9404 104.975C29.6604 105.185 29.3404 105.35 28.9804 105.47C28.6304 105.59 28.2654 105.65 27.8854 105.65ZM28.0504 104.615C28.5704 104.615 29.0354 104.485 29.4454 104.225C29.8554 103.965 30.1754 103.605 30.4054 103.145C30.6454 102.685 30.7654 102.16 30.7654 101.57C30.7654 100.98 30.6454 100.46 30.4054 100.01C30.1754 99.55 29.8554 99.19 29.4454 98.93C29.0354 98.66 28.5704 98.525 28.0504 98.525C27.5104 98.525 27.0354 98.66 26.6254 98.93C26.2254 99.19 25.9054 99.55 25.6654 100.01C25.4354 100.46 25.3204 100.98 25.3204 101.57C25.3204 102.15 25.4354 102.67 25.6654 103.13C25.8954 103.59 26.2154 103.955 26.6254 104.225C27.0354 104.485 27.5104 104.615 28.0504 104.615ZM37.4718 105.65C36.6918 105.65 35.9968 105.48 35.3868 105.14C34.7868 104.8 34.3168 104.325 33.9768 103.715C33.6368 103.105 33.4668 102.405 33.4668 101.615C33.4668 101.005 33.5618 100.455 33.7518 99.965C33.9418 99.465 34.2068 99.03 34.5468 98.66C34.8968 98.29 35.3118 98.005 35.7918 97.805C36.2718 97.595 36.7918 97.49 37.3518 97.49C37.8818 97.49 38.3618 97.585 38.7918 97.775C39.2318 97.965 39.6068 98.23 39.9168 98.57C40.2368 98.9 40.4768 99.295 40.6368 99.755C40.7968 100.215 40.8668 100.72 40.8468 101.27L40.8318 101.795H34.3068L34.1418 100.85H39.9768L39.7068 101.105V100.745C39.6868 100.385 39.5818 100.04 39.3918 99.71C39.2018 99.37 38.9318 99.095 38.5818 98.885C38.2418 98.675 37.8318 98.57 37.3518 98.57C36.7918 98.57 36.3068 98.685 35.8968 98.915C35.4868 99.135 35.1718 99.465 34.9518 99.905C34.7318 100.345 34.6218 100.89 34.6218 101.54C34.6218 102.16 34.7418 102.7 34.9818 103.16C35.2218 103.61 35.5618 103.96 36.0018 104.21C36.4518 104.46 36.9918 104.585 37.6218 104.585C37.9918 104.585 38.3568 104.525 38.7168 104.405C39.0868 104.275 39.4918 104.025 39.9318 103.655L40.5168 104.465C40.2868 104.695 40.0118 104.9 39.6918 105.08C39.3718 105.25 39.0218 105.39 38.6418 105.5C38.2618 105.6 37.8718 105.65 37.4718 105.65ZM42.4446 105.5V97.67H43.5546L43.5996 99.305L43.4196 99.38C43.5196 99.04 43.7146 98.73 44.0046 98.45C44.2946 98.17 44.6396 97.945 45.0396 97.775C45.4496 97.595 45.8696 97.505 46.2996 97.505C46.8796 97.505 47.3646 97.62 47.7546 97.85C48.1446 98.08 48.4396 98.435 48.6396 98.915C48.8396 99.395 48.9396 100.005 48.9396 100.745V105.5H47.7996V100.805C47.7996 100.285 47.7296 99.86 47.5896 99.53C47.4596 99.19 47.2546 98.94 46.9746 98.78C46.6946 98.62 46.3496 98.545 45.9396 98.555C45.5996 98.555 45.2846 98.615 44.9946 98.735C44.7046 98.845 44.4546 99 44.2446 99.2C44.0346 99.4 43.8696 99.63 43.7496 99.89C43.6296 100.15 43.5696 100.43 43.5696 100.73V105.5H43.0146C42.9446 105.5 42.8646 105.5 42.7746 105.5C42.6846 105.5 42.5746 105.5 42.4446 105.5ZM53.6522 105.65C52.9822 105.65 52.3822 105.525 51.8522 105.275C51.3222 105.025 50.9022 104.695 50.5922 104.285L51.3872 103.595C51.6772 103.945 52.0172 104.21 52.4072 104.39C52.8072 104.57 53.2522 104.66 53.7422 104.66C53.9922 104.66 54.2172 104.635 54.4172 104.585C54.6172 104.525 54.7922 104.44 54.9422 104.33C55.0922 104.22 55.2072 104.09 55.2872 103.94C55.3672 103.79 55.4072 103.625 55.4072 103.445C55.4072 103.115 55.2622 102.84 54.9722 102.62C54.8422 102.53 54.6572 102.44 54.4172 102.35C54.1772 102.25 53.8872 102.155 53.5472 102.065C52.9872 101.905 52.5222 101.745 52.1522 101.585C51.7822 101.415 51.4922 101.22 51.2822 101C51.1322 100.82 51.0172 100.625 50.9372 100.415C50.8672 100.205 50.8322 99.975 50.8322 99.725C50.8322 99.405 50.8972 99.11 51.0272 98.84C51.1672 98.57 51.3572 98.335 51.5972 98.135C51.8472 97.925 52.1372 97.77 52.4672 97.67C52.8072 97.56 53.1722 97.505 53.5622 97.505C53.9322 97.505 54.2972 97.555 54.6572 97.655C55.0172 97.755 55.3522 97.9 55.6622 98.09C55.9722 98.28 56.2372 98.505 56.4572 98.765L55.7672 99.515C55.5772 99.315 55.3672 99.135 55.1372 98.975C54.9072 98.815 54.6622 98.69 54.4022 98.6C54.1522 98.51 53.8922 98.465 53.6222 98.465C53.3822 98.465 53.1572 98.495 52.9472 98.555C52.7472 98.615 52.5722 98.7 52.4222 98.81C52.2822 98.91 52.1722 99.035 52.0922 99.185C52.0222 99.335 51.9872 99.5 51.9872 99.68C51.9872 99.83 52.0172 99.965 52.0772 100.085C52.1372 100.205 52.2222 100.31 52.3322 100.4C52.4722 100.51 52.6672 100.615 52.9172 100.715C53.1772 100.805 53.4972 100.9 53.8772 101C54.3172 101.12 54.6872 101.245 54.9872 101.375C55.2972 101.495 55.5522 101.64 55.7522 101.81C56.0222 102.01 56.2122 102.24 56.3222 102.5C56.4422 102.76 56.5022 103.055 56.5022 103.385C56.5022 103.825 56.3772 104.215 56.1272 104.555C55.8872 104.895 55.5522 105.165 55.1222 105.365C54.6922 105.555 54.2022 105.65 53.6522 105.65Z" fill="#B3B3B3"/>
</svg>
