<svg width="137" height="114" viewBox="0 0 137 114" fill="none" xmlns="http://www.w3.org/2000/svg">
<path d="M14.374 45.5V22.9L16.294 23.1L6.77398 34.74L6.33398 34.02H24.134V38.54H3.53398L1.37398 34.38L15.294 17.42H19.374V45.5H14.374ZM36.3646 45.78C34.4179 45.78 32.6579 45.3667 31.0846 44.54C29.5113 43.6867 28.2046 42.46 27.1646 40.86L30.0446 37.74C31.2179 39.0467 32.2713 39.9533 33.2046 40.46C34.1379 40.94 35.1646 41.18 36.2846 41.18C37.2979 41.18 38.2046 40.9667 39.0046 40.54C39.8046 40.0867 40.4446 39.4867 40.9246 38.74C41.4046 37.9667 41.6446 37.1267 41.6446 36.22C41.6446 35.2333 41.4179 34.3667 40.9646 33.62C40.5113 32.8467 39.8979 32.2333 39.1246 31.78C38.3513 31.3267 37.4713 31.1 36.4846 31.1C35.9513 31.1 35.4446 31.14 34.9646 31.22C34.4846 31.3 33.9246 31.46 33.2846 31.7C32.6713 31.94 31.8846 32.3133 30.9246 32.82L28.4446 29.46L30.0846 17.42H45.5646V22.02H33.0046L34.1646 20.74L32.8446 29.62L31.3646 28.58C31.7113 28.26 32.2179 27.9533 32.8846 27.66C33.5779 27.3667 34.3246 27.1267 35.1246 26.94C35.9246 26.7533 36.7113 26.66 37.4846 26.66C39.2179 26.66 40.7646 27.06 42.1246 27.86C43.4846 28.66 44.5646 29.7667 45.3646 31.18C46.1646 32.5667 46.5646 34.1667 46.5646 35.98C46.5646 37.82 46.1113 39.4867 45.2046 40.98C44.3246 42.4467 43.1113 43.62 41.5646 44.5C40.0179 45.3533 38.2846 45.78 36.3646 45.78ZM54.6096 45.5L73.1296 17.5H77.8896L59.1696 45.5H54.6096ZM56.8896 32.34C55.6363 32.34 54.5163 32.0067 53.5296 31.34C52.5696 30.6733 51.8096 29.7667 51.2496 28.62C50.7163 27.4733 50.4496 26.1667 50.4496 24.7C50.4496 23.2067 50.7163 21.8867 51.2496 20.74C51.8096 19.5667 52.5696 18.6467 53.5296 17.98C54.5163 17.3133 55.6496 16.98 56.9296 16.98C58.1829 16.98 59.2896 17.3133 60.2496 17.98C61.2363 18.6467 61.9963 19.5667 62.5296 20.74C63.0896 21.8867 63.3696 23.2067 63.3696 24.7C63.3696 26.14 63.0896 27.4467 62.5296 28.62C61.9696 29.7667 61.1963 30.6733 60.2096 31.34C59.2229 32.0067 58.1163 32.34 56.8896 32.34ZM56.9296 28.94C57.4363 28.94 57.8763 28.7667 58.2496 28.42C58.6229 28.0733 58.9163 27.5933 59.1296 26.98C59.3429 26.34 59.4496 25.58 59.4496 24.7C59.4496 23.82 59.3429 23.06 59.1296 22.42C58.9163 21.78 58.6229 21.2867 58.2496 20.94C57.8763 20.5933 57.4229 20.42 56.8896 20.42C56.3829 20.42 55.9296 20.6067 55.5296 20.98C55.1563 21.3267 54.8629 21.82 54.6496 22.46C54.4363 23.0733 54.3296 23.82 54.3296 24.7C54.3296 25.58 54.4229 26.34 54.6096 26.98C54.8229 27.5933 55.1296 28.0733 55.5296 28.42C55.9296 28.7667 56.3963 28.94 56.9296 28.94ZM75.8896 45.86C74.6363 45.86 73.5163 45.5267 72.5296 44.86C71.5696 44.1933 70.8096 43.2867 70.2496 42.14C69.6896 40.9933 69.4096 39.6867 69.4096 38.22C69.4096 36.7267 69.6763 35.4067 70.2096 34.26C70.7696 33.0867 71.5429 32.1667 72.5296 31.5C73.5163 30.8333 74.6363 30.5 75.8896 30.5C77.1696 30.5 78.2896 30.8333 79.2496 31.5C80.2096 32.1667 80.9563 33.0867 81.4896 34.26C82.0496 35.4067 82.3296 36.7267 82.3296 38.22C82.3296 39.66 82.0496 40.9667 81.4896 42.14C80.9296 43.2867 80.1563 44.1933 79.1696 44.86C78.2096 45.5267 77.1163 45.86 75.8896 45.86ZM75.8896 42.5C76.3963 42.5 76.8363 42.3267 77.2096 41.98C77.6096 41.6067 77.9163 41.1133 78.1296 40.5C78.3429 39.86 78.4496 39.1 78.4496 38.22C78.4496 37.3667 78.3429 36.62 78.1296 35.98C77.9163 35.34 77.6096 34.8467 77.2096 34.5C76.8363 34.1267 76.3963 33.94 75.8896 33.94C75.3563 33.94 74.8896 34.1133 74.4896 34.46C74.1163 34.8067 73.8229 35.3133 73.6096 35.98C73.3963 36.62 73.2896 37.3667 73.2896 38.22C73.2896 39.1 73.3963 39.86 73.6096 40.5C73.8229 41.1133 74.1163 41.6067 74.4896 41.98C74.8896 42.3267 75.3563 42.5 75.8896 42.5Z" fill="#CAFF33"/>
<path d="M5.24598 83.66C4.68065 83.66 4.14732 83.58 3.64598 83.42C3.14465 83.26 2.68598 83.02 2.26998 82.7C1.85398 82.38 1.48598 81.9853 1.16598 81.516L2.02998 80.556C2.53132 81.2707 3.04332 81.772 3.56598 82.06C4.09932 82.348 4.69665 82.492 5.35798 82.492C5.83798 82.492 6.27532 82.412 6.66998 82.252C7.06465 82.092 7.37398 81.868 7.59798 81.58C7.82198 81.292 7.93398 80.9613 7.93398 80.588C7.93398 80.3427 7.89132 80.124 7.80598 79.932C7.73132 79.74 7.61398 79.5693 7.45398 79.42C7.29398 79.2707 7.09665 79.1373 6.86198 79.02C6.62732 78.9027 6.35532 78.796 6.04598 78.7C5.74732 78.604 5.41132 78.508 5.03798 78.412C4.49398 78.284 4.01398 78.1347 3.59798 77.964C3.19265 77.7827 2.84598 77.564 2.55798 77.308C2.28065 77.052 2.06732 76.7587 1.91798 76.428C1.77932 76.0867 1.70998 75.6867 1.70998 75.228C1.70998 74.7907 1.80065 74.3853 1.98198 74.012C2.17398 73.6387 2.43532 73.3187 2.76598 73.052C3.09665 72.7747 3.48598 72.5613 3.93398 72.412C4.38198 72.2627 4.86198 72.188 5.37398 72.188C5.94998 72.188 6.46198 72.268 6.90998 72.428C7.36865 72.5773 7.77398 72.8013 8.12598 73.1C8.47798 73.3987 8.78198 73.756 9.03798 74.172L8.15798 75.036C7.93398 74.684 7.67798 74.38 7.38998 74.124C7.11265 73.868 6.80332 73.676 6.46198 73.548C6.13132 73.4093 5.76332 73.34 5.35798 73.34C4.88865 73.34 4.47265 73.42 4.10998 73.58C3.75798 73.74 3.48065 73.964 3.27798 74.252C3.07532 74.5293 2.97398 74.8493 2.97398 75.212C2.97398 75.4787 3.02198 75.7187 3.11798 75.932C3.21398 76.1347 3.36332 76.316 3.56598 76.476C3.77932 76.6253 4.05132 76.764 4.38198 76.892C4.72332 77.0093 5.12865 77.1213 5.59798 77.228C6.15265 77.356 6.64865 77.5107 7.08598 77.692C7.53398 77.8733 7.91265 78.092 8.22198 78.348C8.54198 78.5933 8.78198 78.8813 8.94199 79.212C9.11265 79.5427 9.19798 79.9213 9.19798 80.348C9.19798 81.0093 9.03265 81.5907 8.70198 82.092C8.37132 82.5827 7.90732 82.9667 7.30998 83.244C6.72332 83.5213 6.03532 83.66 5.24598 83.66ZM12.3884 83.5V72.956H13.5884V83.5H12.3884ZM10.5004 76.3V75.148H15.7004V76.3H10.5004ZM17.1739 83.5V75.148H18.3739L18.4059 77.372L18.2779 77.068C18.3952 76.6947 18.5819 76.348 18.8379 76.028C19.1045 75.708 19.4192 75.452 19.7819 75.26C20.1445 75.068 20.5445 74.972 20.9819 74.972C21.1632 74.972 21.3339 74.988 21.4939 75.02C21.6539 75.0413 21.7872 75.0733 21.8939 75.116L21.5579 76.46C21.4192 76.396 21.2752 76.3533 21.1259 76.332C20.9872 76.3 20.8539 76.284 20.7259 76.284C20.3632 76.284 20.0379 76.348 19.7499 76.476C19.4619 76.604 19.2165 76.7853 19.0139 77.02C18.8112 77.244 18.6565 77.5053 18.5499 77.804C18.4432 78.1027 18.3899 78.4227 18.3899 78.764V83.5H17.1739ZM26.4632 83.66C25.6312 83.66 24.8899 83.4787 24.2392 83.116C23.5992 82.7533 23.0979 82.2467 22.7352 81.596C22.3726 80.9453 22.1912 80.1987 22.1912 79.356C22.1912 78.7053 22.2926 78.1187 22.4952 77.596C22.6979 77.0627 22.9806 76.5987 23.3432 76.204C23.7166 75.8093 24.1592 75.5053 24.6712 75.292C25.1832 75.068 25.7379 74.956 26.3352 74.956C26.9006 74.956 27.4126 75.0573 27.8712 75.26C28.3406 75.4627 28.7406 75.7453 29.0712 76.108C29.4126 76.46 29.6686 76.8813 29.8392 77.372C30.0099 77.8627 30.0846 78.4013 30.0632 78.988L30.0472 79.548H23.0872L22.9112 78.54H29.1352L28.8472 78.812V78.428C28.8259 78.044 28.7139 77.676 28.5112 77.324C28.3086 76.9613 28.0206 76.668 27.6472 76.444C27.2846 76.22 26.8472 76.108 26.3352 76.108C25.7379 76.108 25.2206 76.2307 24.7832 76.476C24.3459 76.7107 24.0099 77.0627 23.7752 77.532C23.5406 78.0013 23.4232 78.5827 23.4232 79.276C23.4232 79.9373 23.5512 80.5133 23.8072 81.004C24.0632 81.484 24.4259 81.8573 24.8952 82.124C25.3752 82.3907 25.9512 82.524 26.6232 82.524C27.0179 82.524 27.4072 82.46 27.7912 82.332C28.1859 82.1933 28.6179 81.9267 29.0872 81.532L29.7112 82.396C29.4659 82.6413 29.1726 82.86 28.8312 83.052C28.4899 83.2333 28.1166 83.3827 27.7112 83.5C27.3059 83.6067 26.8899 83.66 26.4632 83.66ZM35.0316 83.66C34.3063 83.66 33.6503 83.4733 33.0636 83.1C32.4769 82.716 32.0129 82.1987 31.6716 81.548C31.3303 80.8867 31.1596 80.14 31.1596 79.308C31.1596 78.4653 31.3356 77.7187 31.6876 77.068C32.0396 76.4173 32.5089 75.9053 33.0956 75.532C33.6929 75.1587 34.3596 74.972 35.0956 74.972C35.5329 74.972 35.9383 75.036 36.3116 75.164C36.6849 75.292 37.0156 75.4733 37.3036 75.708C37.6023 75.932 37.8476 76.1987 38.0396 76.508C38.2423 76.8067 38.3809 77.132 38.4556 77.484L38.1036 77.308L38.1516 75.148H39.3516V83.5H38.1356V81.452L38.4556 81.244C38.3809 81.564 38.2369 81.8733 38.0236 82.172C37.8103 82.46 37.5489 82.716 37.2396 82.94C36.9409 83.164 36.5996 83.34 36.2156 83.468C35.8423 83.596 35.4476 83.66 35.0316 83.66ZM35.3036 82.508C35.8583 82.508 36.3543 82.3747 36.7916 82.108C37.2289 81.8307 37.5703 81.452 37.8156 80.972C38.0716 80.4813 38.1996 79.9267 38.1996 79.308C38.1996 78.6893 38.0716 78.14 37.8156 77.66C37.5703 77.18 37.2289 76.8013 36.7916 76.524C36.3543 76.2467 35.8583 76.108 35.3036 76.108C34.7383 76.108 34.2369 76.2467 33.7996 76.524C33.3729 76.8013 33.0316 77.18 32.7756 77.66C32.5303 78.14 32.4076 78.6893 32.4076 79.308C32.4076 79.916 32.5303 80.4653 32.7756 80.956C33.0209 81.436 33.3623 81.8147 33.7996 82.092C34.2369 82.3693 34.7383 82.508 35.3036 82.508ZM41.6735 83.5V75.148H42.8735L42.9055 77.052L42.6655 77.132C42.7508 76.812 42.8895 76.524 43.0815 76.268C43.2842 76.0013 43.5242 75.772 43.8015 75.58C44.0788 75.388 44.3828 75.244 44.7135 75.148C45.0442 75.0413 45.3908 74.988 45.7535 74.988C46.1908 74.988 46.5802 75.0627 46.9215 75.212C47.2735 75.3507 47.5668 75.596 47.8015 75.948C48.0468 76.2893 48.2335 76.7427 48.3615 77.308L48.0735 77.164L48.1855 76.892C48.2922 76.6467 48.4468 76.412 48.6495 76.188C48.8628 75.9533 49.1028 75.7453 49.3695 75.564C49.6468 75.3827 49.9455 75.244 50.2655 75.148C50.5962 75.0413 50.9322 74.988 51.2735 74.988C51.8602 74.988 52.3562 75.116 52.7615 75.372C53.1668 75.6173 53.4708 75.996 53.6735 76.508C53.8868 77.02 53.9935 77.6707 53.9935 78.46V83.5H52.7615V78.524C52.7615 77.9693 52.6922 77.516 52.5535 77.164C52.4148 76.812 52.2068 76.5507 51.9295 76.38C51.6628 76.1987 51.3215 76.108 50.9055 76.108C50.5428 76.108 50.2068 76.172 49.8975 76.3C49.5988 76.4173 49.3375 76.588 49.1135 76.812C48.9002 77.0253 48.7295 77.2707 48.6015 77.548C48.4842 77.8253 48.4255 78.124 48.4255 78.444V83.5H47.2095V78.508C47.2095 77.9747 47.1348 77.532 46.9855 77.18C46.8468 76.828 46.6388 76.5613 46.3615 76.38C46.0842 76.1987 45.7428 76.108 45.3375 76.108C44.9855 76.108 44.6602 76.172 44.3615 76.3C44.0628 76.4173 43.8015 76.5827 43.5775 76.796C43.3642 77.0093 43.1935 77.2547 43.0655 77.532C42.9482 77.8093 42.8895 78.108 42.8895 78.428V83.5H41.6735ZM56.2996 83.5V71.66H57.4996V83.5H56.2996ZM60.1814 83.5V75.148H61.3814V83.5H60.1814ZM60.7734 73.34C60.4747 73.34 60.2454 73.2653 60.0854 73.116C59.936 72.956 59.8614 72.7427 59.8614 72.476C59.8614 72.2093 59.9414 71.996 60.1014 71.836C60.2614 71.676 60.4854 71.596 60.7734 71.596C61.0614 71.596 61.2854 71.676 61.4454 71.836C61.6054 71.9853 61.6854 72.1987 61.6854 72.476C61.6854 72.732 61.6054 72.94 61.4454 73.1C61.2854 73.26 61.0614 73.34 60.7734 73.34ZM64.002 83.5V75.148H65.186L65.234 76.892L65.042 76.972C65.1487 76.6093 65.3567 76.2787 65.666 75.98C65.9753 75.6813 66.3433 75.4413 66.77 75.26C67.2073 75.068 67.6553 74.972 68.114 74.972C68.7327 74.972 69.25 75.0947 69.666 75.34C70.082 75.5853 70.3967 75.964 70.61 76.476C70.8233 76.988 70.93 77.6387 70.93 78.428V83.5H69.714V78.492C69.714 77.9373 69.6393 77.484 69.49 77.132C69.3513 76.7693 69.1327 76.5027 68.834 76.332C68.5353 76.1613 68.1673 76.0813 67.73 76.092C67.3673 76.092 67.0313 76.156 66.722 76.284C66.4127 76.4013 66.146 76.5667 65.922 76.78C65.698 76.9933 65.522 77.2387 65.394 77.516C65.266 77.7933 65.202 78.092 65.202 78.412V83.5H64.61C64.5353 83.5 64.45 83.5 64.354 83.5C64.258 83.5 64.1407 83.5 64.002 83.5ZM76.9007 83.66C76.0687 83.66 75.3274 83.4787 74.6767 83.116C74.0367 82.7533 73.5354 82.2467 73.1727 81.596C72.8101 80.9453 72.6287 80.1987 72.6287 79.356C72.6287 78.7053 72.7301 78.1187 72.9327 77.596C73.1354 77.0627 73.4181 76.5987 73.7807 76.204C74.1541 75.8093 74.5967 75.5053 75.1087 75.292C75.6207 75.068 76.1754 74.956 76.7727 74.956C77.3381 74.956 77.8501 75.0573 78.3087 75.26C78.7781 75.4627 79.1781 75.7453 79.5087 76.108C79.8501 76.46 80.1061 76.8813 80.2767 77.372C80.4474 77.8627 80.5221 78.4013 80.5007 78.988L80.4847 79.548H73.5247L73.3487 78.54H79.5727L79.2847 78.812V78.428C79.2634 78.044 79.1514 77.676 78.9487 77.324C78.7461 76.9613 78.4581 76.668 78.0847 76.444C77.7221 76.22 77.2847 76.108 76.7727 76.108C76.1754 76.108 75.6581 76.2307 75.2207 76.476C74.7834 76.7107 74.4474 77.0627 74.2127 77.532C73.9781 78.0013 73.8607 78.5827 73.8607 79.276C73.8607 79.9373 73.9887 80.5133 74.2447 81.004C74.5007 81.484 74.8634 81.8573 75.3327 82.124C75.8127 82.3907 76.3887 82.524 77.0607 82.524C77.4554 82.524 77.8447 82.46 78.2287 82.332C78.6234 82.1933 79.0554 81.9267 79.5247 81.532L80.1487 82.396C79.9034 82.6413 79.6101 82.86 79.2687 83.052C78.9274 83.2333 78.5541 83.3827 78.1487 83.5C77.7434 83.6067 77.3274 83.66 76.9007 83.66ZM86.6895 87.02V75.148H87.8895L87.9215 77.18L87.6975 77.212C87.7935 76.8067 88.0015 76.4387 88.3215 76.108C88.6415 75.7667 89.0308 75.4947 89.4895 75.292C89.9482 75.0893 90.4335 74.988 90.9455 74.988C91.6922 74.988 92.3588 75.1747 92.9455 75.548C93.5428 75.9213 94.0175 76.4333 94.3695 77.084C94.7215 77.7347 94.8975 78.4813 94.8975 79.324C94.8975 80.156 94.7268 80.8973 94.3855 81.548C94.0442 82.1987 93.5748 82.716 92.9775 83.1C92.3802 83.4733 91.7082 83.66 90.9615 83.66C90.4388 83.66 89.9428 83.5533 89.4735 83.34C89.0042 83.1267 88.6042 82.8493 88.2735 82.508C87.9428 82.156 87.7242 81.7773 87.6175 81.372H87.9055V87.02H86.6895ZM90.7695 82.508C91.3348 82.508 91.8362 82.3693 92.2735 82.092C92.7108 81.8147 93.0575 81.436 93.3135 80.956C93.5695 80.476 93.6975 79.932 93.6975 79.324C93.6975 78.7053 93.5695 78.156 93.3135 77.676C93.0575 77.196 92.7108 76.8173 92.2735 76.54C91.8362 76.2627 91.3348 76.124 90.7695 76.124C90.2042 76.124 89.6975 76.2627 89.2495 76.54C88.8122 76.8067 88.4655 77.18 88.2095 77.66C87.9535 78.14 87.8255 78.6893 87.8255 79.308C87.8255 79.9267 87.9535 80.476 88.2095 80.956C88.4655 81.436 88.8122 81.8147 89.2495 82.092C89.6975 82.3693 90.2042 82.508 90.7695 82.508ZM99.9066 83.66C99.1813 83.66 98.5253 83.4733 97.9386 83.1C97.3519 82.716 96.8879 82.1987 96.5466 81.548C96.2053 80.8867 96.0346 80.14 96.0346 79.308C96.0346 78.4653 96.2106 77.7187 96.5626 77.068C96.9146 76.4173 97.3839 75.9053 97.9706 75.532C98.5679 75.1587 99.2346 74.972 99.9706 74.972C100.408 74.972 100.813 75.036 101.187 75.164C101.56 75.292 101.891 75.4733 102.179 75.708C102.477 75.932 102.723 76.1987 102.915 76.508C103.117 76.8067 103.256 77.132 103.331 77.484L102.979 77.308L103.027 75.148H104.227V83.5H103.011V81.452L103.331 81.244C103.256 81.564 103.112 81.8733 102.899 82.172C102.685 82.46 102.424 82.716 102.115 82.94C101.816 83.164 101.475 83.34 101.091 83.468C100.717 83.596 100.323 83.66 99.9066 83.66ZM100.179 82.508C100.733 82.508 101.229 82.3747 101.667 82.108C102.104 81.8307 102.445 81.452 102.691 80.972C102.947 80.4813 103.075 79.9267 103.075 79.308C103.075 78.6893 102.947 78.14 102.691 77.66C102.445 77.18 102.104 76.8013 101.667 76.524C101.229 76.2467 100.733 76.108 100.179 76.108C99.6133 76.108 99.1119 76.2467 98.6746 76.524C98.2479 76.8013 97.9066 77.18 97.6506 77.66C97.4053 78.14 97.2826 78.6893 97.2826 79.308C97.2826 79.916 97.4053 80.4653 97.6506 80.956C97.8959 81.436 98.2373 81.8147 98.6746 82.092C99.1119 82.3693 99.6133 82.508 100.179 82.508ZM107.785 87.18L109.401 83.244L109.513 84.38L105.321 75.148H106.681L109.545 81.548C109.63 81.7187 109.716 81.9213 109.801 82.156C109.886 82.38 109.966 82.604 110.041 82.828L109.593 82.78C109.668 82.5987 109.737 82.412 109.801 82.22C109.876 82.028 109.945 81.8413 110.009 81.66L112.521 75.148H113.897L110.521 83.5L109.081 87.18H107.785ZM115.158 83.5V75.148H116.358L116.39 77.372L116.262 77.068C116.38 76.6947 116.566 76.348 116.822 76.028C117.089 75.708 117.404 75.452 117.766 75.26C118.129 75.068 118.529 74.972 118.966 74.972C119.148 74.972 119.318 74.988 119.478 75.02C119.638 75.0413 119.772 75.0733 119.878 75.116L119.542 76.46C119.404 76.396 119.26 76.3533 119.11 76.332C118.972 76.3 118.838 76.284 118.71 76.284C118.348 76.284 118.022 76.348 117.734 76.476C117.446 76.604 117.201 76.7853 116.998 77.02C116.796 77.244 116.641 77.5053 116.534 77.804C116.428 78.1027 116.374 78.4227 116.374 78.764V83.5H115.158ZM124.464 83.66C123.632 83.66 122.89 83.4733 122.24 83.1C121.6 82.7267 121.093 82.2093 120.72 81.548C120.357 80.8867 120.176 80.1347 120.176 79.292C120.176 78.46 120.357 77.7187 120.72 77.068C121.093 76.4173 121.6 75.9053 122.24 75.532C122.89 75.1587 123.632 74.972 124.464 74.972C125.285 74.972 126.016 75.1587 126.656 75.532C127.306 75.9053 127.813 76.4173 128.176 77.068C128.549 77.7187 128.736 78.46 128.736 79.292C128.736 80.1347 128.549 80.8867 128.176 81.548C127.813 82.2093 127.306 82.7267 126.656 83.1C126.016 83.4733 125.285 83.66 124.464 83.66ZM124.464 82.524C125.05 82.524 125.573 82.3853 126.032 82.108C126.49 81.82 126.848 81.436 127.104 80.956C127.36 80.4653 127.488 79.9107 127.488 79.292C127.488 78.6733 127.36 78.124 127.104 77.644C126.848 77.164 126.49 76.7907 126.032 76.524C125.573 76.2467 125.05 76.108 124.464 76.108C123.877 76.108 123.349 76.2467 122.88 76.524C122.421 76.7907 122.058 77.1693 121.792 77.66C121.536 78.14 121.413 78.684 121.424 79.292C121.413 79.9107 121.536 80.4653 121.792 80.956C122.058 81.436 122.421 81.82 122.88 82.108C123.349 82.3853 123.877 82.524 124.464 82.524ZM130.518 83.5V71.66H131.718V83.5H130.518ZM134.112 83.5V71.66H135.312V83.5H134.112ZM1.50198 111.02V99.148H2.70198L2.73398 101.18L2.50998 101.212C2.60598 100.807 2.81398 100.439 3.13398 100.108C3.45398 99.7667 3.84332 99.4947 4.30198 99.292C4.76065 99.0893 5.24598 98.988 5.75798 98.988C6.50465 98.988 7.17132 99.1747 7.75798 99.548C8.35532 99.9213 8.82998 100.433 9.18198 101.084C9.53398 101.735 9.70998 102.481 9.70998 103.324C9.70998 104.156 9.53932 104.897 9.19798 105.548C8.85665 106.199 8.38732 106.716 7.78998 107.1C7.19265 107.473 6.52065 107.66 5.77398 107.66C5.25132 107.66 4.75532 107.553 4.28598 107.34C3.81665 107.127 3.41665 106.849 3.08598 106.508C2.75532 106.156 2.53665 105.777 2.42998 105.372H2.71798V111.02H1.50198ZM5.58198 106.508C6.14732 106.508 6.64865 106.369 7.08598 106.092C7.52332 105.815 7.86998 105.436 8.12598 104.956C8.38198 104.476 8.50998 103.932 8.50998 103.324C8.50998 102.705 8.38198 102.156 8.12598 101.676C7.86998 101.196 7.52332 100.817 7.08598 100.54C6.64865 100.263 6.14732 100.124 5.58198 100.124C5.01665 100.124 4.50998 100.263 4.06198 100.54C3.62465 100.807 3.27798 101.18 3.02198 101.66C2.76598 102.14 2.63798 102.689 2.63798 103.308C2.63798 103.927 2.76598 104.476 3.02198 104.956C3.27798 105.436 3.62465 105.815 4.06198 106.092C4.50998 106.369 5.01665 106.508 5.58198 106.508ZM11.4551 107.5V99.148H12.6551L12.6871 101.372L12.5591 101.068C12.6764 100.695 12.8631 100.348 13.1191 100.028C13.3858 99.708 13.7004 99.452 14.0631 99.26C14.4258 99.068 14.8258 98.972 15.2631 98.972C15.4444 98.972 15.6151 98.988 15.7751 99.02C15.9351 99.0413 16.0684 99.0733 16.1751 99.116L15.8391 100.46C15.7004 100.396 15.5564 100.353 15.4071 100.332C15.2684 100.3 15.1351 100.284 15.0071 100.284C14.6444 100.284 14.3191 100.348 14.0311 100.476C13.7431 100.604 13.4978 100.785 13.2951 101.02C13.0924 101.244 12.9378 101.505 12.8311 101.804C12.7244 102.103 12.6711 102.423 12.6711 102.764V107.5H11.4551ZM20.7605 107.66C19.9285 107.66 19.1872 107.473 18.5365 107.1C17.8965 106.727 17.3898 106.209 17.0165 105.548C16.6538 104.887 16.4725 104.135 16.4725 103.292C16.4725 102.46 16.6538 101.719 17.0165 101.068C17.3898 100.417 17.8965 99.9053 18.5365 99.532C19.1872 99.1587 19.9285 98.972 20.7605 98.972C21.5818 98.972 22.3125 99.1587 22.9525 99.532C23.6032 99.9053 24.1098 100.417 24.4725 101.068C24.8458 101.719 25.0325 102.46 25.0325 103.292C25.0325 104.135 24.8458 104.887 24.4725 105.548C24.1098 106.209 23.6032 106.727 22.9525 107.1C22.3125 107.473 21.5818 107.66 20.7605 107.66ZM20.7605 106.524C21.3472 106.524 21.8698 106.385 22.3285 106.108C22.7872 105.82 23.1445 105.436 23.4005 104.956C23.6565 104.465 23.7845 103.911 23.7845 103.292C23.7845 102.673 23.6565 102.124 23.4005 101.644C23.1445 101.164 22.7872 100.791 22.3285 100.524C21.8698 100.247 21.3472 100.108 20.7605 100.108C20.1738 100.108 19.6458 100.247 19.1765 100.524C18.7178 100.791 18.3552 101.169 18.0885 101.66C17.8325 102.14 17.7098 102.684 17.7205 103.292C17.7098 103.911 17.8325 104.465 18.0885 104.956C18.3552 105.436 18.7178 105.82 19.1765 106.108C19.6458 106.385 20.1738 106.524 20.7605 106.524ZM30.3032 107.66C29.5139 107.66 28.8099 107.473 28.1912 107.1C27.5726 106.716 27.0819 106.199 26.7192 105.548C26.3672 104.887 26.1912 104.14 26.1912 103.308C26.1912 102.476 26.3672 101.735 26.7192 101.084C27.0819 100.423 27.5726 99.9053 28.1912 99.532C28.8099 99.1587 29.5192 98.972 30.3192 98.972C31.0339 98.972 31.6846 99.116 32.2712 99.404C32.8579 99.6813 33.3272 100.071 33.6792 100.572L32.9752 101.436C32.7726 101.169 32.5272 100.935 32.2392 100.732C31.9619 100.529 31.6579 100.375 31.3272 100.268C31.0072 100.151 30.6872 100.092 30.3672 100.092C29.8019 100.092 29.2952 100.236 28.8472 100.524C28.3992 100.801 28.0419 101.18 27.7752 101.66C27.5192 102.14 27.3912 102.689 27.3912 103.308C27.3912 103.927 27.5192 104.481 27.7752 104.972C28.0419 105.452 28.3992 105.831 28.8472 106.108C29.2952 106.385 29.7966 106.524 30.3512 106.524C30.6712 106.524 30.9859 106.476 31.2952 106.38C31.6046 106.273 31.8979 106.124 32.1752 105.932C32.4526 105.74 32.7086 105.5 32.9432 105.212L33.6472 106.076C33.2846 106.556 32.7992 106.94 32.1912 107.228C31.5832 107.516 30.9539 107.66 30.3032 107.66ZM38.8851 107.66C38.0531 107.66 37.3118 107.479 36.6611 107.116C36.0211 106.753 35.5198 106.247 35.1571 105.596C34.7944 104.945 34.6131 104.199 34.6131 103.356C34.6131 102.705 34.7144 102.119 34.9171 101.596C35.1198 101.063 35.4024 100.599 35.7651 100.204C36.1384 99.8093 36.5811 99.5053 37.0931 99.292C37.6051 99.068 38.1598 98.956 38.7571 98.956C39.3224 98.956 39.8344 99.0573 40.2931 99.26C40.7624 99.4627 41.1624 99.7453 41.4931 100.108C41.8344 100.46 42.0904 100.881 42.2611 101.372C42.4318 101.863 42.5064 102.401 42.4851 102.988L42.4691 103.548H35.5091L35.3331 102.54H41.5571L41.2691 102.812V102.428C41.2478 102.044 41.1358 101.676 40.9331 101.324C40.7304 100.961 40.4424 100.668 40.0691 100.444C39.7064 100.22 39.2691 100.108 38.7571 100.108C38.1598 100.108 37.6424 100.231 37.2051 100.476C36.7678 100.711 36.4318 101.063 36.1971 101.532C35.9624 102.001 35.8451 102.583 35.8451 103.276C35.8451 103.937 35.9731 104.513 36.2291 105.004C36.4851 105.484 36.8478 105.857 37.3171 106.124C37.7971 106.391 38.3731 106.524 39.0451 106.524C39.4398 106.524 39.8291 106.46 40.2131 106.332C40.6078 106.193 41.0398 105.927 41.5091 105.532L42.1331 106.396C41.8878 106.641 41.5944 106.86 41.2531 107.052C40.9118 107.233 40.5384 107.383 40.1331 107.5C39.7278 107.607 39.3118 107.66 38.8851 107.66ZM46.9255 107.66C46.2108 107.66 45.5708 107.527 45.0055 107.26C44.4402 106.993 43.9922 106.641 43.6615 106.204L44.5095 105.468C44.8188 105.841 45.1815 106.124 45.5975 106.316C46.0242 106.508 46.4988 106.604 47.0215 106.604C47.2882 106.604 47.5282 106.577 47.7415 106.524C47.9548 106.46 48.1415 106.369 48.3015 106.252C48.4615 106.135 48.5842 105.996 48.6695 105.836C48.7548 105.676 48.7975 105.5 48.7975 105.308C48.7975 104.956 48.6428 104.663 48.3335 104.428C48.1948 104.332 47.9975 104.236 47.7415 104.14C47.4855 104.033 47.1762 103.932 46.8135 103.836C46.2162 103.665 45.7202 103.495 45.3255 103.324C44.9308 103.143 44.6215 102.935 44.3975 102.7C44.2375 102.508 44.1148 102.3 44.0295 102.076C43.9548 101.852 43.9175 101.607 43.9175 101.34C43.9175 100.999 43.9868 100.684 44.1255 100.396C44.2748 100.108 44.4775 99.8573 44.7335 99.644C45.0002 99.42 45.3095 99.2547 45.6615 99.148C46.0242 99.0307 46.4135 98.972 46.8295 98.972C47.2242 98.972 47.6135 99.0253 47.9975 99.132C48.3815 99.2387 48.7388 99.3933 49.0695 99.596C49.4002 99.7987 49.6828 100.039 49.9175 100.316L49.1815 101.116C48.9788 100.903 48.7548 100.711 48.5095 100.54C48.2642 100.369 48.0028 100.236 47.7255 100.14C47.4588 100.044 47.1815 99.996 46.8935 99.996C46.6375 99.996 46.3975 100.028 46.1735 100.092C45.9602 100.156 45.7735 100.247 45.6135 100.364C45.4642 100.471 45.3468 100.604 45.2615 100.764C45.1868 100.924 45.1495 101.1 45.1495 101.292C45.1495 101.452 45.1815 101.596 45.2455 101.724C45.3095 101.852 45.4002 101.964 45.5175 102.06C45.6668 102.177 45.8748 102.289 46.1415 102.396C46.4188 102.492 46.7602 102.593 47.1655 102.7C47.6348 102.828 48.0295 102.961 48.3495 103.1C48.6802 103.228 48.9522 103.383 49.1655 103.564C49.4535 103.777 49.6562 104.023 49.7735 104.3C49.9015 104.577 49.9655 104.892 49.9655 105.244C49.9655 105.713 49.8322 106.129 49.5655 106.492C49.3095 106.855 48.9522 107.143 48.4935 107.356C48.0348 107.559 47.5122 107.66 46.9255 107.66ZM54.5817 107.66C53.8671 107.66 53.2271 107.527 52.6617 107.26C52.0964 106.993 51.6484 106.641 51.3177 106.204L52.1657 105.468C52.4751 105.841 52.8377 106.124 53.2537 106.316C53.6804 106.508 54.1551 106.604 54.6777 106.604C54.9444 106.604 55.1844 106.577 55.3977 106.524C55.6111 106.46 55.7977 106.369 55.9577 106.252C56.1177 106.135 56.2404 105.996 56.3257 105.836C56.4111 105.676 56.4537 105.5 56.4537 105.308C56.4537 104.956 56.2991 104.663 55.9897 104.428C55.8511 104.332 55.6537 104.236 55.3977 104.14C55.1417 104.033 54.8324 103.932 54.4697 103.836C53.8724 103.665 53.3764 103.495 52.9817 103.324C52.5871 103.143 52.2777 102.935 52.0537 102.7C51.8937 102.508 51.7711 102.3 51.6857 102.076C51.6111 101.852 51.5737 101.607 51.5737 101.34C51.5737 100.999 51.6431 100.684 51.7817 100.396C51.9311 100.108 52.1337 99.8573 52.3897 99.644C52.6564 99.42 52.9657 99.2547 53.3177 99.148C53.6804 99.0307 54.0697 98.972 54.4857 98.972C54.8804 98.972 55.2697 99.0253 55.6537 99.132C56.0377 99.2387 56.3951 99.3933 56.7257 99.596C57.0564 99.7987 57.3391 100.039 57.5737 100.316L56.8377 101.116C56.6351 100.903 56.4111 100.711 56.1657 100.54C55.9204 100.369 55.6591 100.236 55.3817 100.14C55.1151 100.044 54.8377 99.996 54.5497 99.996C54.2937 99.996 54.0537 100.028 53.8297 100.092C53.6164 100.156 53.4297 100.247 53.2697 100.364C53.1204 100.471 53.0031 100.604 52.9177 100.764C52.8431 100.924 52.8057 101.1 52.8057 101.292C52.8057 101.452 52.8377 101.596 52.9017 101.724C52.9657 101.852 53.0564 101.964 53.1737 102.06C53.3231 102.177 53.5311 102.289 53.7977 102.396C54.0751 102.492 54.4164 102.593 54.8217 102.7C55.2911 102.828 55.6857 102.961 56.0057 103.1C56.3364 103.228 56.6084 103.383 56.8217 103.564C57.1097 103.777 57.3124 104.023 57.4297 104.3C57.5577 104.577 57.6217 104.892 57.6217 105.244C57.6217 105.713 57.4884 106.129 57.2217 106.492C56.9657 106.855 56.6084 107.143 56.1497 107.356C55.6911 107.559 55.1684 107.66 54.5817 107.66ZM59.822 107.5V99.148H61.022V107.5H59.822ZM60.414 97.34C60.1153 97.34 59.886 97.2653 59.726 97.116C59.5767 96.956 59.502 96.7427 59.502 96.476C59.502 96.2093 59.582 95.996 59.742 95.836C59.902 95.676 60.126 95.596 60.414 95.596C60.702 95.596 60.926 95.676 61.086 95.836C61.246 95.9853 61.326 96.1987 61.326 96.476C61.326 96.732 61.246 96.94 61.086 97.1C60.926 97.26 60.702 97.34 60.414 97.34ZM63.6426 107.5V99.148H64.8266L64.8746 100.892L64.6826 100.972C64.7893 100.609 64.9973 100.279 65.3066 99.98C65.6159 99.6813 65.9839 99.4413 66.4106 99.26C66.8479 99.068 67.2959 98.972 67.7546 98.972C68.3733 98.972 68.8906 99.0947 69.3066 99.34C69.7226 99.5853 70.0373 99.964 70.2506 100.476C70.4639 100.988 70.5706 101.639 70.5706 102.428V107.5H69.3546V102.492C69.3546 101.937 69.2799 101.484 69.1306 101.132C68.9919 100.769 68.7733 100.503 68.4746 100.332C68.1759 100.161 67.8079 100.081 67.3706 100.092C67.0079 100.092 66.6719 100.156 66.3626 100.284C66.0533 100.401 65.7866 100.567 65.5626 100.78C65.3386 100.993 65.1626 101.239 65.0346 101.516C64.9066 101.793 64.8426 102.092 64.8426 102.412V107.5H64.2506C64.1759 107.5 64.0906 107.5 63.9946 107.5C63.8986 107.5 63.7813 107.5 63.6426 107.5ZM76.4614 111.18C75.8427 111.18 75.256 111.084 74.7014 110.892C74.1467 110.7 73.688 110.46 73.3254 110.172L73.8054 109.164C74.0187 109.335 74.264 109.484 74.5414 109.612C74.8294 109.751 75.1387 109.857 75.4694 109.932C75.8 110.017 76.136 110.06 76.4774 110.06C77.096 110.06 77.6187 109.943 78.0454 109.708C78.4827 109.484 78.8134 109.148 79.0374 108.7C79.272 108.252 79.3894 107.697 79.3894 107.036V105.436L79.5814 105.388C79.4854 105.793 79.2774 106.172 78.9574 106.524C78.6374 106.865 78.248 107.143 77.7894 107.356C77.3307 107.559 76.8454 107.66 76.3334 107.66C75.5547 107.66 74.856 107.473 74.2374 107.1C73.6294 106.727 73.1494 106.215 72.7974 105.564C72.4454 104.903 72.2694 104.156 72.2694 103.324C72.2694 102.481 72.4454 101.735 72.7974 101.084C73.16 100.423 73.6454 99.9053 74.2534 99.532C74.8614 99.1587 75.544 98.972 76.3014 98.972C76.632 98.972 76.952 99.0147 77.2614 99.1C77.5707 99.1747 77.8534 99.2867 78.1094 99.436C78.376 99.5853 78.616 99.756 78.8294 99.948C79.0427 100.14 79.2187 100.348 79.3574 100.572C79.5067 100.796 79.6134 101.025 79.6774 101.26L79.3414 101.212L79.3894 99.148H80.5894V106.988C80.5894 107.66 80.4934 108.252 80.3014 108.764C80.1094 109.287 79.8267 109.724 79.4534 110.076C79.0907 110.439 78.6534 110.711 78.1414 110.892C77.64 111.084 77.08 111.18 76.4614 111.18ZM76.4774 106.508C77.0427 106.508 77.544 106.375 77.9814 106.108C78.4294 105.831 78.7814 105.452 79.0374 104.972C79.2934 104.492 79.4214 103.937 79.4214 103.308C79.4214 102.689 79.2934 102.14 79.0374 101.66C78.792 101.18 78.4454 100.801 77.9974 100.524C77.5494 100.247 77.0427 100.108 76.4774 100.108C75.9014 100.108 75.3894 100.247 74.9414 100.524C74.504 100.801 74.1574 101.18 73.9014 101.66C73.6454 102.14 73.5174 102.689 73.5174 103.308C73.5174 103.916 73.64 104.465 73.8854 104.956C74.1414 105.436 74.488 105.815 74.9254 106.092C75.3734 106.369 75.8907 106.508 76.4774 106.508Z" fill="#B3B3B3"/>
</svg>
