<svg width="137" height="114" viewBox="0 0 137 114" fill="none" xmlns="http://www.w3.org/2000/svg">
<path d="M11.48 45.5C10.0667 45.5 8.74667 45.2467 7.52 44.74C6.32 44.2333 5.26667 43.54 4.36 42.66C3.48 41.7533 2.78667 40.7 2.28 39.5C1.77333 38.3 1.52 36.98 1.52 35.54C1.52 34.74 1.61333 33.8867 1.8 32.98C2.01333 32.0733 2.32 31.1133 2.72 30.1C3.14667 29.06 3.64 27.98 4.2 26.86C4.76 25.74 5.41333 24.5667 6.16 23.34L9.88 17.02H14.84L15 17.42L10.24 25.26C9.46667 26.54 8.78667 27.7533 8.2 28.9C7.61333 30.02 7.10667 31.1 6.68 32.14C6.28 33.1533 5.94667 34.14 5.68 35.1L4.6 31.46C5 30.6067 5.49333 29.8333 6.08 29.14C6.66667 28.4467 7.32 27.86 8.04 27.38C8.76 26.9 9.50667 26.54 10.28 26.3C11.08 26.06 11.8933 25.94 12.72 25.94C14.2667 25.94 15.6933 26.3667 17 27.22C18.3067 28.0467 19.3467 29.1533 20.12 30.54C20.92 31.9267 21.32 33.4467 21.32 35.1C21.32 37.1 20.8933 38.8867 20.04 40.46C19.2133 42.0067 18.0533 43.2333 16.56 44.14C15.0667 45.0467 13.3733 45.5 11.48 45.5ZM11.52 40.94C12.48 40.94 13.3333 40.7133 14.08 40.26C14.8533 39.8067 15.4533 39.18 15.88 38.38C16.3067 37.5533 16.52 36.6067 16.52 35.54C16.52 34.6333 16.2933 33.7933 15.84 33.02C15.4133 32.22 14.8267 31.58 14.08 31.1C13.3333 30.5933 12.4933 30.34 11.56 30.34C10.5467 30.34 9.64 30.58 8.84 31.06C8.06667 31.5133 7.45333 32.14 7 32.94C6.57333 33.7133 6.36 34.58 6.36 35.54C6.36 36.5533 6.57333 37.4733 7 38.3C7.45333 39.1 8.06667 39.74 8.84 40.22C9.61333 40.7 10.5067 40.94 11.52 40.94ZM33.2572 45.78C31.3105 45.78 29.5505 45.3667 27.9772 44.54C26.4039 43.6867 25.0972 42.46 24.0572 40.86L26.9372 37.74C28.1105 39.0467 29.1639 39.9533 30.0972 40.46C31.0305 40.94 32.0572 41.18 33.1772 41.18C34.1905 41.18 35.0972 40.9667 35.8972 40.54C36.6972 40.0867 37.3372 39.4867 37.8172 38.74C38.2972 37.9667 38.5372 37.1267 38.5372 36.22C38.5372 35.2333 38.3105 34.3667 37.8572 33.62C37.4039 32.8467 36.7905 32.2333 36.0172 31.78C35.2439 31.3267 34.3639 31.1 33.3772 31.1C32.8439 31.1 32.3372 31.14 31.8572 31.22C31.3772 31.3 30.8172 31.46 30.1772 31.7C29.5639 31.94 28.7772 32.3133 27.8172 32.82L25.3372 29.46L26.9772 17.42H42.4572V22.02H29.8972L31.0572 20.74L29.7372 29.62L28.2572 28.58C28.6039 28.26 29.1105 27.9533 29.7772 27.66C30.4705 27.3667 31.2172 27.1267 32.0172 26.94C32.8172 26.7533 33.6039 26.66 34.3772 26.66C36.1105 26.66 37.6572 27.06 39.0172 27.86C40.3772 28.66 41.4572 29.7667 42.2572 31.18C43.0572 32.5667 43.4572 34.1667 43.4572 35.98C43.4572 37.82 43.0039 39.4867 42.0972 40.98C41.2172 42.4467 40.0039 43.62 38.4572 44.5C36.9105 45.3533 35.1772 45.78 33.2572 45.78ZM51.5022 45.5L70.0222 17.5H74.7822L56.0622 45.5H51.5022ZM53.7822 32.34C52.5289 32.34 51.4089 32.0067 50.4222 31.34C49.4622 30.6733 48.7022 29.7667 48.1422 28.62C47.6089 27.4733 47.3422 26.1667 47.3422 24.7C47.3422 23.2067 47.6089 21.8867 48.1422 20.74C48.7022 19.5667 49.4622 18.6467 50.4222 17.98C51.4089 17.3133 52.5422 16.98 53.8222 16.98C55.0755 16.98 56.1822 17.3133 57.1422 17.98C58.1289 18.6467 58.8889 19.5667 59.4222 20.74C59.9822 21.8867 60.2622 23.2067 60.2622 24.7C60.2622 26.14 59.9822 27.4467 59.4222 28.62C58.8622 29.7667 58.0889 30.6733 57.1022 31.34C56.1155 32.0067 55.0089 32.34 53.7822 32.34ZM53.8222 28.94C54.3289 28.94 54.7689 28.7667 55.1422 28.42C55.5155 28.0733 55.8089 27.5933 56.0222 26.98C56.2355 26.34 56.3422 25.58 56.3422 24.7C56.3422 23.82 56.2355 23.06 56.0222 22.42C55.8089 21.78 55.5155 21.2867 55.1422 20.94C54.7689 20.5933 54.3155 20.42 53.7822 20.42C53.2755 20.42 52.8222 20.6067 52.4222 20.98C52.0489 21.3267 51.7555 21.82 51.5422 22.46C51.3289 23.0733 51.2222 23.82 51.2222 24.7C51.2222 25.58 51.3155 26.34 51.5022 26.98C51.7155 27.5933 52.0222 28.0733 52.4222 28.42C52.8222 28.7667 53.2889 28.94 53.8222 28.94ZM72.7822 45.86C71.5289 45.86 70.4089 45.5267 69.4222 44.86C68.4622 44.1933 67.7022 43.2867 67.1422 42.14C66.5822 40.9933 66.3022 39.6867 66.3022 38.22C66.3022 36.7267 66.5689 35.4067 67.1022 34.26C67.6622 33.0867 68.4355 32.1667 69.4222 31.5C70.4089 30.8333 71.5289 30.5 72.7822 30.5C74.0622 30.5 75.1822 30.8333 76.1422 31.5C77.1022 32.1667 77.8489 33.0867 78.3822 34.26C78.9422 35.4067 79.2222 36.7267 79.2222 38.22C79.2222 39.66 78.9422 40.9667 78.3822 42.14C77.8222 43.2867 77.0489 44.1933 76.0622 44.86C75.1022 45.5267 74.0089 45.86 72.7822 45.86ZM72.7822 42.5C73.2889 42.5 73.7289 42.3267 74.1022 41.98C74.5022 41.6067 74.8089 41.1133 75.0222 40.5C75.2355 39.86 75.3422 39.1 75.3422 38.22C75.3422 37.3667 75.2355 36.62 75.0222 35.98C74.8089 35.34 74.5022 34.8467 74.1022 34.5C73.7289 34.1267 73.2889 33.94 72.7822 33.94C72.2489 33.94 71.7822 34.1133 71.3822 34.46C71.0089 34.8067 70.7155 35.3133 70.5022 35.98C70.2889 36.62 70.1822 37.3667 70.1822 38.22C70.1822 39.1 70.2889 39.86 70.5022 40.5C70.7155 41.1133 71.0089 41.6067 71.3822 41.98C71.7822 42.3267 72.2489 42.5 72.7822 42.5Z" fill="#CAFF33"/>
<path d="M6.288 83.66C5.488 83.66 4.752 83.5213 4.08 83.244C3.408 82.956 2.82667 82.556 2.336 82.044C1.84533 81.5213 1.46133 80.908 1.184 80.204C0.917333 79.5 0.784 78.732 0.784 77.9C0.784 77.0787 0.917333 76.3267 1.184 75.644C1.46133 74.9507 1.85067 74.348 2.352 73.836C2.85333 73.3133 3.43467 72.9133 4.096 72.636C4.75733 72.3587 5.48267 72.22 6.272 72.22C6.79467 72.22 7.312 72.3053 7.824 72.476C8.336 72.636 8.80533 72.86 9.232 73.148C9.66933 73.436 10.0267 73.7667 10.304 74.14L9.44 75.036C9.17333 74.716 8.864 74.4387 8.512 74.204C8.17067 73.9693 7.808 73.788 7.424 73.66C7.04 73.532 6.656 73.468 6.272 73.468C5.67467 73.468 5.11467 73.58 4.592 73.804C4.08 74.0173 3.63733 74.3213 3.264 74.716C2.89067 75.1107 2.59733 75.58 2.384 76.124C2.18133 76.668 2.08 77.26 2.08 77.9C2.08 78.5613 2.18133 79.1693 2.384 79.724C2.59733 80.2787 2.896 80.7587 3.28 81.164C3.67467 81.5587 4.13333 81.868 4.656 82.092C5.18933 82.3053 5.78133 82.412 6.432 82.412C6.816 82.412 7.2 82.3587 7.584 82.252C7.968 82.1347 8.32 81.9747 8.64 81.772C8.96 81.5693 9.232 81.34 9.456 81.084L10.096 82.124C9.85067 82.4227 9.52 82.6893 9.104 82.924C8.69867 83.148 8.25067 83.3293 7.76 83.468C7.26933 83.596 6.77867 83.66 6.288 83.66ZM15.2445 83.66C14.5192 83.66 13.8632 83.4733 13.2765 83.1C12.6898 82.716 12.2258 82.1987 11.8845 81.548C11.5432 80.8867 11.3725 80.14 11.3725 79.308C11.3725 78.4653 11.5485 77.7187 11.9005 77.068C12.2525 76.4173 12.7218 75.9053 13.3085 75.532C13.9058 75.1587 14.5725 74.972 15.3085 74.972C15.7458 74.972 16.1512 75.036 16.5245 75.164C16.8978 75.292 17.2285 75.4733 17.5165 75.708C17.8152 75.932 18.0605 76.1987 18.2525 76.508C18.4552 76.8067 18.5938 77.132 18.6685 77.484L18.3165 77.308L18.3645 75.148H19.5645V83.5H18.3485V81.452L18.6685 81.244C18.5938 81.564 18.4498 81.8733 18.2365 82.172C18.0232 82.46 17.7618 82.716 17.4525 82.94C17.1538 83.164 16.8125 83.34 16.4285 83.468C16.0552 83.596 15.6605 83.66 15.2445 83.66ZM15.5165 82.508C16.0712 82.508 16.5672 82.3747 17.0045 82.108C17.4418 81.8307 17.7832 81.452 18.0285 80.972C18.2845 80.4813 18.4125 79.9267 18.4125 79.308C18.4125 78.6893 18.2845 78.14 18.0285 77.66C17.7832 77.18 17.4418 76.8013 17.0045 76.524C16.5672 76.2467 16.0712 76.108 15.5165 76.108C14.9512 76.108 14.4498 76.2467 14.0125 76.524C13.5858 76.8013 13.2445 77.18 12.9885 77.66C12.7432 78.14 12.6205 78.6893 12.6205 79.308C12.6205 79.916 12.7432 80.4653 12.9885 80.956C13.2338 81.436 13.5752 81.8147 14.0125 82.092C14.4498 82.3693 14.9512 82.508 15.5165 82.508ZM24.6384 83.66C23.9237 83.66 23.2837 83.5267 22.7184 83.26C22.153 82.9933 21.705 82.6413 21.3744 82.204L22.2224 81.468C22.5317 81.8413 22.8944 82.124 23.3104 82.316C23.737 82.508 24.2117 82.604 24.7344 82.604C25.001 82.604 25.241 82.5773 25.4544 82.524C25.6677 82.46 25.8544 82.3693 26.0144 82.252C26.1744 82.1347 26.297 81.996 26.3824 81.836C26.4677 81.676 26.5104 81.5 26.5104 81.308C26.5104 80.956 26.3557 80.6627 26.0464 80.428C25.9077 80.332 25.7104 80.236 25.4544 80.14C25.1984 80.0333 24.889 79.932 24.5264 79.836C23.929 79.6653 23.433 79.4947 23.0384 79.324C22.6437 79.1427 22.3344 78.9347 22.1104 78.7C21.9504 78.508 21.8277 78.3 21.7424 78.076C21.6677 77.852 21.6304 77.6067 21.6304 77.34C21.6304 76.9987 21.6997 76.684 21.8384 76.396C21.9877 76.108 22.1904 75.8573 22.4464 75.644C22.713 75.42 23.0224 75.2547 23.3744 75.148C23.737 75.0307 24.1264 74.972 24.5424 74.972C24.937 74.972 25.3264 75.0253 25.7104 75.132C26.0944 75.2387 26.4517 75.3933 26.7824 75.596C27.113 75.7987 27.3957 76.0387 27.6304 76.316L26.8944 77.116C26.6917 76.9027 26.4677 76.7107 26.2224 76.54C25.977 76.3693 25.7157 76.236 25.4384 76.14C25.1717 76.044 24.8944 75.996 24.6064 75.996C24.3504 75.996 24.1104 76.028 23.8864 76.092C23.673 76.156 23.4864 76.2467 23.3264 76.364C23.177 76.4707 23.0597 76.604 22.9744 76.764C22.8997 76.924 22.8624 77.1 22.8624 77.292C22.8624 77.452 22.8944 77.596 22.9584 77.724C23.0224 77.852 23.113 77.964 23.2304 78.06C23.3797 78.1773 23.5877 78.2893 23.8544 78.396C24.1317 78.492 24.473 78.5933 24.8784 78.7C25.3477 78.828 25.7424 78.9613 26.0624 79.1C26.393 79.228 26.665 79.3827 26.8784 79.564C27.1664 79.7773 27.369 80.0227 27.4864 80.3C27.6144 80.5773 27.6784 80.892 27.6784 81.244C27.6784 81.7133 27.545 82.1293 27.2784 82.492C27.0224 82.8547 26.665 83.1427 26.2064 83.356C25.7477 83.5587 25.225 83.66 24.6384 83.66ZM29.5586 83.5V71.66H30.7586V76.972L30.5186 77.212C30.636 76.7747 30.8546 76.3907 31.1746 76.06C31.4946 75.7187 31.868 75.452 32.2946 75.26C32.732 75.068 33.1746 74.972 33.6226 74.972C34.2626 74.972 34.796 75.0947 35.2226 75.34C35.6493 75.5853 35.964 75.964 36.1666 76.476C36.38 76.988 36.4866 77.6387 36.4866 78.428V83.5H35.2706V78.492C35.2706 77.9373 35.196 77.484 35.0466 77.132C34.908 76.7693 34.6893 76.5027 34.3906 76.332C34.092 76.1613 33.7186 76.0813 33.2706 76.092C32.9186 76.092 32.588 76.156 32.2786 76.284C31.9693 76.4013 31.7026 76.5667 31.4786 76.78C31.2546 76.9933 31.0786 77.2387 30.9506 77.516C30.8226 77.7933 30.7586 78.092 30.7586 78.412V83.5H30.1666C30.092 83.5 30.0066 83.5 29.9106 83.5C29.8146 83.5 29.6973 83.5 29.5586 83.5ZM43.7418 83.5V72.3H44.9898V83.5H43.7418ZM44.3658 78.508V77.276H50.0298V78.508H44.3658ZM44.3658 73.516V72.3H50.7818V73.516H44.3658ZM52.7781 83.5V71.66H53.9781V83.5H52.7781ZM59.8796 83.66C59.0476 83.66 58.3063 83.4733 57.6556 83.1C57.0156 82.7267 56.509 82.2093 56.1356 81.548C55.773 80.8867 55.5916 80.1347 55.5916 79.292C55.5916 78.46 55.773 77.7187 56.1356 77.068C56.509 76.4173 57.0156 75.9053 57.6556 75.532C58.3063 75.1587 59.0476 74.972 59.8796 74.972C60.701 74.972 61.4316 75.1587 62.0716 75.532C62.7223 75.9053 63.229 76.4173 63.5916 77.068C63.965 77.7187 64.1516 78.46 64.1516 79.292C64.1516 80.1347 63.965 80.8867 63.5916 81.548C63.229 82.2093 62.7223 82.7267 62.0716 83.1C61.4316 83.4733 60.701 83.66 59.8796 83.66ZM59.8796 82.524C60.4663 82.524 60.989 82.3853 61.4476 82.108C61.9063 81.82 62.2636 81.436 62.5196 80.956C62.7756 80.4653 62.9036 79.9107 62.9036 79.292C62.9036 78.6733 62.7756 78.124 62.5196 77.644C62.2636 77.164 61.9063 76.7907 61.4476 76.524C60.989 76.2467 60.4663 76.108 59.8796 76.108C59.293 76.108 58.765 76.2467 58.2956 76.524C57.837 76.7907 57.4743 77.1693 57.2076 77.66C56.9516 78.14 56.829 78.684 56.8396 79.292C56.829 79.9107 56.9516 80.4653 57.2076 80.956C57.4743 81.436 57.837 81.82 58.2956 82.108C58.765 82.3853 59.293 82.524 59.8796 82.524ZM67.5579 83.5L64.6619 75.148L65.9419 75.132L68.1979 81.932L67.7979 81.9L70.2459 76.428H70.9659L73.4299 81.9L72.9499 81.932L75.2539 75.148H76.5179L73.6219 83.5H72.9179L70.3259 77.548L70.8059 77.58L68.2939 83.5H67.5579ZM1.648 107.5V96.3H2.864L7.168 103.292L6.592 103.276L10.944 96.3H12.08V107.5H10.832V102.38C10.832 101.42 10.848 100.556 10.88 99.788C10.912 99.02 10.9707 98.2573 11.056 97.5L11.28 97.948L7.264 104.252H6.4L2.496 98.028L2.672 97.5C2.75733 98.2147 2.816 98.9507 2.848 99.708C2.88 100.455 2.896 101.345 2.896 102.38V107.5H1.648ZM18.1664 107.66C17.441 107.66 16.785 107.473 16.1984 107.1C15.6117 106.716 15.1477 106.199 14.8064 105.548C14.465 104.887 14.2944 104.14 14.2944 103.308C14.2944 102.465 14.4704 101.719 14.8224 101.068C15.1744 100.417 15.6437 99.9053 16.2304 99.532C16.8277 99.1587 17.4944 98.972 18.2304 98.972C18.6677 98.972 19.073 99.036 19.4464 99.164C19.8197 99.292 20.1504 99.4733 20.4384 99.708C20.737 99.932 20.9824 100.199 21.1744 100.508C21.377 100.807 21.5157 101.132 21.5904 101.484L21.2384 101.308L21.2864 99.148H22.4864V107.5H21.2704V105.452L21.5904 105.244C21.5157 105.564 21.3717 105.873 21.1584 106.172C20.945 106.46 20.6837 106.716 20.3744 106.94C20.0757 107.164 19.7344 107.34 19.3504 107.468C18.977 107.596 18.5824 107.66 18.1664 107.66ZM18.4384 106.508C18.993 106.508 19.489 106.375 19.9264 106.108C20.3637 105.831 20.705 105.452 20.9504 104.972C21.2064 104.481 21.3344 103.927 21.3344 103.308C21.3344 102.689 21.2064 102.14 20.9504 101.66C20.705 101.18 20.3637 100.801 19.9264 100.524C19.489 100.247 18.993 100.108 18.4384 100.108C17.873 100.108 17.3717 100.247 16.9344 100.524C16.5077 100.801 16.1664 101.18 15.9104 101.66C15.665 102.14 15.5424 102.689 15.5424 103.308C15.5424 103.916 15.665 104.465 15.9104 104.956C16.1557 105.436 16.497 105.815 16.9344 106.092C17.3717 106.369 17.873 106.508 18.4384 106.508ZM24.8243 107.5V99.148H26.0082L26.0563 100.892L25.8643 100.972C25.9709 100.609 26.1789 100.279 26.4883 99.98C26.7976 99.6813 27.1656 99.4413 27.5923 99.26C28.0296 99.068 28.4776 98.972 28.9363 98.972C29.5549 98.972 30.0723 99.0947 30.4883 99.34C30.9043 99.5853 31.2189 99.964 31.4323 100.476C31.6456 100.988 31.7523 101.639 31.7523 102.428V107.5H30.5363V102.492C30.5363 101.937 30.4616 101.484 30.3123 101.132C30.1736 100.769 29.9549 100.503 29.6563 100.332C29.3576 100.161 28.9896 100.081 28.5523 100.092C28.1896 100.092 27.8536 100.156 27.5443 100.284C27.2349 100.401 26.9683 100.567 26.7443 100.78C26.5203 100.993 26.3443 101.239 26.2163 101.516C26.0883 101.793 26.0243 102.092 26.0243 102.412V107.5H25.4323C25.3576 107.5 25.2723 107.5 25.1763 107.5C25.0803 107.5 24.9629 107.5 24.8243 107.5ZM37.307 107.66C36.5817 107.66 35.9257 107.473 35.339 107.1C34.7523 106.716 34.2883 106.199 33.947 105.548C33.6057 104.887 33.435 104.14 33.435 103.308C33.435 102.465 33.611 101.719 33.963 101.068C34.315 100.417 34.7843 99.9053 35.371 99.532C35.9683 99.1587 36.635 98.972 37.371 98.972C37.8083 98.972 38.2137 99.036 38.587 99.164C38.9603 99.292 39.291 99.4733 39.579 99.708C39.8777 99.932 40.123 100.199 40.315 100.508C40.5177 100.807 40.6563 101.132 40.731 101.484L40.379 101.308L40.427 99.148H41.627V107.5H40.411V105.452L40.731 105.244C40.6563 105.564 40.5123 105.873 40.299 106.172C40.0857 106.46 39.8243 106.716 39.515 106.94C39.2163 107.164 38.875 107.34 38.491 107.468C38.1177 107.596 37.723 107.66 37.307 107.66ZM37.579 106.508C38.1337 106.508 38.6297 106.375 39.067 106.108C39.5043 105.831 39.8457 105.452 40.091 104.972C40.347 104.481 40.475 103.927 40.475 103.308C40.475 102.689 40.347 102.14 40.091 101.66C39.8457 101.18 39.5043 100.801 39.067 100.524C38.6297 100.247 38.1337 100.108 37.579 100.108C37.0137 100.108 36.5123 100.247 36.075 100.524C35.6483 100.801 35.307 101.18 35.051 101.66C34.8057 102.14 34.683 102.689 34.683 103.308C34.683 103.916 34.8057 104.465 35.051 104.956C35.2963 105.436 35.6377 105.815 36.075 106.092C36.5123 106.369 37.0137 106.508 37.579 106.508ZM47.5649 111.18C46.9462 111.18 46.3595 111.084 45.8049 110.892C45.2502 110.7 44.7915 110.46 44.4289 110.172L44.9089 109.164C45.1222 109.335 45.3675 109.484 45.6449 109.612C45.9329 109.751 46.2422 109.857 46.5729 109.932C46.9035 110.017 47.2395 110.06 47.5809 110.06C48.1995 110.06 48.7222 109.943 49.1489 109.708C49.5862 109.484 49.9169 109.148 50.1409 108.7C50.3755 108.252 50.4929 107.697 50.4929 107.036V105.436L50.6849 105.388C50.5889 105.793 50.3809 106.172 50.0609 106.524C49.7409 106.865 49.3515 107.143 48.8929 107.356C48.4342 107.559 47.9489 107.66 47.4369 107.66C46.6582 107.66 45.9595 107.473 45.3409 107.1C44.7329 106.727 44.2529 106.215 43.9009 105.564C43.5489 104.903 43.3729 104.156 43.3729 103.324C43.3729 102.481 43.5489 101.735 43.9009 101.084C44.2635 100.423 44.7489 99.9053 45.3569 99.532C45.9649 99.1587 46.6475 98.972 47.4049 98.972C47.7355 98.972 48.0555 99.0147 48.3649 99.1C48.6742 99.1747 48.9569 99.2867 49.2129 99.436C49.4795 99.5853 49.7195 99.756 49.9329 99.948C50.1462 100.14 50.3222 100.348 50.4609 100.572C50.6102 100.796 50.7169 101.025 50.7809 101.26L50.4449 101.212L50.4929 99.148H51.6929V106.988C51.6929 107.66 51.5969 108.252 51.4049 108.764C51.2129 109.287 50.9302 109.724 50.5569 110.076C50.1942 110.439 49.7569 110.711 49.2449 110.892C48.7435 111.084 48.1835 111.18 47.5649 111.18ZM47.5809 106.508C48.1462 106.508 48.6475 106.375 49.0849 106.108C49.5329 105.831 49.8849 105.452 50.1409 104.972C50.3969 104.492 50.5249 103.937 50.5249 103.308C50.5249 102.689 50.3969 102.14 50.1409 101.66C49.8955 101.18 49.5489 100.801 49.1009 100.524C48.6529 100.247 48.1462 100.108 47.5809 100.108C47.0049 100.108 46.4929 100.247 46.0449 100.524C45.6075 100.801 45.2609 101.18 45.0049 101.66C44.7489 102.14 44.6209 102.689 44.6209 103.308C44.6209 103.916 44.7435 104.465 44.9889 104.956C45.2449 105.436 45.5915 105.815 46.0289 106.092C46.4769 106.369 46.9942 106.508 47.5809 106.508ZM57.7074 107.66C56.8754 107.66 56.134 107.479 55.4834 107.116C54.8434 106.753 54.342 106.247 53.9794 105.596C53.6167 104.945 53.4354 104.199 53.4354 103.356C53.4354 102.705 53.5367 102.119 53.7394 101.596C53.942 101.063 54.2247 100.599 54.5874 100.204C54.9607 99.8093 55.4034 99.5053 55.9154 99.292C56.4274 99.068 56.982 98.956 57.5794 98.956C58.1447 98.956 58.6567 99.0573 59.1154 99.26C59.5847 99.4627 59.9847 99.7453 60.3154 100.108C60.6567 100.46 60.9127 100.881 61.0834 101.372C61.254 101.863 61.3287 102.401 61.3074 102.988L61.2914 103.548H54.3314L54.1554 102.54H60.3794L60.0914 102.812V102.428C60.07 102.044 59.958 101.676 59.7554 101.324C59.5527 100.961 59.2647 100.668 58.8914 100.444C58.5287 100.22 58.0914 100.108 57.5794 100.108C56.982 100.108 56.4647 100.231 56.0274 100.476C55.59 100.711 55.254 101.063 55.0194 101.532C54.7847 102.001 54.6674 102.583 54.6674 103.276C54.6674 103.937 54.7954 104.513 55.0514 105.004C55.3074 105.484 55.67 105.857 56.1394 106.124C56.6194 106.391 57.1954 106.524 57.8674 106.524C58.262 106.524 58.6514 106.46 59.0354 106.332C59.43 106.193 59.862 105.927 60.3314 105.532L60.9554 106.396C60.71 106.641 60.4167 106.86 60.0754 107.052C59.734 107.233 59.3607 107.383 58.9554 107.5C58.55 107.607 58.134 107.66 57.7074 107.66ZM62.9958 107.5V99.148H64.1957L64.2278 101.052L63.9878 101.132C64.0731 100.812 64.2118 100.524 64.4038 100.268C64.6064 100.001 64.8464 99.772 65.1238 99.58C65.4011 99.388 65.7051 99.244 66.0358 99.148C66.3664 99.0413 66.7131 98.988 67.0758 98.988C67.5131 98.988 67.9024 99.0627 68.2438 99.212C68.5958 99.3507 68.8891 99.596 69.1238 99.948C69.3691 100.289 69.5558 100.743 69.6838 101.308L69.3958 101.164L69.5078 100.892C69.6144 100.647 69.7691 100.412 69.9718 100.188C70.1851 99.9533 70.4251 99.7453 70.6918 99.564C70.9691 99.3827 71.2678 99.244 71.5878 99.148C71.9184 99.0413 72.2544 98.988 72.5958 98.988C73.1824 98.988 73.6784 99.116 74.0838 99.372C74.4891 99.6173 74.7931 99.996 74.9958 100.508C75.2091 101.02 75.3158 101.671 75.3158 102.46V107.5H74.0838V102.524C74.0838 101.969 74.0144 101.516 73.8758 101.164C73.7371 100.812 73.5291 100.551 73.2518 100.38C72.9851 100.199 72.6438 100.108 72.2278 100.108C71.8651 100.108 71.5291 100.172 71.2198 100.3C70.9211 100.417 70.6598 100.588 70.4358 100.812C70.2224 101.025 70.0518 101.271 69.9237 101.548C69.8064 101.825 69.7478 102.124 69.7478 102.444V107.5H68.5318V102.508C68.5318 101.975 68.4571 101.532 68.3078 101.18C68.1691 100.828 67.9611 100.561 67.6838 100.38C67.4064 100.199 67.0651 100.108 66.6598 100.108C66.3078 100.108 65.9824 100.172 65.6838 100.3C65.3851 100.417 65.1238 100.583 64.8998 100.796C64.6864 101.009 64.5158 101.255 64.3878 101.532C64.2704 101.809 64.2118 102.108 64.2118 102.428V107.5H62.9958ZM81.2699 107.66C80.4379 107.66 79.6965 107.479 79.0459 107.116C78.4059 106.753 77.9045 106.247 77.5419 105.596C77.1792 104.945 76.9979 104.199 76.9979 103.356C76.9979 102.705 77.0992 102.119 77.3019 101.596C77.5045 101.063 77.7872 100.599 78.1499 100.204C78.5232 99.8093 78.9659 99.5053 79.4779 99.292C79.9899 99.068 80.5445 98.956 81.1419 98.956C81.7072 98.956 82.2192 99.0573 82.6779 99.26C83.1472 99.4627 83.5472 99.7453 83.8779 100.108C84.2192 100.46 84.4752 100.881 84.6459 101.372C84.8165 101.863 84.8912 102.401 84.8699 102.988L84.8539 103.548H77.8939L77.7179 102.54H83.9419L83.6539 102.812V102.428C83.6325 102.044 83.5205 101.676 83.3179 101.324C83.1152 100.961 82.8272 100.668 82.4539 100.444C82.0912 100.22 81.6539 100.108 81.1419 100.108C80.5445 100.108 80.0272 100.231 79.5899 100.476C79.1525 100.711 78.8165 101.063 78.5819 101.532C78.3472 102.001 78.2299 102.583 78.2299 103.276C78.2299 103.937 78.3579 104.513 78.6139 105.004C78.8699 105.484 79.2325 105.857 79.7019 106.124C80.1819 106.391 80.7579 106.524 81.4299 106.524C81.8245 106.524 82.2139 106.46 82.5979 106.332C82.9925 106.193 83.4245 105.927 83.8939 105.532L84.5179 106.396C84.2725 106.641 83.9792 106.86 83.6379 107.052C83.2965 107.233 82.9232 107.383 82.5179 107.5C82.1125 107.607 81.6965 107.66 81.2699 107.66ZM86.5743 107.5V99.148H87.7582L87.8063 100.892L87.6143 100.972C87.7209 100.609 87.9289 100.279 88.2383 99.98C88.5476 99.6813 88.9156 99.4413 89.3423 99.26C89.7796 99.068 90.2276 98.972 90.6863 98.972C91.3049 98.972 91.8223 99.0947 92.2383 99.34C92.6543 99.5853 92.9689 99.964 93.1823 100.476C93.3956 100.988 93.5023 101.639 93.5023 102.428V107.5H92.2863V102.492C92.2863 101.937 92.2116 101.484 92.0623 101.132C91.9236 100.769 91.7049 100.503 91.4063 100.332C91.1076 100.161 90.7396 100.081 90.3023 100.092C89.9396 100.092 89.6036 100.156 89.2943 100.284C88.9849 100.401 88.7183 100.567 88.4943 100.78C88.2703 100.993 88.0943 101.239 87.9663 101.516C87.8383 101.793 87.7743 102.092 87.7743 102.412V107.5H87.1823C87.1076 107.5 87.0223 107.5 86.9263 107.5C86.8303 107.5 86.7129 107.5 86.5743 107.5ZM96.945 107.5V96.956H98.145V107.5H96.945ZM95.057 100.3V99.148H100.257V100.3H95.057Z" fill="#B3B3B3"/>
</svg>
